<?xml version="1.0" encoding="utf-8"?>
<!-- Generator: Adobe Illustrator 22.0.0, SVG Export Plug-In . SVG Version: 6.00 Build 0)  -->
<svg version="1.1" id="图层_1" xmlns="http://www.w3.org/2000/svg" xmlns:xlink="http://www.w3.org/1999/xlink" x="0px" y="0px"
	 viewBox="0 0 214 214" style="enable-background:new 0 0 214 214;" xml:space="preserve">
<style type="text/css">
	.st0{fill:#A7A7A7;}
</style>
<g>
	<path class="st0" d="M96.8,52.8c1.3-0.4,0.4,0.8,1.3,0.8v-1.7c3,0,3.4,0,5.9-0.8c0.4,0.4,0.8,0.8,1.7,0.8v-0.8h1.3
		c-0.4,0.8,0,0.4-0.8,1.7c-0.8,0-1.7,0.8-2.1,0c-0.4,0.8-2.5,0-3,0.8c0.4-0.8-0.8-1.3-1.7-0.8v0.4c0.4,0,1.3-0.4,1.3,0.4
		C99,53.2,99,54.5,97.3,54C97.7,53.2,96.8,53.2,96.8,52.8z"/>
	<path class="st0" d="M73.1,65.5c0.4-0.8-0.4-0.8-0.4-1.3c1.3,0,1.7,0,2.5-0.4c-0.4,0.4,0.8,0,0.4,0.4
		C75.2,64.6,73.5,64.6,73.1,65.5z"/>
	<path class="st0" d="M112.5,179.4c-0.4,0.4,0.4,0,0.4,0.8h-0.8C112.1,179.8,112.1,179.4,112.5,179.4z"/>
	<path class="st0" d="M115.9,36c0-0.1,0-0.1,0-0.2c0.1,0.1,0.1,0.1,0.1,0.2C116,36,116,36,115.9,36z"/>
	<path class="st0" d="M167.7,62.5C167.7,62.3,168.1,62.5,167.7,62.5L167.7,62.5z"/>
	<path class="st0" d="M67.2,51.5c0,0.2-0.2,0.3-0.4,0.4C66.8,51.7,66.9,51.5,67.2,51.5z"/>
	<path class="st0" d="M167.6,61.7C167.5,61.7,167.5,61.7,167.6,61.7C167.5,61.6,167.6,61.5,167.6,61.7z"/>
	<path class="st0" d="M66.8,51.9c-0.1,0-0.1,0-0.1,0C66.7,51.9,66.7,51.9,66.8,51.9C66.8,51.9,66.8,51.9,66.8,51.9z"/>
	<path class="st0" d="M78.2,175.2v-0.6c0.2,0.1,0.5,0.2,0.7,0.3C78.8,175.3,78.5,175.4,78.2,175.2z"/>
	<path class="st0" d="M83.3,176.9c0-0.1-0.1-0.2-0.1-0.2c0.2,0,0.3,0.1,0.5,0.1C83.7,176.9,83.6,177,83.3,176.9z"/>
	<path class="st0" d="M71.8,171.3C71.8,171.3,71.8,171.3,71.8,171.3c-0.2,0-0.5-0.1-0.6-0.3C71.4,171.1,71.6,171.2,71.8,171.3z"/>
	<path class="st0" d="M107.4,181.1v0.8c-0.4-0.4-0.4,0.8-0.4,0c0.4-0.4,0-0.4,0-0.8H107.4z"/>
	<path class="st0" d="M57,59.9C57,59.9,57,60,57,59.9c-0.1,0-0.2-0.1-0.3-0.1c0-0.1-0.1-0.2-0.1-0.3C57.2,59.3,57,59.7,57,59.9z"/>
	<path class="st0" d="M108.5,181.1c0.2,0,0.4,0,0.6,0c0.2,0.2,0.4,0.4,0.8,0.4c0,0.4,0,0.8-0.4,0.8c0-0.8-1.2-0.8-1.3-1.2
		C108.3,181.1,108.4,181.1,108.5,181.1C108.5,181.1,108.5,181.1,108.5,181.1z"/>
	<path class="st0" d="M73,171.9c0.3,0.2,0.6,0.3,0.9,0.5v0.2h-1.3c0-0.3-0.2-0.8-0.2-0.9c0.1,0,0.1,0.1,0.2,0.1
		C72.8,171.9,72.9,171.9,73,171.9z"/>
	<path class="st0" d="M85.8,176.4c0.4,0.1,0.6,0.3,0.6,0.4h-0.6V176.4z"/>
	<path class="st0" d="M98.5,181.1h-0.8c0-0.5-0.1-0.8-0.1-1c0.2,0.1,0.5,0.2,0.7,0.2C98.4,180.5,98.5,180.7,98.5,181.1z"/>
	<path class="st0" d="M162.1,158.6c-0.8,0.4-0.8-0.4-1.3-0.4v-0.8h0.8C161.2,158.2,162.1,158.2,162.1,158.6z"/>
	<path class="st0" d="M161.6,159.1v1.3c-0.4,0-0.8-0.4-0.8-0.8C161.6,159.9,160.8,158.6,161.6,159.1z"/>
	<path class="st0" d="M162.9,157.4c-0.4,0.4,0,1.3-0.4,1.3C162.5,158.2,162.1,157.4,162.9,157.4z"/>
	<path class="st0" d="M108.3,50.6h2.1c0,0.4-0.4,0.8,0,0.8h0.4c-0.8,0-1.3,0.4-0.4,0.8h-2.1c0-0.4,0.8-0.4,0.8-0.8
		C108.7,51.5,108.3,51.1,108.3,50.6z"/>
	<path class="st0" d="M110.8,51.5c-0.4,0.4-0.4,0.4-0.4,0.8c3-0.4,5.9,1.3,8,0.4c1.7,1.3,5.5,0.8,7.2,2.1c0.4,0,0.4,0,0.4-0.4
		c0.4,0.8,1.7,0.8,2.5,1.7c5.9,1.3,10.2,5.1,14.8,7.6c0-0.8-0.8-1.3-0.8-2.1c0-0.4,0.4,0,0.8,0c-3-2.5-6.8-4.7-11-6.4
		c0-0.4-0.8-0.4-0.4-0.8c-3,0-3.8-1.7-6.8-1.7v0.8c-0.4,0,0-0.8,0-1.3c-0.8,0.8-1.3-0.4-0.8,0.8c-0.8,0.4,0-0.8-0.8-0.4
		c-0.4-0.8,0.8,0,0.4-0.8c-1.7-0.4-4.2-1.3-5.1,0c-0.8,0-0.8-0.8-1.3-0.8c-0.8,0,0.4,0.8-0.4,0.8s-0.4-0.4-0.4-0.8
		c-0.8-0.4-3.4-0.8-4.2,0c0-0.4-1.3-0.4-1.7-0.4V51.5z M114.2,51.5c0.4,0.4,1.3,0,1.7,0.8C115,52.3,114.6,51.9,114.2,51.5z"/>
	<path class="st0" d="M88.4,56.6c0-0.4,0.8-0.8,0.8-1.3c0.4,0,0,0.8,0,1.3c1.7-0.4,3.4-0.4,4.2-2.1c0.8,0.8,1.7-0.4,3,0v-2.1
		c-0.8-0.4-0.4,0.4-1.3,0.4c0.4,0.8,0,0.8,0,1.3c-1.6,0.4-3.5-1-3.1,0.1c-0.5-0.5-2-0.4-2,0.3c0,0,0-0.4-0.4-0.4
		c-0.4,0.8-2.1,1.7-3,1.3v0.8c0,0.4,0,0.4-0.4,0.4c0.4,0.4,0.4,0.4,0.4,0.8c1.3,0,2.5-0.4,2.5-1.3C88.4,55.7,89.2,57,88.4,56.6z
		 M87.5,56.2c0,0.4-0.4,0.4-0.4,0.4c-0.2,0-0.2-0.3-0.2-0.4H87.5z"/>
	<path class="st0" d="M84.6,56.6c0,0.8-0.8,0.4-0.4,1.3H85c0.4,0.4,0,0.4,0,0.8c-0.8,0.4-0.8-0.4-1.3-0.4c0,0.8-0.8,0.8-1.7,1.3
		c-0.4-0.8,0.8-0.8,0.4-1.7V57C83.3,57.4,83.7,56.6,84.6,56.6z"/>
	<path class="st0" d="M79.5,59.1c0,0.4,0.4,0.8,0.4,1.3c0.8-0.4,0-1.3,0-1.7c1.3,0,0.8-1.3,2.5-0.8c-0.4,0.8-0.8,0.8-1.3,1.3
		c0.4,0.4,0.8,0.4,0.8,0.8c-0.8,0.4-1.3,0.8-2.1,1.3c0-0.4-0.4-0.4-1.3-0.4c0.4-0.8,0.4-0.4,0-1.3C79.5,60,78.6,58.7,79.5,59.1z"/>
	<path class="st0" d="M143.8,62.1c0,1.3,0.8,1.7,0.4,3c1.2,0.4,1.7,1.6,3.3,2.1c-0.4-0.8-0.5-1.5-0.3-2.5c-0.4,0-0.8,0-0.8-0.4h-0.8
		c-0.4,0,0-0.8,0-0.8c-0.2-0.1-0.3-0.1-0.4-0.1c0.1-0.1,0.1-0.2-0.1-0.4C144.3,62.9,144.7,62.1,143.8,62.1z M145.2,63.3
		c-0.2,0.2,0.2,0.8-0.5,0.5C144.4,63.1,145,63.5,145.2,63.3z"/>
	<path class="st0" d="M150.6,68.9c0,0.4-0.4,1.3,0,1.3c0.4-1.7,1.3,1.3,2.1,0.8c-0.4,1.3,2.1,1.7,0.8,3c0.8,0.4,0-0.8,0.8-0.4v1.3
		c1.3-0.4,0.8,1.3,2.1,1.3c0,0.8,0.8,0.8,0.4,1.7c-0.4,0-0.8-0.4-0.8,0v0.4c0.8,0,1.3,0.4,1.7,0.8c0,0-0.4-1.3,0-0.8
		c0,1.3,0.8,1.3,1.3,2.1c-0.4,0-1.3-0.4-1.3,0c0.4,0,0.4,0,0.4,0.8c-3.8-3.4-5.5-8-9.3-11c0.8-0.8,0.4-1.7,0-2.5
		C149.8,67.8,149.9,68.5,150.6,68.9z"/>
	<path class="st0" d="M147.7,67.6c0,0.1,0.1,0.1,0.1,0.2C147.8,67.7,147.8,67.7,147.7,67.6z"/>
	<path class="st0" d="M148.9,67.6C148.9,67.6,148.9,67.6,148.9,67.6c-0.1,0-0.3,0-0.4,0C148.5,67.2,148.9,67.6,148.9,67.6z"/>
	<path class="st0" d="M147.7,67.6c-0.1-0.2-0.1-0.3-0.2-0.5c0,0,0.1,0,0.1,0C147.7,67.3,147.7,67.5,147.7,67.6z"/>
	<path class="st0" d="M148.3,68.4c0,0.3,0.2,0.7,0.2,0.9c-0.2-0.6-0.5-1.1-0.7-1.5C148,68,148.1,68.2,148.3,68.4z"/>
	<path class="st0" d="M148.5,67.6c0,0.8,0.8,0.4,0.8,1.3h-0.4c-0.2-0.2-0.4-0.3-0.6-0.5C148.3,68.1,148.3,67.8,148.5,67.6z"/>
	<path class="st0" d="M72.3,67.2c-0.8,0.4-1.7,0.4-1.7,1.3c-0.4-0.4-0.8-1.3-0.8-2.1c0.8,1.3,0.8-1.7,2.5-1.3
		c-0.4,0.8-0.8,0.8-1.3,1.3C71.8,66.3,72.3,66.7,72.3,67.2z"/>
	<path class="st0" d="M72.3,66.3c0,0,0.2-0.3,0.2-0.7c0.1,0.2,0.2,0.5,0.2,0.7H72.3z"/>
	<path class="st0" d="M72.3,65c0.2,0.2,0.2,0.4,0.2,0.6C72.4,65.4,72.3,65.2,72.3,65z"/>
	<path class="st0" d="M158.2,80.7c0,1.3,0.8,0.8,0,1.7c1.7,1.7,1.7,5.1,3.4,6.8c-0.4,1.3,0.4,1.7,0.4,2.1c0.8,0,0.4-0.8,0.8-0.4h0.4
		c0.4,0.4,0,1.7,0,2.1c0.4,0,0.4,0.4,0.4,0.4h1.3c-0.8-4.2-2.5-7.2-3.8-10.6h-1.3c0-0.8,0.4-1.3,0.4-1.7c-0.4,0-0.4-0.4-0.4-0.4
		H158.2z M159.1,83.3c0.8-0.4,1.3,0,1.3,0.8C159.5,84.1,159.1,83.7,159.1,83.3z"/>
	<path class="st0" d="M144.7,151c0,0.4,0,0.8,0.8,0.8c0.4,0.8-0.8,0-0.4,0.8c-0.4,0,0-0.8-0.8-0.8c-0.4,0.8,0.8,0.8,0.4,1.7
		c-0.8-0.4-0.8,0.4-1.3,0.4c0-0.8-0.3-1.2-0.7-1.6C143.4,151.9,144,151.5,144.7,151z"/>
	<path class="st0" d="M72.7,152.3v-0.1C72.7,152.2,72.8,152.2,72.7,152.3C72.8,152.2,72.7,152.3,72.7,152.3z"/>
	<path class="st0" d="M78.2,155.7C78.2,155.7,78.2,155.6,78.2,155.7c0,0,0.1,0,0.1,0.1C78.3,155.7,78.3,155.7,78.2,155.7z"/>
	<path class="st0" d="M71.9,151.4h-0.5v-0.4C71.6,151.2,71.8,151.3,71.9,151.4z"/>
	<path class="st0" d="M142.6,152.3c0,0,0.1,0.1,0.1,0.1c0,0,0,0-0.1,0C142.6,152.4,142.6,152.3,142.6,152.3z"/>
	<path class="st0" d="M128.6,179.8C128.6,179.8,128.6,179.8,128.6,179.8c0.1,0,0.1-0.1,0.2-0.1C128.7,179.8,128.7,179.8,128.6,179.8
		z"/>
	<path class="st0" d="M127.3,177.3c-0.4,0-0.8-0.4-1.7-0.4v1.3h0.8c0,0.4-0.8,0.4-0.4,1.3c0.8,0.4,0-0.8,0.4-0.8
		c0,0.4,0.8,0.8,0.4,1.7c0.6-0.2,1.2-0.3,1.7-0.5c0-0.8-0.4-2.1,0.4-2.5c0.4,0.8,0.8,2-0.3,2.5c0.9-0.3,1.8-0.5,2.8-0.8
		c0-0.4,0.4-0.4,0-1.3h1.3c0-0.8,0.4-1.3,0.4-1.3c0,0.4,0.4,0.8,0.4,1.3c1.3,0,1.3-0.8,3-0.4c0-0.4,0.4-0.8,0.4-1.7
		c-0.4,0-0.4,0.4-0.4,0.4c-0.8-0.8,0.4-1.7,0.8-2.1c0,0.8,0,1.3,0.4,1.7c0.8,0.4,0-0.8,0.8-0.4c0,0.8-1.3,0.8-0.8,1.7
		c1.7-0.8,3-1.3,4.7-1.7c0-0.8,0-1.3,0.4-1.7c0.8,0.4-0.4,0.8,0,1.3c0.8-0.8,1.3-1.7,3-1.3c0-0.8,0-1.3-0.8-1.3
		c0-0.4,0.4-0.4,0.4-0.8h-0.8c0-0.4,0.4-0.8,0.8-0.8v0.8c0.8,1.3,2.1-1.3,2.5,0.4c2.5-1.3,4.7-3,6.8-4.2v-1.3c0.4,0,0.4,0.4,0.4,0.8
		c0.8-0.4,0.8-1.3,2.1-1.3c0-0.8,0-1.7-0.4-2.1c-0.4,0-0.4,0.4-0.4,0.4c-0.8-0.4,0.4-0.4,0-0.8c-0.8-0.4-1.3-1.7-1.3-0.8
		c0.8,0.4,0.8,1.3,0,1.7h0.8v0.8c0,0.4-1.3,0-0.8,0.8c-0.8,0-0.5-1.2-0.8-2c-0.1,0.1-0.5,0.1-0.5,0.3c-0.4,0-0.4-0.8-0.8-0.4
		c0.4,1.3-1.3,0.4-0.8,1.7c-1.7,0.4-4.2,1.3-3.8,3c-0.4,0.4-0.8,0.4-1.3,0.8l-0.8-0.8c-1.3,0.4-2.1,1.7-3.4,2.1
		c-0.4,0.8,0.4,0.8,0.4,1.3c-0.4,0-0.8-0.4-0.8-0.8c-1.7,0-2.5,0.8-3.4,1.7c-0.4,0.8,0.4,0.4,0.4,0.8c0,0.4-0.4,0-0.4,0
		c-0.4,0,0-0.8,0-0.8c-0.4,0.8-0.8,0.4-1.7,0.4c0.4,0.8-0.8,0-0.8,0.8v-0.4c-3,1.3-5.9,2.5-9.3,3
		C127.3,176.9,126.9,176.9,127.3,177.3z M140,172.6c0.8-0.4,0.4,0.4,1.3,0.4v0.8c-0.8,0-0.4-0.8-0.8-0.8
		C140,173,139.6,173,140,172.6z M130.7,177.3c0-0.8,0.4-0.8,0.8-0.4c0,0.4-0.4,0.4-0.4,0.8C131.1,177.3,131.1,177.3,130.7,177.3z"/>
	<path class="st0" d="M155.3,163.7c-0.3,0-0.6-0.2-0.8-0.2c0-0.1,0-0.1-0.1-0.2C154.9,162.9,154.9,163.7,155.3,163.7z"/>
	<path class="st0" d="M154.5,163.5c0,0.2,0,0.2-0.1,0.3c0,0,0-0.1,0-0.1C154.4,163.6,154.5,163.6,154.5,163.5z"/>
	<path class="st0" d="M114.2,182.8h-0.8c0.4-1.3-0.8-1.3-0.8-1.7C112.9,180.7,114.2,181.5,114.2,182.8z"/>
	<path class="st0" d="M114.2,180.2c0,0.8,0,2.5,0.4,2.5v-1.3c0.4,1.3,2.5,0.8,4.2,0.8c-0.4-0.4-0.4-0.8-1.3-1.3v0.8
		c-0.8-1.7,1.7-0.8,3-0.8c0.4,0.8-0.8,0-0.4,0.8c1.3,0.4,1.3-0.4,2.1-0.8c-0.5-0.3-0.4-0.9-0.3-1.6c0.3,0.4,0.3,0.8,0.3,1.6
		c1.3,0.4,1.3-0.8,2.5-0.4c0.4,0-0.8-0.4-0.8-0.4c0-0.8-0.4-1.3-0.4-2.5c-2.5,0.8-0.8,0,0,1.3c-0.4,0-0.8,0.8-1.6,0.5
		c0-0.4,0-0.9-0.1-1.3c-0.4,0.4-1.3,0.4-2.1,0c0,0.4,0,0.8-0.4,0.8c-0.4,0,0-0.4,0-0.8c-0.4,0-1.3,0.4-1.3,0.8c-1.7-0.4-3-0.4-4.2,0
		c0.4,0.8,0.4,0.5,0.1,1.2C113.9,180.1,114,180.2,114.2,180.2z M115.9,180.2c0-0.4,0.4-0.8,0.8-0.8c0,0.4,0.8,0.4,0.4,0.8
		C116.7,179.8,116.3,179.8,115.9,180.2z"/>
	<path class="st0" d="M113.8,180.1c0,0,0,0.1-0.1,0.1C113.8,180.6,113.5,180.1,113.8,180.1z"/>
	<path class="st0" d="M78.2,61.7c-0.4,0,0,0.8-0.4,1.3c-0.8,0-1.3,0.4-1.7,0.4c-0.4,0,0-0.8-0.8-0.4v-1.3c0.8,0,0.8-0.8,2.1-0.4
		v-0.8c0.4,0.4,0.4-0.4,0.8-0.4c0,0.8-0.4,0.8-0.4,0.8C77.4,61.2,78.2,60.8,78.2,61.7z"/>
	<path class="st0" d="M108.7,139.6c0-0.4,0.4-0.8,1.3-0.8C109.5,139.2,109.5,139.6,108.7,139.6z"/>
	<path class="st0" d="M115.5,82c-0.5,0-0.7,0.2-1,0.5c0.2-0.3,0.2-0.7,0.6-0.9C115.1,81.8,115.3,81.9,115.5,82z"/>
	<polygon class="st0" points="115.5,82 115.5,82 115.5,82 	"/>
	<path class="st0" d="M124.4,83.7c-1.3,0-2.3-0.4-3.4-0.7c-0.2,0.2-0.4,0.3-0.8,0.3v1.7c-0.8,0.4,0-0.8-0.8-0.4
		c-0.4,0.8,0.8,0,0.4,0.8c16.5,4.2,33,8.5,49.1,13.1c2.1,0,3.4,0.8,5.1,1.3c0.4,0,0.4-0.4,0.4-0.8h1.3c0.4,0.8-0.8,0.4-0.4,1.3
		c1.3-0.4,2.5,1.3,3.4,0c0.8,1.7,3.8,2.1,5.5,0.8c0,0.8-0.8,0.4-0.4,1.3c1.3,0.4,0.4-1.3,1.7-0.8h0.7c-0.1-0.2-0.2-0.4-0.3-0.5
		c-0.2,0.3-1,0.1-1.3,0.1c0-0.8,0.8-0.4,0.4-1.3c-0.6-0.1-1.1-0.1-1.6-0.3c-0.3-1.8-0.1-2.9-0.5-5.2c-0.4-3-1.7-5.1-1.7-8h-0.8
		c0.4-1.3-0.4-1.7,0-3.4c-0.8,0-0.4,0.8-1.7,0.4c0,0.4,0.8,0.4,0.4,0.8c0,0.4-0.8,0-1.3,0c0.4-1.3,0.4-1.7,0-3
		c0.8,0,0.4,0.8,0.8,1.3c0.4,0,0.4-0.8,1.3-0.4c0-0.4-0.8-0.4-0.4-1.3h-1.3c-0.4-0.8,0.4-0.8,0.4-1.3c-0.8,0-0.4-1.3-0.4-1.7h-0.8
		c0.4,0.8,0.4,1.3,0.8,2.1c-1.3,0.8-0.9-1.7-1.7-1.7c0.2-0.3,0.2-0.6,0.4-0.8c-0.4,0-0.4,0.4-0.4,0.4c-0.4-0.4-0.4-1.7,0-1.7
		c-0.8-1.3-1.3-3-2.1-4.7h-1.7c0,0.8-0.4,0.8,0,1.7v-0.8c0.8,0,0,0.8,1.3,0.8c-0.4-0.8-0.4-0.8,0-0.8v0.8h-1.3c-0.8,0,0-1.7,0-1.7
		c0-0.8-0.4-1.3-0.4-2.1c0.8-0.4,0,1.3,0.8,0.8c-0.4-0.4-0.4-1.3-0.4-1.7l-0.8-0.4c-0.4-0.8-0.4-0.4-0.8-1.3
		c-0.4-0.4-0.4-1.3-0.4-1.7c-0.4-0.4-0.8-0.4-1.3-0.4v-0.8c0-0.4-0.8-0.4-1.3-0.8c-0.2-0.2-0.3-0.4-0.3-0.4c0,0-0.1,0-0.1,0
		c-0.3,0-0.2-0.6-0.1-0.8c-0.7,0-0.3,0.4-0.3,0.8c-0.8,0.4,0-0.8-0.8-0.4c0-0.4,0.8-0.4,0.8-0.8c-7.6-8.5-15.7-15.7-27.1-20.3
		l-0.8-0.8c-0.8-0.4,0,1.3-0.4,1.3c-0.4,0,0-0.8,0-1.3c-0.4,0-1.7-1.3-2.1,0c-0.4,0,0-0.4,0-0.8c-1.7-0.8-3.4-0.8-5.1-1.7
		c-0.8-0.4,0,0.8-0.8,0.4c-1.7-0.8-4.7-2.1-6.4-1.7c0-0.4-0.8-0.4-0.4-0.8c-3,0.4-4.7-0.8-8-0.4c-0.4,0.4,0.4,0.4,0.4,0.8
		c0,0.2-0.1,0.2-0.3,0.2c0.3,0.4,0.3,0.7,0.7,1.1c-0.4,0-0.8-0.4-0.8-1.1c-0.3,0-0.6-0.2-0.9-0.2c0.8-0.8-0.4-0.4-0.4-1.3
		c-2.5-0.4-5.5-1.3-6.8-0.4c-1.3-0.4-1.3,0-2.5-0.4c-0.4,1.7-2.1,0-4.2,0.4v1.3c-0.8,0-1.3-0.4-1.3-0.8c-0.8,0-2.1,0-1.7,0.8
		c-0.4,0-0.4-0.4-0.4-0.8c-3.4,0.4-6.4,1.3-9.3,2.1c-0.4,0.8,0.4,0.4,0.4,0.8c0.8,0.4,0-0.8,0.4-0.4c0,0.8,0.8,0.4,0.8,1.3
		c-0.8-0.4-1.7-0.4-2.5-0.8c0-0.4,0-0.4,0.4-0.4c-2.1-0.8-3.4,1.3-5.5,1.3v0.8c-0.8,0.4-0.4-0.4-0.8-0.4c-4.7,2.1-8.9,4.7-13.6,7.2
		c0,0.4-0.4,0.4,0,0.8c-1.3-0.4-1.3,1.3-2.5,0.8c0,1.3,0,3,0.4,4.2c0.2,0,0.5,0,0.7,0c-0.2-0.2,0.1-0.8-0.3-0.8
		c0.4-0.4,1.3,0,1.3,0.4c5.5-3.4,10.6-7.2,17.4-9.3v-0.8c0.4,0,0.4,0.8,0.8,0.4c0-0.4,0-0.4,0.4-0.4c0-0.4-0.4-0.4-0.4-0.4
		c0-0.4,0.4,0,0.4,0c0.4,0,0,1.3,0.4,0.8c0-1.3,0-1.7-0.8-2.1c0.4-0.4,0.4-0.4,0.4-0.8h0.8c-0.8,0.8,0.4,1.3-0.4,1.7
		c0.4,0,0.4,0.4,0.4,0.4c1.3-0.4,3-1.3,4.7-1.3c0-0.4,0-0.8,0.4-0.8c0.1-0.2,0.1-0.3,0.1-0.4c0.1,0.1,0.2,0.1,0.4-0.1
		c0,0.4-0.8,0.4-0.4,1.3c0.4-0.4,1.3-0.4,2.1-0.4v-1.3c0.4,1.7,3,0.8,3.8,0c0.8,0.8,2.5-0.4,4.2,0c0-0.4,0.8-0.4,0.4-0.8
		c0.8-0.4,0.8,0,0.8,0.4c6.8-0.4,13.6,0.8,18.6,0.4c0.8,0.4-0.4,0.4,0,0.8c8,0.8,13.6,4.2,19.9,6.4c2.5,2.5,6.8,3.4,8.5,5.9
		c1.3,0,0.8,1.3,2.1,0.8c0.4,0.4,0.8,0.8,1.3,1.7c1.7,0.4,2.5,2.1,4.2,3.4c1.3,0.8,2.5,2.1,3,3.4h0.8c0.4,2.1,2.5,1.7,2.5,3.8h0.8
		v1.3c3.4,3,5.5,7.2,7.6,11.4c0.4,0,0.4-0.4,0.4-0.4c0.4,0,0,1.3,0.4,0.8c0.4,0.8-0.8,0-0.4,0.8c0.8,0.4,0.5-0.3,1.2-0.4
		c0.1,0.3,0.2,0.5,0.3,0.7c-0.2,0.3-0.3,0.7-0.6,1c0,1.3,1.3,1.3,0.8,3.4c0.8,0.4,0-1.3,0.4-1.3c0.4,0.4,0,1.3,0,1.3
		c1.9,5.3,3.7,9.2,4.2,15.6c-2.2-0.7-4.3-1.5-6.7-1.2c-0.4,0,0-0.4-0.4-0.8c-2.6-0.8-5.6-1.5-8.3-2.3c-0.2-0.2-0.6-0.3-1-0.3
		c-4.2-0.4-8-2.1-11.9-3C142.2,88.8,132.8,86.2,124.4,83.7z M78.2,42.2c0,0.4-0.4,1.7-0.4,1.3C77.8,43,77.4,41.8,78.2,42.2z
		 M78.6,42.2c-0.4,0-0.8-0.4-0.4-0.8C78.6,41.3,79,42.2,78.6,42.2z M81.2,41.8h-0.8c0-0.4,0-0.8,0.4-0.8
		C80.3,41.3,81.6,40.9,81.2,41.8z M85,40.5h-0.4c0-0.4,0.4-0.4,0.8-0.8C85.8,40.1,85,39.6,85,40.5z M88.4,38.4c0,0.8,0,1.3-0.8,1.3
		C87.5,38.8,87.5,38.4,88.4,38.4z M92.2,38.4c-0.2-0.2-0.8,0.2-0.5-0.5C92.4,37.6,92.1,38.3,92.2,38.4z M94.3,37.5
		c-0.4,0.4-0.4,0.8-0.8,1.3v-1.3C93.9,37.5,93.9,37.1,94.3,37.5z M112.1,35.8c-0.8,0.4-0.8-0.8,0-0.8
		C111.7,35.4,112.1,35.8,112.1,35.8z M149.8,49c-0.8,0.4-0.8-0.4-0.8-1.3C149.4,47.7,149.8,48.1,149.8,49z M164.6,61.2
		c0,1.3-1.3,0.4-1.3,0H164.6z M174.3,76.7c0.1,0.2,0.2,0.5,0.3,0.8C174.4,77.3,174.1,77.1,174.3,76.7z M173.9,76.5
		c0.1,0,0.2,0,0.2,0.1c-0.7,0.2-0.7-0.5-1.1-0.5l0.4-0.4c0.4,0,0,0.8,0.4,0.4c-0.4-0.8,0.4-0.4,0.4-0.8
		C174.8,75.6,173.9,76.1,173.9,76.5z M176.5,78.2v1.3c-0.7,0-1.1-0.3-1.2-0.9C176,78.6,176.3,78.4,176.5,78.2z M177.3,81.6
		c-0.4,0-0.8-0.4-0.8-0.8C176.9,80.7,177.3,81.1,177.3,81.6z M177.7,87.1h0.8c0.4,0.4,0,0.8-0.8,0.8V87.1z M179.4,85.4
		c0,0.4-0.4,0.8-0.8,0.8C178.6,85.4,179,85.4,179.4,85.4z M178.6,88.3c0.4,0,0.4-0.8,1.3-0.4C180.3,88.8,179,88.3,178.6,88.3z
		 M172.2,97.7c0,0.4,0.4,0.4,0.4,0.8C171.8,98.9,171.4,97.2,172.2,97.7z"/>
	<path class="st0" d="M1.1,111.6c9.7,2.5,9.7,3.4,19.1,5.9h5.5c1.3,0,1.3,0.4,2.5,0.4c-0.4-0.8,0.8-0.4,0.8-1.3
		c0.4,0,0.4,1.3-0.4,0.8c2.3,1.1,4.7,2.1,7.4,2.7c0.6,2.1,0.7,4.7,1.1,7c0,0.4,0.8,0.8,0.8,0.8c0.4,1.3,0.4,2.5,0.4,3.8
		c0,0.4,0.8,0.8,0.8,0.8v1.3c0,0.4,0.8,0.4,0.8,0.4v1.3c0,0.4,0.8,0.4,0.8,0.8c0.4,0.4,0,1.3,0,1.7c0,0.4,0.4,0.4,0.8,0.4
		c0.4,0.8,0.8,2.5,1.3,3.8l1.3,1.3v0.8c0,0.4,0.8,0,0.8,0.4c0.4,0.8,0.4,1.7,0.8,2.5c0.4,0.4,1.3,0.8,1.7,1.3c0.4,0.4,0,1.3,0.4,1.7
		c0.4,0.4,0.8,0.4,1.3,0.8c0.8,1.3,1.3,3,2.5,3.4v-0.4V154c0.4,0,0.4,0.4,0.8,0.4c0,0.4-0.4,0-0.8,0c2.1,3.8,5.9,5.9,8.5,9.3
		c0.8,0.4,0-0.8,0.4-0.8c0.4,0,0,0.8,0,1.3c0.2,0.1,0.3,0.1,0.4,0.1c-0.1,0.1-0.1,0.2,0.1,0.4c2.5,1.7,4.7,3.8,7.6,5.1
		c0.4,0,0.4-0.4,0.4-0.8c0.4,0.4,0,0.8,0,1.3c0.6,0.3,1.3,0.6,1.9,0.9c-0.1-0.1-0.2-0.3-0.2-0.5c0.4-0.4,0.4-1.3,0.8-1.3
		c0.4,0.8,0,1.3,0,2.1c0.2,0.1,0.4,0.2,0.7,0.3c0,0,0.1,0,0.2,0.1c0,0,0,0,0,0c0.1,0.1,0.2,0.1,0.3,0.2c0.3,0,0.6-0.2,0.9-0.2v0.7
		c1.4,0.7,2.8,1.5,4.2,2.2v-0.3H79c0,0.3,0,0.5-0.1,0.6c1.4,0.6,2.8,1.2,4.3,1.6c0-0.7,1.2-1,0.5-0.6c-0.3,0,0,0.5,0,0.7
		c0.7,0.2,1.4,0.4,2.1,0.5c-0.4,0-0.8-0.4-0.8-1.3c0.8,0,0.8-0.8,1.7-0.4v1.3h-0.3c0,0.3-0.6,0.6-0.6,0.8c0.8,0,2.1,0.8,2.5-0.4
		c0.4,0,0,0.8,0,1.3c1.3,0,1.7,0.4,2.5,0.8c0.4,0,0.4-0.4,0.4-0.8c0.8,0,0.8,0.8,1.7,0.8c0-0.4,0-0.4,0.4-0.4
		c0.4,0.8,2.1,0.8,3.4,1.3c0-0.4-0.8-0.4-0.4-0.8c0.3,0.3,0.7,0.5,1.1,0.7c-0.1-0.3-0.3-0.4-0.3-0.7c0.8,0.4,0-0.8,0.8-0.4
		c-0.2,0.7-0.1,1.1,0.1,1.4c1.4,0.4,3.1,0.5,4.5,0.8c1.2-0.6,3.1-0.1,5.5,0c0,0,0,0,0,0c0.1,0,0.1,0,0.2,0.1c0,0,0,0,0.1,0
		c0.4-0.1-0.1-1.3,0.6-0.9c-0.2,0.2-0.2,0.6,0,0.9c0.7,0,1.3,0,2.1-0.1c-0.8-0.8-0.4-1.7,0-2.1c-0.8-0.4-0.4,0.4-0.8,0.4
		c-0.4,0-0.4-0.8-0.4-0.8c0-0.4,1.3-0.4,1.3-0.8h-2.1c-0.4,0.8,0.8,0.8,0.4,1.7c-0.4,0.4-0.4-1.7-0.8-0.4c-0.4,0,0-0.8,0-1.3
		c-0.4,0-2.1,0.4-2.1-0.4c-0.4,0.8-0.8-0.4-1.7,0v2.1c0.8,0.4,0-1.3,0.8-0.8c0.4,0,0,0.4,0,0.8c-1.7,0.8-1.3-1.3-2.5-1.3
		c0,0.4,0.8,0.4,0.4,0.8c0,0.4-1.3,0-0.8,0.8c-0.6,0.3-0.4-0.2-0.5-0.4c0,0,0,0,0,0c0.4-1.3-0.8-1.3,0-2.1c-0.8,0-3-0.8-3.8,0
		c-0.8-1.3-3.8-0.4-5.1-1.3c-0.8-0.4,0,0.8-0.8,0.4c0,0.4,0,0.4,0.4,0.4c-0.4,0.4-0.8,0-1.3,0c0-0.8,0.8-0.4,0.4-1.3
		c-2.5-0.4-5.5-0.8-7.2-2.1c-0.4,0-0.4,0.4-0.4,0.4c-0.4-0.8-2.5-1.7-3-1.3c-3.8-2.5-8-4.2-12.3-6.8V165c-0.8,0-1.2-0.7-1.9-0.5
		c0.1-0.1,0.2-0.2,0.2-0.3c-3-1.3-4.2-4.2-7.2-5.1v-0.8l-0.8,0.8c0.8-1.7-2.1-3-3-4.7c-1.3,0-1.3-0.8-1.3-1.3c-0.4,0-0.4,0.4-0.8,0
		c0-1.3-0.8-2.1-1.7-3c0,0.8-0.4,0.8-0.4,0.8c-0.4-0.4,0.8-0.8,0.4-1.3c-0.8-1.3-1.7-2.1-2.5-3.4c0,0.8,0,0.8,0.4,0.8l-0.4,0.4
		c0-1.7-0.4-3-0.8-4.2c-0.8,0.4-0.8-0.4-1.3-0.4c-0.4-0.8,0.8,0,0.4-0.8c-4.7-5.1-7.2-12.7-8.9-21.2c0.2,0,0.3,0,0.5,0.1
		c0-0.8,0.4-1.3,1.3-1.3c0,0.4-0.8,0.8-0.4,1.7c3.8,0.4,8,3.4,11.9,2.1c0.4,0,0,0.4,0.4,0.8c0.5,0.1,0.9,0.3,1.4,0.4
		c1.6,5.5,3.6,9.1,6.2,14c0.4,0.4,0.8,1.3,2.1,0.8c-0.8,0.8,0,2.1,0,3h0.8c0,1.7,1.7,1.7,1.7,3.4c2.1,1.3,3,3.4,5.1,4.2v0.8
		c0.3-0.1,0.6,0,0.8,0.1v-0.9c0.4,0,0.4,0.8,0.8,1.3h-0.3c0.3,0.3,0.5,0.6,0.8,0.7v-0.7c0.4,0,0.4,0.4,1.3,0c0,0.4-0.7,0.4-1.2,0.8
		c0.2,0,0.4,0,0.7-0.3c0.8,0.4-0.4,0.8,0,1.3c1.7-0.4,1.3,0.8,2.1,0.8c0-0.4-0.4-0.8,0-0.8c0,0.8,0.4,1.3,1.7,0.8
		c0.4,0.8-0.8,0-0.4,0.4c0.4,0.5,0.8,0.8,1.3,1.2c0-0.4-0.4-1.2,0.4-1.2c-0.4,0.8,0.3,1.6-0.3,1.3c1.7,1.2,3.8,2,5.4,3.3
		c0.4,0,0.4-0.4,0.4-0.4c0.4,1.3,2.5,1.7,3.8,1.7c2.5,2.1,6.8,2.5,10.2,3.8c0.4,0,0.4-0.4,0.4-0.4c0.8,0.8,3,0.4,3.8,1.3v-0.8
		c0.4,0,0,0.4,0,0.8c3.4,0,5.5,0.4,8,0.4c0-0.8,0-0.8-0.8-0.8v-0.4c0-0.4,0.8,0,0.8-0.4c0.4,0.4,0.8,0.4,1.3,0.8
		c-0.4,0.8-0.8,0-1.3,0c0,0.4,0.8,0.4,0.4,1.3c1.3-0.4,2.5-0.8,3.8-0.4v-0.8c0.8,0,0.4,0.8,1.3,0.8c0.8,0,0.4-0.8,0.8-0.8
		c4.2,0.8,8.9-1.7,12.7-2.5c-0.4-0.8,0.8,0,0.4-0.8c0.8-0.4,0,0.8,0.8,0.4c0.4-0.8,1.3-0.8,2.1-0.8c0-0.8,0-1.3-0.4-1.3
		c0.4-0.4,1.3,0,1.3,0.4c0.4,0,0.8-0.4,1.7-0.4c0-0.4,0.4-0.4,0-0.8c2.5,0,3.8-1.3,4.7-2.5c0,0,0,0.4,0.4,0.4c0-0.4,0.4-0.8,0.4-1.7
		h0.8c0.4,0.8-0.8,0-0.4,0.8c0.8-0.4,1.7-0.8,2.1-1.7h-0.8c0-0.4,0.4-0.8,0.1-1.5c-1.9,1.4-3.8,2.8-6,4.1c0,0.4,0.8,0.4,0.4,1.3
		c-0.4,0-0.8-0.4-0.8-0.8c-2.5,0.4-3.4,2.5-5.9,3c-0.4,0.8,0.8,0,0.8,0.4c-0.8,0.4-1.7-0.4-2.5,0c0,0.8,0,0.8,0.4,0.8
		c0,0.4-0.4,0-0.4,0c-0.4,0,0-0.8-0.4-0.8c-1.3,0.4-2.1,0.8-3.4,0.8c0,0.4,0.4,0.4,0.4,0.4c0,0.4-0.4,0-0.4,0c-0.4,0,0-0.4,0-0.8
		c-0.8,0.4-2.1,0.8-3,1.7c-0.4,0,0-0.4,0-0.8c-0.8,0.4-1.7,0.8-3,0.8c0,0.4,0,0.8,0.4,0.8c0,0-0.4,0-0.4,0.4c0-0.4,0-0.8-0.8-1.3
		c-0.8,0.4-1.7,0.4-3,0.4v0.8c-1.7-0.8-3.4-0.4-5.9-0.4c0,0,0.4,0,0.4,0.4c-0.4,0-0.4-0.4-0.4-0.4c-3.4,0.4-6.8-1.3-9.3-0.4
		c-0.4-0.4-1.3-1.3-1.7-0.4c-0.8-0.8-3-0.8-4.2-1.7c-0.8-0.4,0,0.8-0.4,0.8c-0.4-1.3-2.5-2.1-3.4-1.3c-0.4,0,0-0.4,0-0.8
		c-3.4-0.4-5.5-3-8.5-3.4c-0.8-1.3-2.1-2.5-3.8-2.1v-0.4c-4.7-3-8.5-7.2-11.9-11.4c-0.8,0-1.3,0-1.7,0.4c-0.4-0.4,0-2.1,0-3
		c-3.5-4.6-5.5-7.9-7.2-14.2c13.6,3.8,27.5,7.3,41,11.2c0.8,0,0.4-0.8,0.8-0.8c0.4,0,0,0.8,0.4,1.3c3.4,0.4,5.9,1.7,8.5,1.3
		c0-0.8-1.7,0-1.3-1.3c-0.8,0-0.8,0.4-1.3,0.4c-0.4,0,0-1.3-0.8-0.8c0-0.4,0.4-1.3,0.4-2.1c-0.4,0.8-0.8,0.4-0.8-0.4
		c-0.8,0-1.7,0-1.7,0.4c-0.4,0,0-0.4-0.4-0.8c-6.4-1.3-12.3-3.4-18.6-5.1c-2.5,0-4.7-0.8-6.8-2.1c-1.3,0.8-3-0.8-5.1-0.8
		c-0.4,0.8,0.4,0.4,0.8,0.8c-0.8,0.4-1.3-1.3-2.5-2.1c-0.8-0.4-1.7,0.4-2.1-0.4c0,0.4,0.4,1.3-0.4,1.3c-0.4,0,0-0.8-0.4-1.3
		c-5.5-1.3-10.2-3.4-16.9-3.8c-1.7-1.7-5.5-1.7-7.2-3c-2.1,0.8-5.1-1.7-8.4-1.7c0-0.1,0-0.3,0-0.4c-1.3-0.4-0.8,0.8-1.3,0.8
		c-0.4,0,0-0.8-0.4-1.3c-1.3,0.4-2.5-0.8-2.5,0c-2.1-0.8-5.9-2.1-8-1.7c-0.4-0.8,0.8,0,0.4-0.8c-0.4,0-1.7,0.4-1.7-0.4
		c-0.3,0-0.6,0.1-0.7,0.1c0-0.1-0.4-0.3-1.4-0.5c-0.4,0.8,0.8,0,0.4,0.8c-0.8,0-0.8-1.3-1.3-1.3c-5.1,0.4-8.9-3.8-12.7-2.1
		c-0.8-0.4-1.3-2.1,0-2.5c0.8,0-0.4,1.7,0.8,1.3c0-5.5,3.8-9.7,2.5-14.8c-0.8-0.4,0,0.8-0.8,0.8c-0.8-0.4,0.4-0.8,0.4-1.3
		c-0.4,0-0.4,0-0.4-0.4s0.8,0,1.3-0.4c0.4,0,0,0.8,0.4,1.3c1.8-3.9,2.7-8.9,4.1-13.5c-0.3,0.7-1.1,0.6-0.7,2c-0.8,0-0.4-1.3-0.4-2.1
		c0.8,0,0.8,0,1.3-0.4c0,0.1,0,0.2,0,0.3c0.1-0.3,0.2-0.6,0.3-0.9c-0.4-0.3-1.1-0.3-1.1-0.7h0.8c-0.3,0.3,0.2,0.2,0.4,0.3
		c0.1-0.4,0.3-0.8,0.5-1.2c0.4-0.8-0.4-1.3-0.4-1.7c0-0.4,0.4,0,0.8-0.4c1.3-5.1,2.5-9.3,3.8-14.4c-1.3,0.8-0.8-1.3-2.1-1.3
		c0.8,0,0.8-0.4,1.3-1.3c0.4,0,0,1.3,0.4,2.1c1,0.2,1-0.4,1-1c-0.9-0.1-1.4-0.2-1-0.2v-1.7h0.1c-0.1-0.2-0.2-0.4-0.6-0.4
		c0,0.4-0.4,0.8-1.3,0.8c0-0.8,0.4-1.3,1.3-0.8l0.1-0.1c-0.4-0.1-1-0.2-1.8-0.3c0,2.1-1.3,3.4-0.4,4.7c0,0.4-0.4,0-0.8,0.4
		c0,3-2.5,5.9-1.3,8.5c-1.3,1.3-1.3,4.2-2.1,5.9c0.8,0,0.4-0.8,1.3-0.4c-2.1,1.3-3,4.2-2.5,7.2c-0.8,0,0.4-1.7-0.8-1.3
		c0.4,2.5-2.1,4.7-0.8,6.8c-2.5,3-1.7,8.9-4.2,11.9C3.7,104.4,2,107.4,1.1,111.6z M16.8,63.4c0-0.8,0.4-1.3,0.8-1.3
		C17.6,62.1,17.6,62.9,16.8,63.4z M7.1,97.2V96h0.8C8.3,96.8,7.5,96.8,7.1,97.2z M5.4,99.3v-1.3c0.8-0.4,0,1.3,0.8,1.3
		c0-0.4,0.8-0.4,0.8-0.8H6.2c-0.4-0.4-0.4-0.8-0.4-1.3h0.8c-0.4,1.3,0.8,0.8,0.8,2.1c-0.4,0-0.8,0-0.8,0.4
		C5.8,99.8,6.2,98.9,5.4,99.3z M4.9,101.5c0.4,0,0.4,0.8,0.8,1.7C5.4,102.7,4.9,102.3,4.9,101.5z M99.8,134.5h0.8
		c0.4,0.8,0,1.3-0.8,1.3V134.5z M96,134.1c0-0.4,0.4-0.8,0.8-0.8v0.8H96z M112.9,164.1h0.8c0,0.8-0.4,1.3-0.8,0.8V164.1z
		 M101.5,179.4c0-0.3,0.3-0.1,0.6-0.1c0,0-0.1,0-0.1,0.1c0,0.8-0.4,0.8-0.4,0.8C101.1,180.2,101.5,179.8,101.5,179.4z M67.6,167.1
		H68c0,0.4,0,0.8-0.4,0.8V167.1z M61.2,164.2c0.2-0.2-0.2-0.8,0.5-0.5C62,164.4,61.4,164,61.2,164.2z M51.9,150.2
		c-0.6,0.3-0.6-0.1-0.5-0.5C51.6,149.9,52.3,149.5,51.9,150.2z M49.4,149.3c0.4-0.4,0.8,0.4,2.1,0l-0.4,0.8c0,0.4,0.8,0.4,0.4,1.3
		c-0.8,0-0.4-1.3-1.7-0.8C50.3,149.7,49.4,149.7,49.4,149.3z M48.1,147.2c0.4-0.4,0.4-0.8,0.8-0.8v0.8H48.1z M36.3,120.3
		c0.3,0.1,0.5,0.1,0.8,0.2c0,0,0,0,0,0h-0.8C36.3,120.4,36.3,120.4,36.3,120.3z M34.1,115.7c-0.2,1-1.2,1-1.2,1.8
		C32.6,116.9,33.8,116.5,34.1,115.7z M26.5,116.3h0.8c0.4,0.8,0,1.3-0.8,0.8V116.3z"/>
	<path class="st0" d="M186.5,102.1C186.5,102.1,186.5,102.1,186.5,102.1c0.1-0.1,0.1-0.1,0.2-0.2c0.5,0,0.9,0.1,1.3,0.2
		c-0.1,0.4-0.4,0.9-0.5,1.3c-0.2-0.2-0.3-0.4-0.5-0.7c-0.6,0-1-0.1-1.3-0.3C186,102.4,186.3,102.3,186.5,102.1
		C186.5,102.1,186.5,102.1,186.5,102.1z"/>
	<path class="st0" d="M121.4,82.4c-0.2,0.2-0.3,0.4-0.4,0.5c-0.4-0.1-0.7-0.2-1.1-0.3c0.1-0.3,0.2-0.7,0.2-1.1
		C121,81.1,121,82,121.4,82.4z"/>
	<path class="st0" d="M115.8,82.3c-0.2-0.6,0.9-0.3,1.3-0.3c0.4,0.4,0,0.8,0.4,0.8c0.8-0.3,1.6-0.3,2.3-0.2c-0.3,0.7-0.8,1.1-1,1.4
		c0-0.4,0.8-0.8,0-1.3c-0.4,1.3-1.7,0.8-2.1,1.7c-0.4-0.4-0.8-0.4-1.7-0.4v-0.8c0.8-0.4,1.3,1.3,1.7,0.4c-0.4-0.4-1.3-0.8-1.3-1.7
		C115.6,82.1,115.8,82.1,115.8,82.3z"/>
	<path class="st0" d="M19.2,58.5c0,0-0.1,0-0.1,0c0-0.1,0-0.2,0-0.3C19.2,58.3,19.2,58.4,19.2,58.5z"/>
	<path class="st0" d="M20.9,57.1c0.4,0.1,0.8,0.2,1.4,0.3c0.3,0.6-0.5,0.8-0.6,1c-0.4-0.2-0.7-0.4-1-0.6
		C20.6,57.5,20.8,57.3,20.9,57.1z"/>
	<path class="st0" d="M115.5,81.6c-0.2,0-0.3,0-0.4,0.1c0,0,0-0.1,0-0.1c-0.5-0.1-1.1-0.3-1.6-0.4c0-0.1-0.1-0.2-0.1-0.4
		C113.8,81.1,114.6,81.6,115.5,81.6z"/>
	<path class="st0" d="M21.6,58.4c0.1,0.1,0.2,0.1,0.4,0.2c0,0-0.1,0.1-0.1,0.1C21.7,58.6,21.6,58.5,21.6,58.4z"/>
	<path class="st0" d="M188,102.1c0.1,0,0.2,0,0.3,0.1v-0.7h0.8v0.6c-0.1,0.1-0.2,0.1-0.4,0.2c0.2,0.1,0.5,0.1,0.7,0.2
		c2.3,1.3,3.2,3.2,4.8,2c0.8,0-0.4,0.4,0,0.8c1.3,0.4,3,0.4,3.8,0.8c0-0.8,0-0.8-0.4-1.3c0.2-0.1,0.3-0.2,0.5-0.3
		c0.4,0.8,0.4,1.6,1.2,2c0.8,0,0.4-0.8,0.8-0.8c0.4,0.4,0.4,0.8,0.8,1.3c1.7,0,3,0.4,4.2,0.8c0-0.4-0.4-1.3,0.4-1.3
		c0.4,0,0,0.8,0.4,1.3c0,0.8,0.4-0.4,0.4-0.8c0.4,0.1,0.7,0.4,1,0.6c0.2-0.4,0.6-0.6,1.1-0.6c0,0.3,0,0.9-0.5,1.1
		c0.3,0.2,0.7,0.3,1.4,0.1V107c0.8,0-0.4,1.3,0.8,0.8V107c0.8,0,0.8-0.4,1.7-0.4c-0.4,0,0-0.4-0.4-0.8c-1.7,0.4-2.5-1.3-3.8,0
		c-0.4-0.4-1.3-0.4-1.3-1.3c-0.8-0.4-0.8,0.4-0.8,0.8c0-1.7-1.7-0.8-3.4-1.7c0.4,0.8-0.8,0.4-0.4,1.7H201v-0.8c0-0.8,1.3,0,0.8-0.4
		c-0.4-0.8-2.1-2.1-3-0.8c-0.4,0,0-0.4-0.4-0.8c-0.4,0-0.4,0.4-0.8,0.4c-2.5-1.7-7.2-1.7-10.2-3l1.7,0.8c0.7,0,0.8,0.6,1.1,1.1
		c-0.5-0.2-0.9-0.4-1.1-0.4v-0.7c-0.5-0.1-0.8-0.2-1-0.3c0.3,0.4-0.6,0.7-0.2,1.1C188.1,101.5,188.1,101.7,188,102.1z M204,107
		c0-0.8,0.4-1.3,0.8-1.3C204.4,105.7,204.8,107,204,107z M201.9,106.1h0.8c0,0.4,0,0.8-0.8,0.8V106.1z M198.2,104.4
		c0.6-0.5,1.3-1.2,1.9-0.8C199.8,104.4,199.4,104.4,198.2,104.4z M197.2,104.9c0.4,0.8-0.8,0.4-1.3,0.4
		C195.5,104.4,196.8,104.9,197.2,104.9z M190,101.9c0.1,0,0.3,0,0.4,0.1C190.2,102.2,190.1,102.1,190,101.9
		C190,101.9,190,101.9,190,101.9z"/>
	<path class="st0" d="M23,59c-1.3-0.1-2.7-0.3-3.7-0.5c0,0.1,0.1,0.1,0.1,0.2c9.3,2.1,17.8,5.1,27.1,6.8v-1.7c0.4,0,0.4,0.4,0.8,0.4
		c-0.4,0.4-0.8,0.8-0.4,2.1c16.5,4.2,33.5,8.5,49.5,13.6c2.5-0.4,4.2,2.1,5.9,0.4c0.4,0.4,0.4,0.8,0.8,1.3c0.9-0.6,2.3-0.1,3.4,0.4
		c0.3-0.8-0.5-0.8-0.5-1.2c0,0,0.4,0.8,1.7,0.4h1.3c-0.4,0.8-0.4,0.4,0,1.3c0.8-0.8,1.3,0.4,3,0c0.4,0,0,0.8,0.4,1.3
		c1.7-0.8-1.3-2.1,0-2.5h-0.8v-0.5C97.8,77,83.8,73.2,69.8,69.5c0.1-0.2,0.4-0.4,0.4-1.1h-1.3c0,0.4,0,0.4-0.4,0.4
		c0.1,0.1,0.2,0.3,0.3,0.4c-0.2-0.1-0.5-0.1-0.7-0.2c0-0.1,0-0.1,0-0.2c0,0.1,0,0.1,0,0.2c-5-1.3-10.1-2.7-15.2-4
		c0.1-0.1,0.2-0.3,0.4-0.4c-0.8,0-1.3-0.4-1.3-0.8c0.8,0.4,0.8,0.4,1.7,0.4v-0.8h-0.8c-0.4-1.3,0.4-1.7,0.4-2.1c0.4,0,0.4,0.8,0.8,0
		c0.4,0,0,0.4,0,0.4c0.8-0.4,0.8,0,1.3,0c-1.2-0.8,1.7-0.5,1.4-1.8c-0.5-0.1-0.6,0.5-1,0.5v0.4c-0.8,0.4-1.7-0.8-0.8-1.3
		c-0.4,0.4,0.4,0,0.8,0.4v0.4c0-0.8,0.4-1.3,0.8-1.7c0,0.8,0.8,0.8,0.4,1.2c0,0.1,0.1,0.2,0.4,0c0-0.8,0.4-1.3,0.8-1.3
		c0.4-0.8-0.8,0-0.8-0.4c3-0.4,3.8-2.5,5.5-3.8c0.4-0.8-0.8,0-0.4-0.8c0.8-0.4,0,0.8,0.8,0.4c1.7-0.4,0.4-2.5,0-3.8
		c0-0.4,0.8,0,0.8-0.4c-1.3-0.8-3,0.4-3,1.7c0.8-0.8,0.8,0.4,1.3-0.4c0.8,0.4-0.4,0.8,0,1.7c-0.4,0,0-0.8,0-0.8
		c-4.7,0-5.1,4.2-8.5,5.9v1.3h-1.3c0,0.8-0.8,1.3-0.8,1.7h0.8c-0.4,0.8-0.8-0.4-1.3,0c0,0.4-0.4,0.4-0.8,0.8c0,0.4,0.4,0.4,0.4,0.4
		c-0.4,0.8-0.4-0.4-0.8,0c-0.4,0.7-0.8,1.5-1.4,1.9c-1.3-0.2-2.7-0.5-4-0.9c0.3,0.3,0.5,0.7,0.7,1.1c-1.3,0.4-0.8-0.8-2.1-0.4v-0.8
		c0.1,0,0.3-0.1,0.4-0.1c-1.5-0.4-3-0.8-4.6-1.2l-3.8-1.3c-5.1-0.4-8.5-2.1-12.7-3c0.4,0.8-0.3,0.8-0.7,1.2
		C22.3,58.7,22.7,58.9,23,59z M27.4,60h1.3v0.8C28.2,60.4,27.4,60.4,27.4,60z M25.4,59.2c0.1,0,0.1-0.1,0.3-0.1
		C25.7,59.2,25.6,59.2,25.4,59.2z"/>
	<path class="st0" d="M107.8,81.1v1.3c-0.4-0.1-0.8-0.3-1.2-0.5C106.8,81.6,107.8,81.9,107.8,81.1z"/>
	<path class="st0" d="M44.9,63.1c-0.3-0.1-0.7-0.2-1-0.3C44.3,62.8,44.6,62.9,44.9,63.1z"/>
	<path class="st0" d="M112.9,80.7c0.1,0.1,0.2,0.2,0.2,0.4c-0.5-0.1-1-0.3-1.5-0.4v-0.4C112.5,80.3,112.1,81.1,112.9,80.7z"/>
	<path class="st0" d="M18.5,55.3c0.8,0,0,1.3,0.4,0.8c0.8,0,0-0.4,0.4-0.8c1.3-0.4,1.3,0.8,2.1,0.8c0,0.5-0.3,0.7-0.5,0.9
		c-2.8-0.7-0.9-0.7-3.2-1.1L18.5,55.3z"/>
	<path class="st0" d="M19.8,57.4c-0.4,0.1-0.5,0.4-0.6,0.8c0-0.3,0-0.6,0-0.9C19.4,57.2,19.8,57.2,19.8,57.4z"/>
	<path class="st0" d="M19.1,57.3c-0.3,0.1-0.6,0.2-0.6,0.2c-0.2-0.2-0.2-0.6-0.3-0.8h0.7C19.1,56.7,19.1,57,19.1,57.3z"/>
	<path class="st0" d="M212.5,109.6c0.1-1.2,0.3-2.3-0.4-3.1c0.4,0,0.4-0.4,1.3-0.4C213.3,107.7,212.8,108.6,212.5,109.6z"/>
	<path class="st0" d="M212.4,109.9c0-0.1,0.1-0.2,0.1-0.3C212.5,109.7,212.5,109.8,212.4,109.9L212.4,109.9z"/>
	<path class="st0" d="M13.3,79.1c0-0.1,0-0.1,0.1-0.2C13.3,79,13.3,79.1,13.3,79.1z"/>
	<path class="st0" d="M13.8,78.2c0,0-0.1-0.1-0.2-0.1c0-0.1,0.1-0.2,0.1-0.4C13.9,77.8,14,77.9,13.8,78.2z"/>
	<path class="st0" d="M210.8,112.1c-0.4-0.4,0-0.8-0.4-0.8c-0.2,0-0.4,0-0.5,0.1c0.1,0.2,0.5,0.2,0.5,0.8h-0.4
		c0,0.4-0.4,0.4-0.4,0.4c0-1.3,0.4-2.1,0.4-3.8c0.4,0,0.4-0.8,1.3-0.4c0.4,0.4,0,1.7,0.4,1.7h0.8c-0.2,0.6-0.3,1.3-0.3,2.1H210.8z"
		/>
	<path class="st0" d="M106.6,82C106.6,82,106.6,81.9,106.6,82C106.6,81.9,106.6,81.9,106.6,82C106.6,81.9,106.6,82,106.6,82z"/>
	<path class="st0" d="M184.9,102.3c0-0.4,0.4-0.4,0.4-0.8c0,0.4,0.1,0.7,0.4,0.9C185.5,102.4,185.2,102.4,184.9,102.3z"/>
	<path class="st0" d="M113.4,84.1v-1.3c0.6,0.1,0.9,0,1-0.2C114.1,83.2,113.8,83.9,113.4,84.1z"/>
	<path class="st0" d="M187.5,103.4c0.2,0.3,0.3,0.5,0.3,0.6C187.4,104.2,187.4,103.9,187.5,103.4z"/>
	<path class="st0" d="M207.4,108.2c0-0.3,0.1-0.5,0.1-0.6c0.2,0.2,0.4,0.4,0.6,0.5C207.9,108.2,207.7,108.2,207.4,108.2z"/>
	<path class="st0" d="M188.3,102.3v-0.2c0.1,0,0.3,0.1,0.4,0.1C188.6,102.3,188.5,102.3,188.3,102.3z"/>
	<path class="st0" d="M187.9,100.2c0.1,0.1,0.2,0.1,0.2,0.2C188,100.3,187.9,100.3,187.9,100.2C187.9,100.3,187.9,100.2,187.9,100.2
		z"/>
	<path class="st0" d="M186.2,101.7c0-0.1-0.1-0.1-0.1-0.2h0.1C186.2,101.5,186.2,101.6,186.2,101.7z"/>
	<path class="st0" d="M114.2,82c-0.6,0-0.8-0.5-1-0.9c0.1,0,0.2,0,0.2,0.1C113.5,81.6,113.9,81.6,114.2,82z"/>
	<path class="st0" d="M186.4,101.9c0,0.1,0.1,0.1,0.2,0.2c0,0,0,0,0,0c-0.2,0-0.3-0.1-0.3-0.2c0-0.1,0-0.1,0-0.2c0,0,0,0,0,0v-0.2h0
		c0-0.3-0.1-0.5-0.3-0.8c0-0.1,0-0.3-0.1-0.5c3,0.3,1.3-0.1,2.1,0.1c-0.5,0.7-0.8,1.3-1.1,1.6C186.6,101.9,186.5,101.9,186.4,101.9z
		"/>
	<path class="st0" d="M185.8,100.6C185.8,100.6,185.8,100.7,185.8,100.6c0.1,0.2,0,0.2,0,0.3C185.7,100.8,185.7,100.7,185.8,100.6z"
		/>
	<path class="st0" d="M114.5,82.5c0,0.1-0.1,0.1-0.1,0.2C114.4,82.6,114.5,82.6,114.5,82.5z"/>
	<path class="st0" d="M203.6,130.3c0.1,0,0.3,0,0.4,0v0.8C203.7,131,203.6,130.8,203.6,130.3z"/>
	<path class="st0" d="M117.2,139.6c1.3-1.3-1.3,0-0.8-1.7c-2.5,0-4.2-0.8-6.4-1.3c0,0.4,0.4,0.4,0.4,0.8c0,0.4-0.8,0-1.3,0.4
		c-0.4-0.8,0.8,0,0.4-0.8c-0.4,0-0.4,0-0.4-0.4c-0.7,0-0.8,0.6-1.1,1c0.2-0.1,0.5,0.1,0.2,0.7c1.7,0,3.4,0.8,3.8-0.8
		c0.8,0.4,1.7,0.8,1.7,2.1c-0.3-0.1-0.5-0.3-0.8-0.4c-0.4,0.8,0.8,0,0.4,0.8c-0.8,0.4,0-0.8-0.8-0.4c0.4,0.8-1.3,0-0.8,0.8
		c2.1,0,3,1.3,5.5,0.8C116.7,141.3,116.7,139.6,117.2,139.6z M115.9,141.3c-0.6-0.6-1.3-1.3-2.1-1.7c0.4-0.4,1.2-0.4,1.7-0.8
		C115.5,139.6,115.5,139.6,115.9,141.3z"/>
	<path class="st0" d="M202.7,146.8c0,0.3-0.3,0.4-0.6,0.4l0.2-0.7C202.4,146.6,202.5,146.7,202.7,146.8z"/>
	<path class="st0" d="M193.4,160.8c-0.2,0-0.3,0-0.4-0.1c0-0.2,0-0.4,0.1-0.5C193.3,160.3,193.4,160.4,193.4,160.8z"/>
	<path class="st0" d="M202.3,146.5l3.8-13.7c0-0.4-0.4-0.4-0.4-0.8c0.8-0.8,2.1-4.2,1.3-5.5c2.5-1.7,2.1-6.4,3.8-8.9
		c0.4-0.8-0.8,0-0.8-0.8c0-0.4,0.8,0,1.3-0.4c0-1.3,0-1.7,0.4-2.5c-0.8,0.8-0.8,0-1.3-0.8c-0.4,0-0.8,0-0.8,0.8
		c-0.4,0-0.4-0.4-0.8-0.4v-2.1c-1.3,0.4,0,2.1,0,3c-0.8,0.4,0-0.8-0.8-0.4c-0.8,5.1-3.8,10.2-3,15.2c-0.4,0.8-0.4-0.4-0.8-0.4v1.7
		c0.4,0,0.7,0.2,0.4,0.8c-0.1,0-0.3,0-0.4,0v0.9c-2.1,3-3,6.8-3.4,11C201.7,143.7,201.5,145.7,202.3,146.5z M209.9,115
		c-0.4,0.8,0.8,0,0.4,0.8h-0.8C209.5,115.4,209.1,114.6,209.9,115z M207.4,120.1h0.8c0.4,0.4,0,0.8-0.8,1.3V120.1z M205.7,127.7
		h-0.8c0-0.8,0.4-1.3,0.8-1.3V127.7z"/>
	<path class="st0" d="M174.8,154.8c0.8,0.8-0.8,0.8-0.8,1.7c2.5,0.4,5.1,1.3,7.2,2.1l3.8,1.7c9.3,2.1,4.2,0.4,13.6,2.5
		c0-0.8,1.3-2.1,0-3c1.3-0.4,1.3-1.7,1.3-3.4c-0.4,0-0.4,0.4-0.8,0.4c-0.4,0,0-0.4-0.4-0.8c0-0.4,0.8,0,1.3-0.4l2.4-8.5
		c-0.1,0-0.2,0-0.2,0c0-1.3-1.7-1.3-1.3-3c0-0.4-0.4,0-0.4,0.4c0,0.4-0.4,0-0.8,0.4c0,3.4-2.1,5.9-1.3,8.9c-0.4,0-0.4-0.4-0.8-0.4
		v1.7c0.4,0,1.3-0.4,1.3,0.4c-0.4,0.8-1.3,0-1.7-0.4c-0.8,1.7,0.8,3.4-0.8,4.7l-1.3-2.5c-1.3-0.4-0.8,0.8-2.1,0.4
		c0-0.4,0-0.4,0.4-0.4c-16.1-4.7-19.5-4.2-35.2-8.9c-0.8,0-1.3,0-1.3,0.4c-0.4,0,0-0.4-0.4-0.8c-0.4,0-0.8,0.4-0.8,0.8
		c-0.4-0.4,0.4-0.8-0.4-1.3c-5.5-0.8-10.6-2.5-15.2-3.8c-1.3,0-2.5,0-3-0.8c-0.8,0.8-1.7,0-2.5-0.4c0,0.8,0.8,0.4,0.4,1.3
		c-0.4-0.8-2.1-0.8-2.1-2.1c-0.4,0-0.8,0.8-1.7,0.4c-0.4,0,0-0.4-0.4-0.8c-2.5,0-5.5-2.1-7.2-1.3c-0.4-0.4-0.8-1.3-2.1-0.8
		c0,0.4,0.4,0.4,0.4,0.8c-0.4,0.4-0.8,0.4-1.3,0.8c-0.4,0,0-0.8-0.4-1.3c0.4,0,0.4,0,0.4,0.4c0.8-0.8-0.8-1.3-2.1-1.3
		c0.8,0.4,0,0.8-0.8,0.8c0.8,0.8,0.8,2.1,1.3,2.5c0.3,0,1,0.2,1.3,0c-0.1,0.1-0.1,0.3,0,0.4c4.7,0.4,10.6,3.4,13.1,2.5
		c0.4,0,0,0.4,0.4,0.8c1.7,0,3.4,1.3,5.1,0.4c0.4,0,0,0.4,0.4,0.8c11.9,3,22.9,6.8,35.2,8.9C173.9,155.7,174.3,155.3,174.8,154.8z
		 M119.8,142.1c0-0.1,0-0.2-0.1-0.4C120.2,141.7,120,141.9,119.8,142.1z M192.1,159.9c0.3,0.3,0.7,0.2,0.9,0.3
		c0.1-0.3,0.4-0.4,0.8-0.7v1.3h-0.4H193c0,0,0,0,0-0.1C192.4,160.6,192.1,160.3,192.1,159.9z M190.4,157.8h0.8
		c0.4,0.8,0.4,1.3,0.4,2.1C190.4,159.9,190.4,159.1,190.4,157.8z M189.2,157.8h0.8v1.3C189.2,159.1,189.6,158.2,189.2,157.8z"/>
	<path class="st0" d="M108,137.6c-0.1,0.1-0.1,0.2-0.2,0.3C107.8,137.8,107.9,137.7,108,137.6z"/>
	<path class="st0" d="M144.7,101.4l27.1,7.3l-1,3.6l-23.3-6.3l-2.2,8.2l18.5,5l1.1-4.2l4,1.1l-4.4,16.4c-1,3.7-3.4,5-7.4,3.9
		l-16.9-4.5c-3.8-0.8-5.5-2.9-5.3-6.1c0.1-1.5,0.3-3.3,0.5-5.3c0.1,0,0.2,0,0.4,0c1.6,0,2.8,0,3.7,0c-0.1,0.6-0.2,1.4-0.4,2.5
		c0,0.9-0.1,1.5-0.2,2c-0.2,2.3,0.9,3.7,3.4,4.2l14.1,3.8c2.3,0.7,3.7-0.1,4.2-2.4l2.1-7.8l-22.3-6L144.7,101.4z"/>
	<path class="st0" d="M88.8,114.4c1.9-1.8,4.1-3.8,6.8-6l2.6,2.3c-2.3,2-4.5,4.1-6.5,6.2L88.8,114.4z"/>
	<path class="st0" d="M121.9,124.5c-1.4,0-2.6,0.2-3.7,0.5c-0.4-2.2-0.6-5.3-0.6-9.3l3.5-0.1C121.2,118.9,121.5,121.9,121.9,124.5z"
		/>
	<path class="st0" d="M102.7,113.6c1.5-1.1,3.4-2.2,5.8-3.4l2,2.9c-2.4,1.4-4.3,2.7-5.7,3.8L102.7,113.6z"/>
	<path class="st0" d="M117.2,92.3l3.9,0.9c0.7,3.8,2.5,7.4,5.3,10.8c-0.3,0.2-0.7,0.6-1.5,1.1c-0.7,0.6-1.2,1-1.5,1.2
		c-1.8-2.3-3.2-4.7-4.1-7.1l-4.1-1.1c0.6,4.4,3.3,8.8,8.2,13.2c-0.7,0.4-1.7,1.1-2.9,2.2c-5.3-5.1-8.3-10.5-9-16.4l-4-1.1
		c0,4.9,2.2,9.6,6.3,14.2c-1.3,0.6-2.5,1.2-3.4,1.7c-4.4-5.3-6.5-10.9-6.3-16.8l-3.2-0.8c-0.1,0.8-0.4,2.2-0.8,4
		c-0.2,1.6-0.5,2.8-0.6,3.5c-0.4,2.2,0.4,3.4,2.2,3.8c1.2,0.3,2.5,0.6,4,0.9c-0.5,0.7-1,1.6-1.7,2.9c0,0.1,0,0.2-0.1,0.3
		c-1.5-0.4-2.9-0.8-4.2-1.3c-3.5-0.8-4.8-3.2-3.9-6.9c0.4-2.5,1.1-6.4,2.2-11.5l19.9,5.4c0-0.3-0.1-0.8-0.4-1.4
		C117.5,93.3,117.3,92.7,117.2,92.3z"/>
	<path class="st0" d="M112.8,112.7l3.7,1l-1.9,7c-0.8,3.2-2.7,4.4-5.9,3.4l-7.9-2.1c-2.9-0.7-4.4-2.2-4.4-4.6l0-0.1
		c-0.1-1.6,0-2.9,0.1-4.1c1.2,0,2.5,0,3.9-0.1c0,1.2-0.1,2.3-0.3,3.3c-0.2,1.4,0.7,2.3,2.6,2.8l5.2,1.4c1.8,0.6,2.9,0,3.3-1.8
		L112.8,112.7z"/>
	<path class="st0" d="M49.1,106.7l7.7,2.1l-0.6,2.1l3.2,0.8L63,98.2l-14.1-3.8l-3.6,13.4l3.3,0.9L49.1,106.7z M49.8,103.9l1.5-5.5
		l7.7,2.1l-1.5,5.5L49.8,103.9z"/>
	<path class="st0" d="M61.7,77.4c0.3,1.2,0.4,2.4,0.6,3.4l-9.9-2.7l-0.8,3c1,3.6,2.1,6.3,3.4,8.1c-2.2,0.6-4.7,0.8-7.5,0.6
		c0,0.5,0,1.2,0.1,2.2c0,0.7,0,1.2,0,1.5c4.1-0.3,7.2-0.8,9.4-1.6c1.7,2,4.2,4.2,7.5,6.4c0.8-0.9,1.6-1.8,2.2-2.8
		c-2.7-1.7-4.9-3.4-6.6-5c1.5-0.8,2.8-1.8,4-3c0.5,1.1,1,2.3,1.6,3.5c0.8-0.7,1.7-1.4,2.7-2.2c-1.8-3.6-2.8-7.3-3.2-11L61.7,77.4z
		 M63.1,84.3l0.1,0.2c-2,1.8-3.7,3-5.1,3.6c-1.1-1.4-2-3.3-2.8-5.9L63.1,84.3z"/>
	<path class="st0" d="M70.5,82.5L63,110.1l2.7,0.7l0.4-1.6l6.9,1.8l-0.6,2.1l2.7,0.7l7.6-28.1L70.5,82.5z M77,96.6l-2.3-0.6l2.3-8.6
		l2.3,0.6L77,96.6z M71.5,107.4l2.3-8.6l2.3,0.6l-2.3,8.6L71.5,107.4z M69.3,97.6l2.2,0.6l-2.3,8.6l-2.2-0.6L69.3,97.6z M70.1,94.7
		l2.3-8.6l2.2,0.6l-2.3,8.6L70.1,94.7z"/>
</g>
</svg>
