<svg id="Layer_1" data-name="Layer 1" 
  xmlns="http://www.w3.org/2000/svg" viewBox="0 0 360 360">
  <defs>
    <style>.cls-1{fill:#00a3e0;}.cls-2{fill:#fff;}.cls-3{fill:#404543;}</style>
  </defs>
  <title>Validity_products_ICO</title>
   <g id="db-logo" stroke="none" stroke-width="1" fill="none" fill-rule="evenodd">
    <circle class="cls-1" cx="180" cy="180" r="175.79"/>
    <path class="cls-2" d="M109.14,111a7.77,7.77,0,0,1,15.54,0V246.61a7.77,7.77,0,0,1-15.54,0V242c-5.67,8.4-16.37,14.07-30,14.07-24.78,0-38.22-18.69-38.22-44.09V190.13C40.9,164.72,54.34,146,79.12,146c13.65,0,24.35,5.67,30,14.07ZM56.44,209c0,21.83,8.61,33.17,26.88,33.17,11.33,0,20.78-7.14,25.82-17.22V177.11c-5-10.07-14.49-17.21-25.82-17.21-18.27,0-26.88,11.33-26.88,33.17Z"/>
    <path class="cls-2" d="M154.9,267.55a7.86,7.86,0,0,1-7.35,5.25,8,8,0,0,1-8-8,10.64,10.64,0,0,1,.84-3.78l64.25-168.6A7.66,7.66,0,0,1,212,87.2a8,8,0,0,1,8,8,19.44,19.44,0,0,1-.84,3.78Z"/>
    <path class="cls-3" d="M250.86,159c5.67-8.4,16.37-14.06,30-14.06,24.78,0,38.22,18.68,38.22,44.09v21.83c0,25.41-13.44,44.1-38.22,44.1-13.65,0-24.35-5.67-30-14.07v4.62a7.77,7.77,0,0,1-15.54,0V109.87a7.77,7.77,0,0,1,15.54,0Zm52.7,33c0-21.84-8.61-33.18-26.88-33.18-11.33,0-20.78,7.14-25.82,17.22v47.87c5,10.08,14.49,17.22,25.82,17.22,18.27,0,26.88-11.34,26.88-33.17Z"/>
  </g>
</svg>
