<?xml version="1.0" encoding="utf-8"?>
<!-- Generator: Adobe Illustrator 24.3.0, SVG Export Plug-In . SVG Version: 6.00 Build 0)  -->
<svg version="1.1" id="Layer_1" xmlns="http://www.w3.org/2000/svg" xmlns:xlink="http://www.w3.org/1999/xlink" x="0px" y="0px"
	 viewBox="0 0 36 36" style="enable-background:new 0 0 36 36;" xml:space="preserve">
<style type="text/css">
	.st0{fill-rule:evenodd;clip-rule:evenodd;fill:#04844B;}
	.st1{fill-rule:evenodd;clip-rule:evenodd;fill:#FFFFFF;}
</style>
<g id="Create-Knowledge">
	<g id="Export-to-svg-2-colors" transform="translate(-26.000000, -19.000000)">
		<g id="How-to" transform="translate(26.000000, 19.000000)">
			<path id="Icon-Background" class="st0" d="M4,0h28c2.2,0,4,1.8,4,4v28c0,2.2-1.8,4-4,4H4c-2.2,0-4-1.8-4-4V4C0,1.8,1.8,0,4,0z"/>
			<path class="st1" d="M24,5c0.9,0,1.5,0.7,1.5,1.5l0,0v15c0,0.8-0.7,1.5-1.5,1.5l0,0H12.4c-0.8,0-1.5-0.7-1.5-1.5l0,0v-1.1H9.7
				c-0.7,0-1.2-0.5-1.2-1.1s0.5-1.1,1.2-1.1l0,0h1.2v-3H9.7c-0.7,0-1.2-0.5-1.2-1.1S9,13,9.7,13l0,0h1.2v-3H9.7
				C9,9.9,8.5,9.4,8.5,8.8S9,7.6,9.7,7.6l0,0h1.2V6.5c0-0.8,0.7-1.5,1.5-1.5l0,0H24z M20.6,16.2h-5c-0.2,0-0.4,0.1-0.4,0.3l0,0v0.6
				c0,0.2,0.1,0.3,0.4,0.3l0,0h5c0.2,0,0.4-0.1,0.4-0.3l0,0v-0.6C21,16.4,20.8,16.2,20.6,16.2L20.6,16.2z M21.7,14h-7.1
				c-0.2,0-0.4,0.1-0.4,0.3l0,0v0.6c0,0.2,0.2,0.3,0.4,0.3l0,0h7.1c0.2,0,0.4-0.1,0.4-0.3l0,0v-0.6C22.1,14.1,21.9,14,21.7,14
				L21.7,14z M22.9,8.4h-8.3c-0.2,0-0.4,0.2-0.4,0.4l0,0v2.5c0,0.3,0.2,0.4,0.4,0.4l0,0h8.3c0.2,0,0.4-0.2,0.4-0.4l0,0V8.8
				C23.2,8.5,23.1,8.4,22.9,8.4L22.9,8.4z M17.8,26.9c0.3,0,0.7,0.1,1,0.2c0.3,0.1,0.6,0.3,0.8,0.5l0,0L19,28.1L18.9,28
				c-0.1-0.1-0.3-0.2-0.4-0.2c-0.2-0.1-0.4-0.1-0.6-0.1c-0.5,0-0.9,0.2-1.2,0.5c-0.3,0.3-0.4,0.8-0.4,1.3s0.1,1,0.4,1.3
				s0.6,0.5,1.2,0.5c0.2,0,0.5,0,0.7-0.1c0.2-0.1,0.4-0.2,0.6-0.4l0,0l0.6,0.6l-0.1,0.1c-0.2,0.2-0.4,0.3-0.7,0.4
				c-0.3,0.1-0.7,0.2-1,0.2c-0.5,0-1-0.1-1.4-0.3s-0.7-0.5-0.8-0.9c-0.2-0.4-0.3-0.8-0.3-1.4c0-0.5,0.1-1,0.3-1.4
				c0.2-0.4,0.5-0.7,0.9-0.9C16.8,27,17.2,26.9,17.8,26.9z M14.7,27v0.7h-0.6v3.6h0.6V32h-2.1v-0.7h0.6v-3.6h-0.6V27H14.7z M23.4,27
				v0.7h-2.2V29H23v0.7h-1.9v1.4h2.3V32h-3.2v-5H23.4z"/>
		</g>
	</g>
</g>
</svg>
