<?xml version="1.0" encoding="UTF-8"?>
<svg width="36px" height="36px" viewBox="0 0 36 36" version="1.1" xmlns="http://www.w3.org/2000/svg" xmlns:xlink="http://www.w3.org/1999/xlink">
    <title>Training</title>
    <g id="Create-Knowledge" stroke="none" stroke-width="1" fill="none" fill-rule="evenodd">
        <g id="Export-to-svg-2-colors" transform="translate(-26.000000, -435.000000)">
            <g id="Training" transform="translate(26.000000, 435.000000)">
                <rect id="Icon-Background" fill="#04844B" x="0" y="0" width="36" height="36" rx="4"></rect>
                <path d="M17.811,26.904 C18.1563333,26.904 18.483,26.96 18.791,27.072 C19.099,27.184 19.3533333,27.338 19.554,27.534 L19.554,27.534 L19.036,28.122 L18.912625,28.0261875 C18.784875,27.9360625 18.644,27.863 18.49,27.807 C18.2846667,27.7323333 18.07,27.695 17.846,27.695 C17.3046667,27.695 16.9056667,27.8595 16.649,28.1885 C16.3923333,28.5175 16.264,28.9596667 16.264,29.515 C16.264,30.061 16.3923333,30.4985 16.649,30.8275 C16.9056667,31.1565 17.2976667,31.321 17.825,31.321 C18.0723333,31.321 18.301,31.2755 18.511,31.1845 C18.721,31.0935 18.9053333,30.9733333 19.064,30.824 L19.064,30.824 L19.617,31.426 L19.4847,31.54724 C19.2999,31.7025467 19.0815,31.8324667 18.8295,31.937 C18.5145,32.0676667 18.1703333,32.133 17.797,32.133 C17.2696667,32.133 16.8193333,32.0221667 16.446,31.8005 C16.0726667,31.5788333 15.7903333,31.2708333 15.599,30.8765 C15.4076667,30.4821667 15.312,30.0283333 15.312,29.515 C15.312,28.9923333 15.4088333,28.535 15.6025,28.143 C15.7961667,27.751 16.0808333,27.4465 16.4565,27.2295 C16.8321667,27.0125 17.2836667,26.904 17.811,26.904 Z M14.668,27.044 L14.668,27.716 L14.087,27.716 L14.087,31.307 L14.668,31.307 L14.668,32 L12.61,32 L12.61,31.307 L13.191,31.307 L13.191,27.716 L12.61,27.716 L12.61,27.044 L14.668,27.044 Z M23.439,27.044 L23.439,27.779 L21.227,27.779 L21.227,29.102 L23.117,29.102 L23.117,29.809 L21.227,29.809 L21.227,31.251 L23.558,31.251 L23.558,32 L20.31,32 L20.31,27.044 L23.439,27.044 Z M25.0148372,14 L25.0148372,19.7926072 C25.0148372,20.895961 22.035782,22.5289246 17.1810255,22.5289246 C12.326269,22.5289246 9.34721381,20.9290616 9.34721381,19.7926072 L9.34721381,14 L13.1206837,15.8977685 L15.5590955,17.1114576 L16.8279523,17.7403692 C17.048623,17.8580603 17.313428,17.8580603 17.5340987,17.7403692 L18.8029555,17.1114576 L21.2413673,15.8977685 L25.0148372,14 Z M17.1810255,5 L29.362051,9.73338763 L27.45,10.69 L27.4508504,17.1286034 C27.4508504,17.4047457 27.2269928,17.6286034 26.9508504,17.6286034 L26.5476723,17.6286034 C26.2715299,17.6286034 26.0476723,17.4047457 26.0476723,17.1286034 L26.047,11.392 L18.4719494,15.1839552 L17.1810255,15.8349339 L15.8901016,15.1839552 L5,9.73338763 L17.1810255,5 Z" fill="#FFFFFF" fill-rule="nonzero"></path>
            </g>
        </g>
    </g>
</svg>