<?xml version="1.0" encoding="UTF-8"?>
<svg width="36px" height="36px" viewBox="0 0 36 36" version="1.1" xmlns="http://www.w3.org/2000/svg" xmlns:xlink="http://www.w3.org/1999/xlink">
    <title>Policy</title>
    <defs>
        <path d="M17.811,26.904 C18.1563333,26.904 18.483,26.96 18.791,27.072 C19.099,27.184 19.3533333,27.338 19.554,27.534 L19.554,27.534 L19.036,28.122 L18.912625,28.0261875 C18.784875,27.9360625 18.644,27.863 18.49,27.807 C18.2846667,27.7323333 18.07,27.695 17.846,27.695 C17.3046667,27.695 16.9056667,27.8595 16.649,28.1885 C16.3923333,28.5175 16.264,28.9596667 16.264,29.515 C16.264,30.061 16.3923333,30.4985 16.649,30.8275 C16.9056667,31.1565 17.2976667,31.321 17.825,31.321 C18.0723333,31.321 18.301,31.2755 18.511,31.1845 C18.721,31.0935 18.9053333,30.9733333 19.064,30.824 L19.064,30.824 L19.617,31.426 L19.4847,31.54724 C19.2999,31.7025467 19.0815,31.8324667 18.8295,31.937 C18.5145,32.0676667 18.1703333,32.133 17.797,32.133 C17.2696667,32.133 16.8193333,32.0221667 16.446,31.8005 C16.0726667,31.5788333 15.7903333,31.2708333 15.599,30.8765 C15.4076667,30.4821667 15.312,30.0283333 15.312,29.515 C15.312,28.9923333 15.4088333,28.535 15.6025,28.143 C15.7961667,27.751 16.0808333,27.4465 16.4565,27.2295 C16.8321667,27.0125 17.2836667,26.904 17.811,26.904 Z M14.668,27.044 L14.668,27.716 L14.087,27.716 L14.087,31.307 L14.668,31.307 L14.668,32 L12.61,32 L12.61,31.307 L13.191,31.307 L13.191,27.716 L12.61,27.716 L12.61,27.044 L14.668,27.044 Z M23.439,27.044 L23.439,27.779 L21.227,27.779 L21.227,29.102 L23.117,29.102 L23.117,29.809 L21.227,29.809 L21.227,31.251 L23.558,31.251 L23.558,32 L20.31,32 L20.31,27.044 L23.439,27.044 Z M17.8457674,3 L19.4954655,4.79315016 C20.3517053,5.72384559 21.6600894,6.48753013 23.4974632,6.87864549 L23.8481886,6.94756339 L25.6915348,7.28038978 L25.6915348,12.9708406 C25.6915348,16.9260729 22.9669031,19.8764815 19.2912151,22.146762 L18.9990857,22.3245876 L17.8733984,23 L16.7335986,22.3486858 C13.1413051,20.2959467 10.1528568,17.2016565 10.0056795,13.2745638 L10,12.9708406 L10,7.25458121 L11.8731232,6.94239401 C13.7400215,6.63124429 15.0884183,5.9081145 16.0252168,4.97126548 L16.1960692,4.79315016 L17.8457674,3 Z M17.8457674,6.31087246 C16.9491083,7.28550195 15.3039337,8.55953762 12.586885,9.09104596 L12.2416478,9.1535418 L12.2416478,12.9708406 C12.2416478,16.0227108 14.9729837,18.4646709 16.7713744,19.7181504 L16.9371284,19.8321646 L17.4369222,20.1576756 L17.8457674,20.4023905 L17.9381336,20.3465612 L17.9381336,20.3465612 L18.0373144,20.2857085 L18.4946479,19.9931222 L19.0308739,19.6243931 C20.7704004,18.3812028 23.2816152,16.1130675 23.4418189,13.2582607 L23.4498869,12.9708406 L23.4498869,9.1535418 C20.5259985,8.6256175 18.7797873,7.32611151 17.8457674,6.31087246 Z M21.1757515,10.6967052 C21.550609,11.0715627 21.5794442,11.6540335 21.262257,12.0608316 L21.1757515,12.1586494 L17.8051578,15.529243 C17.60211,15.7322909 17.3584526,15.81351 17.0741857,15.81351 C16.8305283,15.81351 16.6167066,15.7538388 16.4327204,15.608923 L16.3432136,15.529243 L14.5563929,13.7830319 C14.1502972,13.3769363 14.1502972,12.7271833 14.5563929,12.3210876 C14.9312504,11.9462301 15.5137212,11.917395 15.9205192,12.2345821 L16.0183371,12.3210876 L17.0741857,13.3363267 L19.7138072,10.6967052 C20.1199029,10.2906095 20.7696558,10.2906095 21.1757515,10.6967052 Z" id="path-1"></path>
    </defs>
    <g id="Create-Knowledge" stroke="none" stroke-width="1" fill="none" fill-rule="evenodd">
        <g id="Export-to-svg-2-colors" transform="translate(-26.000000, -279.000000)">
            <g id="Policy" transform="translate(26.000000, 279.000000)">
                <rect id="Icon-Background" fill="#04844B" x="0" y="0" width="36" height="36" rx="4"></rect>
                <mask id="mask-2" fill="white">
                    <use xlink:href="#path-1"></use>
                </mask>
                <use fill="#FFFFFF" xlink:href="#path-1"></use>
            </g>
        </g>
    </g>
</svg>