<?xml version="1.0" encoding="UTF-8"?>
<svg width="36px" height="36px" viewBox="0 0 36 36" version="1.1" xmlns="http://www.w3.org/2000/svg" xmlns:xlink="http://www.w3.org/1999/xlink">
    <title>Release Note</title>
    <defs>
        <path d="M17.811,26.904 C18.1563333,26.904 18.483,26.96 18.791,27.072 C19.099,27.184 19.3533333,27.338 19.554,27.534 L19.554,27.534 L19.036,28.122 L18.912625,28.0261875 C18.784875,27.9360625 18.644,27.863 18.49,27.807 C18.2846667,27.7323333 18.07,27.695 17.846,27.695 C17.3046667,27.695 16.9056667,27.8595 16.649,28.1885 C16.3923333,28.5175 16.264,28.9596667 16.264,29.515 C16.264,30.061 16.3923333,30.4985 16.649,30.8275 C16.9056667,31.1565 17.2976667,31.321 17.825,31.321 C18.0723333,31.321 18.301,31.2755 18.511,31.1845 C18.721,31.0935 18.9053333,30.9733333 19.064,30.824 L19.064,30.824 L19.617,31.426 L19.4847,31.54724 C19.2999,31.7025467 19.0815,31.8324667 18.8295,31.937 C18.5145,32.0676667 18.1703333,32.133 17.797,32.133 C17.2696667,32.133 16.8193333,32.0221667 16.446,31.8005 C16.0726667,31.5788333 15.7903333,31.2708333 15.599,30.8765 C15.4076667,30.4821667 15.312,30.0283333 15.312,29.515 C15.312,28.9923333 15.4088333,28.535 15.6025,28.143 C15.7961667,27.751 16.0808333,27.4465 16.4565,27.2295 C16.8321667,27.0125 17.2836667,26.904 17.811,26.904 Z M14.668,27.044 L14.668,27.716 L14.087,27.716 L14.087,31.307 L14.668,31.307 L14.668,32 L12.61,32 L12.61,31.307 L13.191,31.307 L13.191,27.716 L12.61,27.716 L12.61,27.044 L14.668,27.044 Z M23.439,27.044 L23.439,27.779 L21.227,27.779 L21.227,29.102 L23.117,29.102 L23.117,29.809 L21.227,29.809 L21.227,31.251 L23.558,31.251 L23.558,32 L20.31,32 L20.31,27.044 L23.439,27.044 Z M18.56,4 C18.8872727,4 19.1484298,4.22899449 19.1932081,4.53828575 L19.2,4.63333333 L19.2,9.06666667 C19.2,10.0416667 19.7744044,10.6614035 20.7191486,10.7239381 L20.88,10.7291667 L25.36,10.7291667 C25.6872727,10.7291667 25.9484298,10.9581612 25.9932081,11.2674524 L26,11.3625 L26,21.1 C26,22.0801587 25.2018141,22.9167045 24.2274052,22.9941529 L24.08,23 L11.92,23 C10.9295238,23 10.0841723,22.2101285 10.0059086,21.2458698 L10,21.1 L10,5.9 C10,4.91984127 10.7981859,4.08329554 11.7725948,4.0058471 L11.92,4 L18.56,4 Z M17.5468588,12.0019518 L14.0995438,15.1480258 C13.8693398,15.3754528 14.0608573,15.6786889 14.4438923,15.6786889 L16.6271918,15.6786889 L16.6271918,21.0575448 C16.6271918,21.361539 16.8953163,21.664775 17.2017443,21.664775 L18.3508493,21.664775 C18.6580434,21.664396 18.9261679,21.3611599 18.9261679,21.0571658 L18.9261679,15.6786889 L21.1856914,15.6786889 C21.5687264,15.6786889 21.7602439,15.3375483 21.5300398,15.1480258 L18.0827248,12.0019518 C17.9298938,11.8882383 17.6996898,11.8882383 17.5468588,12.0019518 Z M21.28,4 L21.35584,4.00475 C21.43456,4.01425 21.51904,4.038 21.58336,4.076 L21.64,4.11875 L25.88,8.31458333 C25.944,8.37791667 25.9824,8.49191667 25.9952,8.59578333 L26,8.67083333 L25.9928121,8.74967421 C25.9597805,8.93211591 25.8165158,9.09859396 25.638299,9.13736283 L25.56,9.14583333 L22.16,9.14583333 C21.4823529,9.14583333 20.8755709,8.58481834 20.8065296,7.9248007 L20.8,7.8 L20.8,4.43541667 C20.8,4.19791667 21.04,4 21.28,4 Z" id="path-1"></path>
    </defs>
    <g id="Create-Knowledge" stroke="none" stroke-width="1" fill="none" fill-rule="evenodd">
        <g id="Export-to-svg-2-colors" transform="translate(-26.000000, -123.000000)">
            <g id="Release-Note" transform="translate(26.000000, 123.000000)">
                <rect id="Icon-Background" fill="#04844B" x="0" y="0" width="36" height="36" rx="4"></rect>
                <mask id="mask-2" fill="white">
                    <use xlink:href="#path-1"></use>
                </mask>
                <use fill="#FFFFFF" xlink:href="#path-1"></use>
            </g>
        </g>
    </g>
</svg>