<?xml version="1.0" encoding="utf-8"?>
<!-- Generator: Adobe Illustrator 24.3.0, SVG Export Plug-In . SVG Version: 6.00 Build 0)  -->
<svg version="1.1" id="Layer_1" xmlns="http://www.w3.org/2000/svg" xmlns:xlink="http://www.w3.org/1999/xlink" x="0px" y="0px"
	 viewBox="0 0 36 36" style="enable-background:new 0 0 36 36;" xml:space="preserve">
<style type="text/css">
	.st0{fill-rule:evenodd;clip-rule:evenodd;fill:#0070D2;}
	.st1{fill-rule:evenodd;clip-rule:evenodd;fill:#FFFFFF;}
</style>
<g id="Create-Knowledge">
	<g id="Export-to-svg-2-colors" transform="translate(-26.000000, -175.000000)">
		<g id="Bulettin" transform="translate(26.000000, 175.000000)">
			<path id="Icon-Background" class="st0" d="M4,0h28c2.2,0,4,1.8,4,4v28c0,2.2-1.8,4-4,4H4c-2.2,0-4-1.8-4-4V4C0,1.8,1.8,0,4,0z"/>
			<path class="st1" d="M20.1,4C20.6,4,21,4.4,21,4.9s-0.4,0.9-0.9,0.9h3.4c0.7,0,1.3,0.6,1.3,1.3v0.1v14.3c0,0.7-0.5,1.4-1.2,1.4
				h-0.1H13.4c-0.7,0-1.3-0.6-1.3-1.3v-0.1V7.2c0-0.7,0.5-1.4,1.2-1.4h0.1h3.4c-0.5,0-0.9-0.4-0.9-0.9S16.3,4,16.8,4H20.1z
				 M15.2,15.8h-0.7c-0.2,0-0.3,0.2-0.3,0.3v0.7c0,0.2,0.2,0.3,0.3,0.3h0.7c0.2,0,0.3-0.2,0.3-0.3v-0.7
				C15.5,15.9,15.4,15.8,15.2,15.8z M22.4,15.8h-6c-0.1,0-0.3,0.2-0.3,0.3v0.7c0,0.2,0.1,0.3,0.3,0.3h6c0.1,0,0.3-0.2,0.3-0.3v-0.7
				C22.7,15.9,22.6,15.8,22.4,15.8z M15.2,13h-0.7c-0.2,0-0.3,0.2-0.3,0.3V14c0,0.2,0.2,0.3,0.3,0.3h0.7c0.2,0,0.3-0.2,0.3-0.3v-0.7
				C15.5,13.2,15.4,13,15.2,13z M21.8,13h-5.3c-0.1,0-0.3,0.2-0.3,0.3V14c0,0.2,0.1,0.3,0.3,0.3h5.3c0.1,0,0.3-0.2,0.3-0.3v-0.7
				C22,13.2,21.9,13,21.8,13z M15.2,10.3h-0.7c-0.2,0-0.3,0.1-0.3,0.3v0.1v0.7c0,0.2,0.1,0.3,0.3,0.3h0.1h0.7c0.2,0,0.3-0.1,0.3-0.3
				v-0.1v-0.7C15.5,10.4,15.4,10.3,15.2,10.3z M22.4,10.3h-6c-0.1,0-0.3,0.2-0.3,0.3v0.7c0,0.2,0.1,0.3,0.3,0.3h6
				c0.1,0,0.3-0.2,0.3-0.3v-0.7C22.7,10.4,22.6,10.3,22.4,10.3z M19.1,26.9c0.3,0,0.7,0.1,1,0.2s0.6,0.3,0.8,0.5l0,0l-0.5,0.6
				L20.2,28c-0.1-0.1-0.3-0.2-0.4-0.2c-0.2-0.1-0.4-0.1-0.6-0.1c-0.5,0-0.9,0.2-1.2,0.5c-0.3,0.3-0.4,0.8-0.4,1.3s0.1,1,0.4,1.3
				s0.6,0.5,1.2,0.5c0.2,0,0.5,0,0.7-0.1s0.4-0.2,0.6-0.4l0,0l0.6,0.6L21,31.5c-0.2,0.2-0.4,0.3-0.7,0.4s-0.7,0.2-1,0.2
				c-0.5,0-1-0.1-1.4-0.3c-0.4-0.2-0.7-0.5-0.8-0.9c-0.2-0.4-0.3-0.8-0.3-1.4c0-0.5,0.1-1,0.3-1.4c0.2-0.4,0.5-0.7,0.9-0.9
				C18.1,27,18.6,26.9,19.1,26.9z M13.4,27h0.2c0.7,0,1.3,0.2,1.7,0.6c0.5,0.4,0.7,1,0.7,1.9c0,0.5-0.1,1-0.3,1.4s-0.5,0.7-0.9,0.8
				C14.4,31.9,14,32,13.4,32l0,0h-1.7v-5C11.7,27,13.4,27,13.4,27z M23.4,27h0.2c0.5,0,0.8,0.2,1.1,0.4c0.3,0.3,0.5,0.7,0.5,1.2
				c0,0.4-0.1,0.7-0.3,0.9c-0.2,0.3-0.4,0.4-0.7,0.6c-0.3,0.2-0.6,0.2-0.9,0.2l0,0h-0.9V32h-0.9v-5H23.4z M13.4,27.8h-0.7v3.5h0.6
				c0.6,0,1-0.1,1.3-0.4s0.4-0.7,0.4-1.3s-0.1-1-0.4-1.3C14.4,27.9,13.9,27.8,13.4,27.8L13.4,27.8z M23.3,27.8h-0.8v1.9h0.8
				c0.3,0,0.5-0.1,0.7-0.2c0.3-0.2,0.3-0.5,0.3-0.8S24.2,28.1,24,28C23.8,27.9,23.6,27.8,23.3,27.8L23.3,27.8z"/>
		</g>
	</g>
</g>
</svg>
