<?xml version="1.0" encoding="UTF-8"?>
<svg width="36px" height="36px" viewBox="0 0 36 36" version="1.1" xmlns="http://www.w3.org/2000/svg" xmlns:xlink="http://www.w3.org/1999/xlink">
    <title>How to</title>
    <g id="Create-Knowledge" stroke="none" stroke-width="1" fill="none" fill-rule="evenodd">
        <g id="Export-to-svg-2-colors" transform="translate(-26.000000, -19.000000)">
            <g id="How-to" transform="translate(26.000000, 19.000000)">
                <rect id="Icon-Background" fill="#0070D2" x="0" y="0" width="36" height="36" rx="4"></rect>
                <path d="M18.826,26.904 C19.1713333,26.904 19.498,26.96 19.806,27.072 C20.114,27.184 20.3683333,27.338 20.569,27.534 L20.569,27.534 L20.051,28.122 L19.927625,28.0261875 C19.799875,27.9360625 19.659,27.863 19.505,27.807 C19.2996667,27.7323333 19.085,27.695 18.861,27.695 C18.3196667,27.695 17.9206667,27.8595 17.664,28.1885 C17.4073333,28.5175 17.279,28.9596667 17.279,29.515 C17.279,30.061 17.4073333,30.4985 17.664,30.8275 C17.9206667,31.1565 18.3126667,31.321 18.84,31.321 C19.0873333,31.321 19.316,31.2755 19.526,31.1845 C19.736,31.0935 19.9203333,30.9733333 20.079,30.824 L20.079,30.824 L20.632,31.426 L20.4997,31.54724 C20.3149,31.7025467 20.0965,31.8324667 19.8445,31.937 C19.5295,32.0676667 19.1853333,32.133 18.812,32.133 C18.2846667,32.133 17.8343333,32.0221667 17.461,31.8005 C17.0876667,31.5788333 16.8053333,31.2708333 16.614,30.8765 C16.4226667,30.4821667 16.327,30.0283333 16.327,29.515 C16.327,28.9923333 16.4238333,28.535 16.6175,28.143 C16.8111667,27.751 17.0958333,27.4465 17.4715,27.2295 C17.8471667,27.0125 18.2986667,26.904 18.826,26.904 Z M13.086,27.044 L13.33226,27.05009 C14.05382,27.08663 14.6204,27.2876 15.032,27.653 C15.4893333,28.059 15.718,28.6796667 15.718,29.515 C15.718,30.047 15.6118333,30.4996667 15.3995,30.873 C15.1871667,31.2463333 14.8861667,31.5275 14.4965,31.7165 C14.1068333,31.9055 13.6483333,32 13.121,32 L13.121,32 L11.399,32 L11.399,27.044 L13.086,27.044 Z M23.11,27.044 L23.3149141,27.0503984 C23.7811797,27.0802578 24.164375,27.214625 24.4645,27.4535 C24.8075,27.7265 24.979,28.143 24.979,28.703 C24.979,29.0716667 24.8926667,29.3843333 24.72,29.641 C24.5473333,29.8976667 24.3198333,30.0878333 24.0375,30.2115 C23.7551667,30.3351667 23.446,30.397 23.11,30.397 L23.11,30.397 L22.242,30.397 L22.242,32 L21.325,32 L21.325,27.044 L23.11,27.044 Z M13.051,27.793 L12.309,27.793 L12.309,31.244 L13.03,31.244 C13.604,31.244 14.038,31.104 14.332,30.824 C14.626,30.544 14.773,30.1076667 14.773,29.515 C14.773,28.9223333 14.6295,28.4871667 14.3425,28.2095 C14.0555,27.9318333 13.625,27.793 13.051,27.793 L13.051,27.793 Z M23.033,27.779 L22.235,27.779 L22.235,29.655 L23.026,29.655 C23.3153333,29.655 23.558,29.5768333 23.754,29.4205 C23.95,29.2641667 24.048,29.0273333 24.048,28.71 C24.048,28.3786667 23.9523333,28.1406667 23.761,27.996 C23.5696667,27.8513333 23.327,27.779 23.033,27.779 L23.033,27.779 Z M23.9545455,5 C24.8045455,5 25.5,5.675 25.5,6.5 L25.5,6.5 L25.5,21.5 C25.5,22.325 24.8045455,23 23.9545455,23 L23.9545455,23 L12.3636364,23 C11.5136364,23 10.8181818,22.325 10.8181818,21.5 L10.8181818,21.5 L10.8181818,20.375 L9.65909091,20.375 C9.00227273,20.375 8.5,19.8875 8.5,19.25 C8.5,18.6125 9.00227273,18.125 9.65909091,18.125 L9.65909091,18.125 L10.8181818,18.125 L10.8181818,15.125 L9.65909091,15.125 C9.00227273,15.125 8.5,14.6375 8.5,14 C8.5,13.3625 9.00227273,12.875 9.65909091,12.875 L9.65909091,12.875 L10.8181818,12.875 L10.8181818,9.875 L9.65909091,9.875 C9.00227273,9.875 8.5,9.3875 8.5,8.75 C8.5,8.1125 9.00227273,7.625 9.65909091,7.625 L9.65909091,7.625 L10.8181818,7.625 L10.8181818,6.5 C10.8181818,5.675 11.5136364,5 12.3636364,5 L12.3636364,5 Z M20.6125,16.25 L15.6541667,16.25 C15.4416667,16.25 15.3,16.3625 15.3,16.53125 L15.3,16.53125 L15.3,17.09375 C15.3,17.2625 15.4416667,17.375 15.6541667,17.375 L15.6541667,17.375 L20.6125,17.375 C20.825,17.375 20.9666667,17.2625 20.9666667,17.09375 L20.9666667,17.09375 L20.9666667,16.53125 C20.9666667,16.3625 20.825,16.25 20.6125,16.25 L20.6125,16.25 Z M21.7033333,14 L14.5633333,14 C14.3253333,14 14.1666667,14.1125 14.1666667,14.28125 L14.1666667,14.28125 L14.1666667,14.84375 C14.1666667,15.0125 14.3253333,15.125 14.5633333,15.125 L14.5633333,15.125 L21.7033333,15.125 C21.9413333,15.125 22.1,15.0125 22.1,14.84375 L22.1,14.84375 L22.1,14.28125 C22.1,14.1125 21.9413333,14 21.7033333,14 L21.7033333,14 Z M22.8555556,8.375 L14.5444444,8.375 C14.3177778,8.375 14.1666667,8.54375 14.1666667,8.796875 L14.1666667,8.796875 L14.1666667,11.328125 C14.1666667,11.58125 14.3177778,11.75 14.5444444,11.75 L14.5444444,11.75 L22.8555556,11.75 C23.0822222,11.75 23.2333333,11.58125 23.2333333,11.328125 L23.2333333,11.328125 L23.2333333,8.796875 C23.2333333,8.54375 23.0822222,8.375 22.8555556,8.375 L22.8555556,8.375 Z" fill="#FFFFFF"></path>
            </g>
        </g>
    </g>
</svg>