<?xml version="1.0" encoding="UTF-8"?>
<svg width="36px" height="36px" viewBox="0 0 36 36" version="1.1" xmlns="http://www.w3.org/2000/svg" xmlns:xlink="http://www.w3.org/1999/xlink">
    <title>Notification</title>
    <defs>
        <path d="M17.811,26.904 C18.1563333,26.904 18.483,26.96 18.791,27.072 C19.099,27.184 19.3533333,27.338 19.554,27.534 L19.554,27.534 L19.036,28.122 L18.912625,28.0261875 C18.784875,27.9360625 18.644,27.863 18.49,27.807 C18.2846667,27.7323333 18.07,27.695 17.846,27.695 C17.3046667,27.695 16.9056667,27.8595 16.649,28.1885 C16.3923333,28.5175 16.264,28.9596667 16.264,29.515 C16.264,30.061 16.3923333,30.4985 16.649,30.8275 C16.9056667,31.1565 17.2976667,31.321 17.825,31.321 C18.0723333,31.321 18.301,31.2755 18.511,31.1845 C18.721,31.0935 18.9053333,30.9733333 19.064,30.824 L19.064,30.824 L19.617,31.426 L19.4847,31.54724 C19.2999,31.7025467 19.0815,31.8324667 18.8295,31.937 C18.5145,32.0676667 18.1703333,32.133 17.797,32.133 C17.2696667,32.133 16.8193333,32.0221667 16.446,31.8005 C16.0726667,31.5788333 15.7903333,31.2708333 15.599,30.8765 C15.4076667,30.4821667 15.312,30.0283333 15.312,29.515 C15.312,28.9923333 15.4088333,28.535 15.6025,28.143 C15.7961667,27.751 16.0808333,27.4465 16.4565,27.2295 C16.8321667,27.0125 17.2836667,26.904 17.811,26.904 Z M14.668,27.044 L14.668,27.716 L14.087,27.716 L14.087,31.307 L14.668,31.307 L14.668,32 L12.61,32 L12.61,31.307 L13.191,31.307 L13.191,27.716 L12.61,27.716 L12.61,27.044 L14.668,27.044 Z M23.439,27.044 L23.439,27.779 L21.227,27.779 L21.227,29.102 L23.117,29.102 L23.117,29.809 L21.227,29.809 L21.227,31.251 L23.558,31.251 L23.558,32 L20.31,32 L20.31,27.044 L23.439,27.044 Z M19.8375,20.7507352 C20.0625,20.7507352 20.25,20.9756617 20.2125,21.2005882 C20.025,22.2127573 19.0875,23 18,23 C16.9125,23 15.975,22.2502451 15.7875,21.2005882 C15.7541667,21.0006535 15.8986111,20.8007189 16.0891461,20.7587573 L16.1625,20.7507352 L19.8375,20.7507352 Z M23.9959825,10.7824188 L24,11.0039211 L24,15.3150119 C24,15.9827624 24.5273437,16.5516683 25.1803436,16.6201731 L25.3125,16.6270831 L25.5,16.6270831 C26.2764706,16.6270831 26.9200692,17.2248116 26.9930999,17.9827157 L27,18.1265929 L27,18.6889091 C27,18.9588209 26.787375,19.1983676 26.52615,19.2435778 L26.4375,19.2512253 L9.5625,19.2512253 C9.2925,19.2512253 9.052875,19.0386698 9.00765,18.8048587 L9,18.7263969 L9,18.1640807 C9,17.3851686 9.60208333,16.706571 10.3639789,16.6335753 L10.5,16.6270831 L10.6875,16.6270831 C11.3554687,16.6270831 11.9245605,16.1328598 11.9930878,15.4841919 L12,15.3524997 L12,11.1913598 C12,7.92992584 14.475,5.15583258 17.7,5.00588159 C21.075,4.85919041 23.8758034,7.47491742 23.9959825,10.7824188 Z" id="path-1"></path>
    </defs>
    <g id="Create-Knowledge" stroke="none" stroke-width="1" fill="none" fill-rule="evenodd">
        <g id="Export-to-svg-2-colors" transform="translate(-26.000000, -331.000000)">
            <g id="Notification" transform="translate(26.000000, 331.000000)">
                <rect id="Icon-Background" fill="#04844B" x="0" y="0" width="36" height="36" rx="4"></rect>
                <mask id="mask-2" fill="white">
                    <use xlink:href="#path-1"></use>
                </mask>
                <use fill="#FFFFFF" xlink:href="#path-1"></use>
            </g>
        </g>
    </g>
</svg>