<svg id="svg" version="1.1" xmlns="http://www.w3.org/2000/svg" xmlns:xlink="http://www.w3.org/1999/xlink" width="400" height="400" viewBox="0, 0, 400,400"><g id="svgg"><path id="path0" d="M169.200 67.968 C 168.430 68.123,167.014 68.750,166.054 69.359 C 165.094 69.969,163.596 70.719,162.724 71.027 C 161.853 71.334,160.838 71.956,160.470 72.408 C 160.101 72.861,159.350 73.454,158.800 73.726 C 158.250 73.999,157.474 74.911,157.076 75.755 C 156.678 76.598,156.002 77.379,155.574 77.491 C 155.032 77.633,154.599 78.380,154.150 79.947 C 153.795 81.186,153.073 83.236,152.546 84.503 L 151.588 86.805 151.694 123.503 C 151.792 157.305,151.854 160.310,152.490 161.600 C 152.869 162.370,153.550 164.212,154.004 165.693 C 154.515 167.365,155.126 168.546,155.613 168.807 C 156.044 169.038,156.761 169.940,157.206 170.811 C 157.726 171.830,158.486 172.592,159.338 172.948 C 160.066 173.252,161.008 173.952,161.431 174.503 C 161.996 175.239,163.473 175.915,167.000 177.052 L 171.800 178.600 210.818 178.800 C 248.004 178.991,249.889 179.035,250.972 179.744 C 251.596 180.154,257.296 185.644,263.637 191.944 C 279.058 207.266,277.557 206.001,280.311 205.994 C 286.142 205.979,287.600 202.802,287.600 190.111 C 287.600 178.638,288.418 176.833,294.086 175.790 C 295.047 175.613,295.659 175.244,295.817 174.747 C 295.951 174.325,296.542 173.679,297.130 173.312 C 299.586 171.780,302.068 168.649,303.029 165.868 C 303.549 164.366,304.385 162.476,304.887 161.668 L 305.800 160.200 305.800 122.400 L 305.800 84.600 304.543 82.800 C 303.852 81.810,303.097 80.309,302.866 79.465 C 302.473 78.031,301.710 77.030,298.924 74.296 C 298.306 73.689,297.338 72.739,296.774 72.185 C 296.210 71.630,295.040 70.982,294.174 70.744 C 293.308 70.506,292.510 70.186,292.400 70.034 C 292.290 69.882,291.480 69.317,290.600 68.779 L 289.000 67.800 229.800 67.742 C 197.240 67.710,169.970 67.812,169.200 67.968 M235.600 87.406 C 236.590 87.784,238.520 88.482,239.889 88.957 C 241.258 89.432,242.968 90.368,243.689 91.036 C 244.410 91.704,245.486 92.456,246.081 92.708 C 246.675 92.959,247.431 93.686,247.760 94.323 C 248.090 94.960,248.814 95.779,249.369 96.143 C 250.045 96.586,250.595 97.547,251.032 99.052 C 251.392 100.288,252.071 101.952,252.543 102.750 C 253.900 105.045,253.790 111.390,252.341 114.400 C 251.759 115.610,251.050 117.383,250.766 118.340 C 250.482 119.297,249.842 120.347,249.345 120.673 C 248.847 120.999,248.072 121.890,247.622 122.653 C 247.171 123.416,246.304 124.215,245.693 124.427 C 245.083 124.640,244.407 125.216,244.192 125.707 C 243.976 126.198,243.225 126.869,242.523 127.200 C 240.142 128.318,237.444 131.305,236.881 133.445 C 236.472 134.998,235.897 135.829,234.083 137.491 L 231.800 139.581 226.764 139.591 C 219.821 139.604,216.279 137.111,217.746 133.244 C 218.131 132.230,218.721 130.492,219.056 129.381 C 219.477 127.986,220.030 127.121,220.845 126.581 C 221.494 126.152,222.375 125.212,222.802 124.494 C 223.230 123.775,223.990 123.030,224.490 122.837 C 224.991 122.644,226.122 121.792,227.005 120.943 C 227.887 120.095,229.433 118.714,230.441 117.876 C 234.767 114.278,235.802 108.233,232.885 103.600 C 232.400 102.830,231.957 102.068,231.902 101.906 C 231.410 100.483,224.961 100.929,224.179 102.440 C 223.839 103.097,223.155 103.820,222.657 104.047 C 222.160 104.273,221.560 104.970,221.325 105.594 C 220.556 107.631,218.849 108.162,213.000 108.182 C 203.918 108.213,201.691 106.004,205.155 100.400 C 205.359 100.070,205.725 99.052,205.968 98.138 C 206.808 94.977,211.749 90.215,215.200 89.240 C 216.190 88.960,217.450 88.437,218.000 88.078 C 220.613 86.372,231.769 85.946,235.600 87.406 M116.285 117.573 C 114.914 117.764,114.073 118.160,113.323 118.969 C 112.747 119.591,111.314 120.524,110.138 121.044 C 108.962 121.564,107.998 122.217,107.995 122.495 C 107.992 122.773,107.274 123.771,106.398 124.714 C 104.771 126.466,103.600 128.368,103.600 129.259 C 103.600 129.533,103.141 130.419,102.581 131.228 C 100.970 133.552,100.815 137.109,100.807 171.810 C 100.800 204.899,100.983 209.506,102.394 211.792 C 102.805 212.456,103.526 214.173,103.996 215.608 C 104.633 217.550,105.137 218.379,105.970 218.857 C 106.585 219.210,107.321 220.026,107.607 220.670 C 107.945 221.435,108.696 222.078,109.767 222.521 C 110.669 222.894,111.936 223.695,112.580 224.300 C 113.225 224.905,114.573 225.670,115.576 226.000 C 118.682 227.022,118.951 228.001,119.201 239.200 C 119.330 244.998,119.582 248.907,119.858 249.400 C 120.104 249.840,120.466 250.740,120.662 251.399 C 120.883 252.141,121.473 252.809,122.209 253.151 C 122.864 253.455,123.790 254.057,124.266 254.490 C 125.271 255.402,125.690 255.318,129.800 253.374 C 131.891 252.386,132.732 251.748,133.119 250.858 C 133.428 250.147,134.116 249.499,134.819 249.253 C 135.469 249.027,136.000 248.636,136.000 248.385 C 136.000 247.996,136.709 247.188,139.860 243.987 C 140.113 243.730,141.040 242.800,141.920 241.920 C 142.800 241.040,143.699 240.139,143.918 239.918 C 144.137 239.697,145.505 238.362,146.958 236.951 C 148.411 235.540,149.600 234.226,149.600 234.032 C 149.600 233.838,150.219 233.314,150.975 232.868 C 151.732 232.421,152.636 231.504,152.985 230.830 C 153.346 230.131,154.218 229.352,155.010 229.022 C 155.774 228.702,156.400 228.256,156.400 228.031 C 156.400 226.423,156.990 226.400,198.080 226.398 C 240.392 226.395,241.598 226.343,243.065 224.469 C 243.558 223.839,244.735 223.026,245.681 222.662 C 246.797 222.233,247.751 221.479,248.400 220.513 C 248.950 219.695,250.165 218.159,251.100 217.099 C 252.035 216.040,252.801 214.864,252.803 214.487 C 252.805 214.109,253.160 212.637,253.592 211.217 L 254.377 208.633 253.356 206.546 C 252.766 205.341,251.756 204.066,250.967 203.529 C 250.214 203.018,249.493 202.274,249.365 201.876 C 249.236 201.477,248.741 200.973,248.265 200.756 C 247.789 200.539,246.993 199.740,246.496 198.981 C 245.671 197.720,245.424 197.600,243.649 197.600 L 241.706 197.600 241.512 202.700 C 241.304 208.151,240.705 210.395,239.247 211.175 C 238.795 211.417,237.969 212.038,237.410 212.555 C 235.855 213.997,236.040 213.991,192.394 213.996 L 151.389 214.000 143.221 222.188 C 134.401 231.032,134.527 230.956,133.338 228.113 C 132.969 227.231,132.800 224.958,132.800 220.893 C 132.800 213.582,133.153 214.000,126.980 214.000 C 120.443 214.000,117.158 212.640,116.007 209.458 C 115.757 208.766,115.203 207.534,114.776 206.721 C 113.564 204.411,113.564 139.189,114.776 136.879 C 115.203 136.066,115.748 134.860,115.987 134.200 C 116.413 133.023,118.048 131.690,120.771 130.300 C 121.867 129.741,123.177 129.600,127.291 129.600 C 131.124 129.600,132.741 129.444,133.620 128.990 L 134.800 128.379 134.800 123.400 L 134.800 118.421 133.620 117.810 C 132.369 117.163,120.405 117.000,116.285 117.573 M231.600 144.185 C 234.879 145.738,236.251 152.658,234.075 156.671 C 232.243 160.051,222.704 160.054,218.973 156.676 L 217.095 154.975 217.095 151.650 L 217.095 148.325 219.247 146.181 C 220.431 145.002,221.760 143.953,222.200 143.849 C 223.350 143.578,230.887 143.848,231.600 144.185 M211.200 298.200 C 207.359 299.130,201.531 301.433,200.853 302.288 C 200.494 302.742,199.605 303.413,198.879 303.778 C 197.091 304.677,194.612 307.217,193.615 309.170 C 193.165 310.052,192.464 310.952,192.057 311.170 C 191.568 311.431,191.138 312.422,190.791 314.083 C 190.501 315.467,189.739 318.130,189.097 320.000 C 187.263 325.344,187.509 329.641,190.002 335.800 C 190.180 336.240,190.551 337.471,190.825 338.537 C 191.100 339.602,191.926 341.194,192.662 342.075 C 193.398 342.955,194.000 344.027,194.000 344.456 C 194.000 344.925,194.510 345.510,195.274 345.919 C 195.975 346.293,197.010 347.073,197.574 347.651 C 198.138 348.228,199.275 348.917,200.100 349.182 C 200.925 349.446,201.600 349.828,201.600 350.031 C 201.600 350.234,201.813 350.400,202.074 350.400 C 202.335 350.400,202.920 350.749,203.374 351.175 C 204.543 352.273,208.379 352.793,215.323 352.797 C 222.735 352.801,224.361 352.418,226.649 350.130 C 229.303 347.476,229.187 343.746,226.495 345.166 C 223.433 346.781,222.458 347.002,217.815 347.135 C 210.950 347.330,209.154 347.033,207.166 345.372 C 206.263 344.617,205.179 344.000,204.757 344.000 C 203.844 344.000,199.200 339.522,199.200 338.641 C 199.200 338.304,198.650 337.401,197.977 336.635 C 195.716 334.060,195.129 319.868,197.152 316.716 C 197.617 315.992,198.432 314.484,198.965 313.364 C 200.226 310.712,204.883 306.607,207.307 306.010 C 208.238 305.781,209.900 305.100,211.000 304.497 C 214.014 302.844,221.068 302.846,223.456 304.500 C 224.571 305.273,225.542 305.600,226.722 305.600 L 228.400 305.600 228.400 303.665 C 228.400 298.583,220.278 296.002,211.200 298.200 M136.349 298.288 C 135.025 298.429,134.876 298.572,134.653 299.921 C 134.209 302.611,134.363 351.930,134.817 352.211 C 136.685 353.365,151.966 352.662,156.529 351.212 C 157.888 350.780,160.440 350.038,162.200 349.564 C 164.328 348.990,165.752 348.348,166.452 347.648 C 167.030 347.069,168.200 346.348,169.052 346.046 C 170.886 345.395,171.486 344.819,172.970 342.287 C 173.583 341.242,174.407 340.161,174.801 339.884 C 175.196 339.608,176.302 337.676,177.259 335.591 L 179.000 331.800 179.000 324.200 C 179.000 317.782,178.894 316.413,178.320 315.400 C 177.090 313.232,175.600 309.898,175.600 309.315 C 175.600 309.114,175.060 308.551,174.401 308.064 C 173.741 307.576,172.951 306.579,172.646 305.847 C 172.187 304.750,171.765 304.436,170.232 304.050 C 169.210 303.792,167.828 303.060,167.161 302.423 C 166.196 301.501,165.359 301.176,163.074 300.835 C 161.493 300.599,158.400 300.037,156.200 299.587 C 154.000 299.136,151.300 298.608,150.200 298.413 C 148.240 298.066,139.215 297.984,136.349 298.288 M243.126 298.266 C 241.109 298.511,241.142 297.997,241.282 327.400 L 241.400 352.200 243.200 352.400 C 244.190 352.510,245.810 352.510,246.800 352.400 L 248.600 352.200 248.819 343.000 C 248.939 337.940,249.074 333.760,249.119 333.710 C 249.775 332.984,252.168 332.469,255.687 332.297 C 259.847 332.094,261.111 331.776,265.860 329.740 C 266.554 329.443,267.399 329.200,267.740 329.200 C 268.080 329.200,268.863 328.728,269.479 328.151 C 270.096 327.575,271.006 326.833,271.502 326.504 C 271.999 326.174,272.746 325.134,273.162 324.192 C 273.588 323.229,274.288 322.363,274.760 322.213 C 275.222 322.066,275.609 321.643,275.621 321.273 C 275.632 320.903,275.779 319.362,275.947 317.848 C 276.534 312.558,275.948 308.241,274.473 307.000 C 273.773 306.411,273.200 305.703,273.200 305.427 C 273.200 304.705,270.087 301.726,268.849 301.262 C 262.152 298.754,250.381 297.383,243.126 298.266 M153.871 304.533 C 154.526 304.872,156.667 305.429,158.631 305.771 C 160.890 306.166,162.567 306.693,163.200 307.210 C 163.750 307.658,164.792 308.401,165.515 308.861 C 166.238 309.320,167.109 310.260,167.452 310.948 C 167.794 311.637,168.614 312.659,169.274 313.220 C 172.354 315.838,172.188 334.103,169.060 336.823 C 168.528 337.285,167.776 338.365,167.390 339.223 C 167.003 340.080,166.307 340.899,165.843 341.042 C 165.379 341.185,164.550 341.804,164.000 342.417 C 163.434 343.047,162.057 343.831,160.828 344.222 C 159.633 344.601,158.103 345.231,157.428 345.621 C 154.500 347.312,145.485 347.762,143.818 346.300 C 140.681 343.549,141.286 305.302,144.489 303.841 C 145.500 303.380,152.663 303.908,153.871 304.533 M260.621 304.561 C 261.710 305.090,263.440 305.883,264.466 306.323 C 269.976 308.690,269.685 321.627,264.066 324.094 C 263.040 324.545,262.104 325.061,261.986 325.241 C 260.380 327.700,250.483 327.684,249.336 325.221 C 248.797 324.066,248.688 308.351,249.206 306.621 C 250.192 303.331,255.950 302.292,260.621 304.561 " stroke="none" fill="#f4f7fb" fill-rule="evenodd"></path><path id="path1" d="M167.400 65.957 C 164.405 66.217,163.798 66.461,162.695 67.850 C 162.307 68.339,161.407 68.866,160.695 69.021 C 158.886 69.416,152.901 75.656,152.553 77.511 C 152.404 78.302,151.715 79.396,150.852 80.210 L 149.400 81.580 149.280 121.490 C 149.147 165.768,149.085 164.137,151.001 166.229 C 151.749 167.046,152.480 168.274,152.625 168.957 C 152.919 170.341,153.866 171.600,154.613 171.600 C 154.883 171.600,155.335 172.160,155.618 172.844 C 155.930 173.597,156.579 174.244,157.263 174.482 C 157.884 174.698,158.619 175.331,158.896 175.887 C 159.211 176.519,160.103 177.161,161.279 177.602 C 162.313 177.990,163.573 178.773,164.079 179.343 C 165.656 181.119,167.483 181.194,209.267 181.197 C 247.832 181.200,249.597 181.241,249.603 182.143 C 249.604 182.394,250.246 183.036,251.028 183.569 C 251.811 184.102,252.718 185.055,253.045 185.686 C 253.371 186.318,254.080 187.002,254.619 187.207 C 255.158 187.412,255.942 188.143,256.360 188.830 C 256.778 189.518,257.678 190.419,258.360 190.834 C 259.042 191.249,259.601 191.816,259.603 192.094 C 259.604 192.372,260.246 193.036,261.028 193.569 C 261.811 194.102,262.712 195.044,263.032 195.662 C 263.352 196.281,264.147 197.063,264.800 197.400 C 265.453 197.737,266.258 198.538,266.589 199.178 C 266.920 199.819,267.555 200.459,268.000 200.600 C 268.445 200.741,269.080 201.381,269.411 202.022 C 269.742 202.662,270.521 203.449,271.141 203.770 C 271.762 204.090,272.748 204.981,273.333 205.748 C 275.664 208.803,286.673 208.839,287.438 205.793 C 287.573 205.251,288.341 204.233,289.142 203.530 L 290.600 202.250 290.803 191.825 C 291.046 179.339,291.263 178.613,295.000 177.790 C 297.368 177.269,297.617 177.127,298.215 175.972 C 298.548 175.327,299.104 174.800,299.449 174.800 C 300.384 174.800,303.934 170.784,304.224 169.400 C 304.362 168.740,305.095 167.660,305.854 167.000 C 307.938 165.185,308.062 162.316,307.921 119.192 C 307.790 79.160,307.809 79.493,305.681 78.937 C 305.220 78.816,304.776 78.091,304.474 76.962 C 303.811 74.481,298.865 69.464,296.440 68.811 C 295.515 68.562,294.656 68.091,294.531 67.764 C 293.742 65.708,296.749 65.803,231.000 65.757 C 197.560 65.734,168.940 65.824,167.400 65.957 M288.963 66.782 C 290.741 67.011,292.096 67.435,292.763 67.969 C 293.333 68.426,294.578 69.186,295.528 69.657 C 298.036 70.901,302.500 75.407,303.792 78.000 C 304.395 79.210,305.231 80.575,305.650 81.032 C 307.096 82.611,307.242 87.005,307.108 125.000 C 306.975 162.973,306.905 164.518,305.271 165.564 C 305.069 165.694,304.350 166.880,303.674 168.200 C 302.487 170.519,299.928 173.600,299.190 173.600 C 298.992 173.600,298.148 174.299,297.315 175.154 C 296.248 176.249,295.133 176.899,293.544 177.353 C 290.061 178.347,289.855 179.060,289.603 191.007 L 289.400 200.615 288.118 202.607 C 285.879 206.088,285.619 206.357,284.094 206.781 C 278.053 208.458,276.992 207.804,262.929 193.710 C 256.368 187.135,250.555 181.450,250.011 181.078 C 249.099 180.453,246.185 180.400,212.780 180.400 C 165.097 180.400,165.185 180.411,157.487 173.200 C 155.505 171.343,153.815 169.203,153.189 167.756 C 152.797 166.852,151.964 165.052,151.338 163.756 L 150.200 161.400 150.082 125.600 C 150.008 103.230,150.115 88.600,150.366 86.600 C 151.173 80.184,155.889 73.177,161.600 69.909 C 162.810 69.216,164.250 68.323,164.801 67.923 C 165.352 67.523,166.882 67.039,168.201 66.847 C 171.376 66.385,285.403 66.324,288.963 66.782 M222.600 88.825 C 211.933 91.382,207.902 94.578,206.483 101.604 L 205.737 105.295 206.969 106.046 C 208.000 106.675,209.015 106.797,213.225 106.799 C 218.871 106.800,218.339 107.038,221.600 103.056 C 225.421 98.390,230.398 98.328,234.419 102.896 L 236.560 105.328 236.560 108.662 C 236.560 111.479,236.425 112.165,235.690 113.097 C 235.212 113.704,234.483 114.920,234.070 115.800 C 233.330 117.378,231.020 119.665,227.400 122.400 C 223.283 125.510,220.992 128.220,220.242 130.862 C 218.666 136.413,219.466 137.200,226.681 137.200 C 232.443 137.200,232.945 137.024,234.308 134.534 C 234.688 133.838,235.424 132.488,235.943 131.534 C 237.208 129.208,239.099 127.265,240.789 126.552 C 241.553 126.230,242.691 125.344,243.318 124.583 C 243.945 123.822,244.711 123.200,245.020 123.200 C 245.329 123.200,245.888 122.705,246.263 122.100 C 246.638 121.495,247.422 120.460,248.007 119.800 C 252.253 115.006,252.331 101.512,248.137 97.134 C 247.566 96.539,246.897 95.648,246.650 95.156 C 246.402 94.664,245.439 93.860,244.510 93.369 C 243.580 92.878,242.535 92.192,242.187 91.844 C 241.839 91.496,240.080 90.781,238.277 90.254 C 229.701 87.747,227.814 87.575,222.600 88.825 M235.000 90.831 C 239.457 91.303,239.670 91.370,241.208 92.808 C 241.895 93.449,243.099 94.095,243.882 94.242 C 245.057 94.462,245.411 94.773,245.897 96.010 C 246.221 96.836,246.907 97.736,247.422 98.012 C 250.473 99.645,250.306 116.589,247.217 118.788 C 246.581 119.241,245.945 120.139,245.804 120.783 C 245.609 121.670,245.206 122.068,244.146 122.418 C 243.320 122.690,242.560 123.290,242.290 123.882 C 242.008 124.500,241.044 125.233,239.773 125.795 C 237.897 126.625,235.600 128.864,235.600 129.863 C 235.600 130.076,235.069 130.759,234.419 131.381 C 233.770 132.003,233.119 133.072,232.973 133.756 C 232.509 135.929,232.315 136.000,226.800 136.000 C 220.556 136.000,220.553 135.998,221.166 132.042 C 221.405 130.505,221.600 129.164,221.600 129.063 C 221.600 128.962,222.234 128.505,223.008 128.048 C 223.943 127.497,224.495 126.825,224.650 126.050 C 224.824 125.178,225.164 124.827,225.995 124.661 C 226.606 124.539,227.970 123.691,229.026 122.778 C 230.081 121.864,231.334 120.940,231.809 120.723 C 232.285 120.506,233.264 119.355,233.986 118.164 C 234.707 116.974,235.440 116.000,235.613 116.000 C 238.216 116.000,238.299 103.758,235.704 102.610 C 235.219 102.395,234.613 101.714,234.356 101.095 C 233.637 99.358,232.613 99.025,227.957 99.012 L 223.713 99.000 221.521 101.200 C 220.315 102.410,219.212 103.872,219.070 104.449 C 218.748 105.749,217.690 106.000,212.524 106.000 C 207.624 106.000,207.155 105.750,207.428 103.291 C 208.024 97.926,207.967 98.099,209.420 97.241 C 210.228 96.764,210.800 96.110,210.800 95.662 C 210.800 94.739,211.427 94.199,212.914 93.844 C 213.526 93.698,214.220 93.155,214.455 92.638 C 214.812 91.855,215.360 91.624,217.742 91.250 C 225.706 89.999,226.873 89.971,235.000 90.831 M120.663 113.637 C 119.597 113.854,118.247 114.368,117.663 114.780 C 117.078 115.191,115.700 115.652,114.600 115.804 C 112.246 116.128,111.418 116.508,109.800 118.010 C 109.140 118.623,108.246 119.187,107.814 119.265 C 107.382 119.342,106.608 120.034,106.094 120.803 C 105.580 121.571,104.786 122.373,104.330 122.583 C 103.873 122.794,103.167 123.745,102.759 124.696 C 102.351 125.647,101.451 127.130,100.758 127.993 C 98.901 130.303,98.843 131.591,98.841 171.000 C 98.839 211.691,98.908 213.305,100.756 215.605 C 101.465 216.487,102.240 217.792,102.479 218.504 C 102.997 220.051,103.924 221.200,104.652 221.200 C 104.942 221.200,105.466 221.754,105.816 222.432 C 106.172 223.118,107.048 223.911,107.797 224.225 C 108.537 224.534,109.257 225.150,109.398 225.594 C 109.729 226.638,110.863 227.225,113.593 227.764 L 115.800 228.200 116.000 239.400 C 116.114 245.793,116.372 250.876,116.600 251.243 C 117.750 253.090,121.453 256.810,122.509 257.178 C 125.600 258.256,130.606 257.472,131.353 255.793 C 131.547 255.357,132.267 254.730,132.953 254.400 C 133.639 254.070,134.371 253.411,134.579 252.936 C 134.788 252.461,135.563 251.784,136.301 251.432 C 137.117 251.043,137.804 250.334,138.051 249.625 C 138.310 248.882,138.888 248.308,139.643 248.045 C 140.428 247.771,141.027 247.154,141.419 246.216 C 141.744 245.437,142.247 244.800,142.536 244.800 C 143.172 244.800,144.800 243.132,144.800 242.480 C 144.800 242.222,145.399 241.760,146.131 241.455 C 146.937 241.118,147.656 240.430,147.953 239.713 C 148.239 239.024,149.026 238.250,149.832 237.865 C 150.792 237.407,151.289 236.857,151.445 236.076 C 151.600 235.298,152.039 234.810,152.860 234.500 C 153.603 234.219,154.224 233.590,154.513 232.825 C 154.767 232.151,155.251 231.599,155.588 231.598 C 155.924 231.596,156.716 231.326,157.346 230.998 C 158.338 230.480,163.575 230.399,196.546 230.394 C 236.154 230.388,236.712 230.367,238.624 228.780 C 238.861 228.583,240.032 228.215,241.227 227.962 C 243.645 227.449,246.400 226.191,246.400 225.599 C 246.400 225.387,247.307 224.754,248.415 224.192 C 249.524 223.630,250.585 222.772,250.773 222.285 C 250.961 221.798,251.597 220.984,252.187 220.476 C 253.239 219.571,254.774 216.730,254.791 215.658 C 254.796 215.359,255.244 214.766,255.786 214.339 C 258.933 211.864,258.207 206.924,254.084 202.745 C 252.608 201.249,251.086 199.704,250.701 199.313 C 246.444 194.972,245.329 193.962,244.196 193.425 C 240.317 191.584,239.201 192.943,239.197 199.516 C 239.192 205.587,238.858 208.800,238.229 208.800 C 237.976 208.800,237.056 209.204,236.185 209.699 L 234.600 210.598 193.361 210.799 C 163.979 210.942,151.961 211.128,151.561 211.445 C 151.253 211.690,150.494 212.011,149.875 212.159 C 149.143 212.334,146.314 214.873,141.784 219.421 C 133.740 227.499,134.469 227.565,134.307 218.744 C 134.164 210.909,134.245 211.000,127.091 210.699 C 124.282 210.581,121.762 210.310,121.491 210.097 C 121.221 209.884,120.461 209.581,119.802 209.423 C 119.143 209.265,118.378 208.948,118.102 208.719 C 117.580 208.286,117.328 137.254,117.842 135.340 C 118.155 134.173,119.040 134.014,127.280 133.640 C 137.426 133.180,137.600 133.006,137.600 123.373 C 137.600 113.974,137.156 113.487,128.447 113.341 C 125.231 113.286,121.728 113.420,120.663 113.637 M133.991 115.858 C 136.220 116.304,136.797 117.822,136.799 123.251 C 136.801 131.110,136.239 131.600,127.221 131.600 C 123.161 131.600,122.161 131.727,120.904 132.400 C 120.084 132.840,119.216 133.200,118.976 133.200 C 118.736 133.200,118.103 133.664,117.570 134.232 L 116.600 135.264 116.600 171.532 C 116.600 212.802,116.288 209.298,120.143 211.317 C 122.064 212.322,122.563 212.400,127.091 212.400 C 133.708 212.400,133.596 212.277,133.610 219.575 C 133.619 223.838,133.769 225.326,134.310 226.522 L 135.000 228.044 142.000 220.999 C 145.850 217.123,149.540 213.648,150.200 213.276 C 151.299 212.657,154.912 212.583,193.200 212.400 L 235.000 212.200 236.842 210.911 C 239.834 208.817,240.400 207.035,240.400 199.707 C 240.400 194.242,241.403 192.593,243.391 194.790 C 243.784 195.224,244.487 195.700,244.953 195.847 C 245.829 196.123,254.400 204.567,254.400 205.153 C 254.400 205.335,254.871 205.992,255.447 206.613 C 256.708 207.974,256.597 210.915,255.218 212.667 C 254.770 213.238,254.226 214.356,254.011 215.152 C 253.795 215.948,252.902 217.500,252.026 218.600 C 251.150 219.700,250.033 221.119,249.543 221.753 C 249.053 222.387,247.830 223.289,246.826 223.759 C 245.822 224.228,244.531 225.086,243.959 225.665 C 241.509 228.144,237.025 228.393,194.900 228.397 C 174.605 228.399,157.999 228.535,157.997 228.700 C 157.996 228.865,157.321 229.450,156.497 230.000 C 155.674 230.550,151.713 234.330,147.696 238.400 C 143.678 242.470,140.231 245.953,140.036 246.140 C 139.840 246.327,138.960 247.200,138.080 248.080 C 137.200 248.960,136.270 249.887,136.013 250.140 C 128.526 257.511,125.888 258.299,121.300 254.539 C 120.290 253.712,119.081 252.149,118.387 250.774 L 117.200 248.423 117.177 239.711 C 117.145 227.791,117.198 228.009,114.114 226.951 C 112.706 226.468,111.102 225.563,110.390 224.851 C 109.702 224.163,108.980 223.600,108.787 223.600 C 106.461 223.600,100.833 214.161,100.037 208.923 C 99.349 204.391,99.464 136.076,100.165 133.200 C 100.846 130.404,103.751 124.964,105.398 123.400 C 106.093 122.740,106.827 121.930,107.031 121.600 C 107.463 120.898,109.801 119.200,110.335 119.200 C 110.537 119.200,110.936 118.918,111.222 118.574 C 113.132 116.272,127.495 114.559,133.991 115.858 M222.125 146.414 C 218.903 147.415,217.947 153.786,220.661 156.173 C 223.017 158.245,232.350 157.467,233.164 155.131 C 233.979 152.792,233.721 148.585,232.687 147.384 C 231.665 146.195,224.846 145.569,222.125 146.414 M232.200 151.800 L 232.200 155.800 227.056 155.912 C 220.708 156.051,220.800 156.111,220.800 151.831 C 220.800 147.476,220.683 147.555,226.991 147.689 L 232.200 147.800 232.200 151.800 M208.600 295.961 C 204.786 296.278,203.476 296.737,202.804 297.992 C 202.572 298.427,201.760 298.884,200.951 299.036 C 200.097 299.196,199.083 299.788,198.456 300.495 C 197.875 301.149,196.530 302.125,195.467 302.665 C 193.870 303.476,193.364 304.018,192.555 305.785 C 192.017 306.961,191.139 308.210,190.604 308.561 C 190.021 308.943,189.451 309.879,189.181 310.899 C 188.933 311.835,188.227 313.065,187.612 313.634 C 185.133 315.929,185.135 336.769,187.615 339.014 C 188.029 339.388,188.660 340.576,189.018 341.655 C 189.477 343.038,190.003 343.788,190.801 344.201 C 191.528 344.577,192.031 345.231,192.207 346.030 C 192.387 346.851,192.931 347.540,193.807 348.057 C 194.537 348.488,195.413 349.266,195.754 349.785 C 196.094 350.305,196.919 350.850,197.586 350.997 C 198.253 351.143,199.024 351.578,199.300 351.964 C 200.435 353.552,201.861 354.030,206.616 354.418 C 209.203 354.629,211.536 354.981,211.800 355.200 C 212.731 355.972,215.841 356.136,217.056 355.476 C 217.701 355.127,220.163 354.674,222.698 354.440 C 229.388 353.820,230.633 352.906,231.064 348.297 C 231.647 342.055,230.342 341.463,220.350 343.440 C 216.013 344.298,214.910 344.396,214.047 344.002 C 213.137 343.586,210.685 343.010,206.172 342.152 C 205.286 341.984,204.821 341.590,204.498 340.734 C 204.230 340.025,203.590 339.376,202.904 339.117 C 201.934 338.751,201.643 338.276,201.021 336.042 C 200.607 334.556,199.831 332.910,199.248 332.280 C 197.404 330.287,197.443 323.363,199.320 319.499 C 200.095 317.905,200.922 315.997,201.158 315.260 C 201.630 313.783,204.237 311.033,205.564 310.611 C 206.029 310.464,206.676 309.827,207.002 309.197 C 207.905 307.450,220.451 306.625,226.567 307.909 C 230.243 308.680,231.501 307.001,231.072 301.895 C 230.624 296.550,229.565 295.995,219.440 295.801 C 215.458 295.725,210.580 295.797,208.600 295.961 M133.229 297.054 C 131.948 298.682,131.921 352.321,133.200 353.600 C 134.997 355.397,161.416 354.539,163.069 352.631 C 163.564 352.060,164.747 351.423,165.816 351.154 C 166.875 350.887,168.218 350.169,168.897 349.505 C 169.559 348.858,170.892 347.989,171.859 347.575 C 172.826 347.160,173.719 346.501,173.845 346.111 C 174.335 344.581,174.958 343.600,175.439 343.600 C 176.197 343.600,177.545 341.692,178.012 339.955 C 178.240 339.107,178.777 338.226,179.204 337.998 C 180.527 337.290,180.864 336.087,181.213 330.831 C 181.398 328.037,181.594 325.582,181.649 325.376 C 181.757 324.964,181.315 317.983,180.942 314.241 C 180.744 312.243,180.479 311.631,179.212 310.241 C 178.390 309.338,177.593 308.086,177.440 307.458 C 177.255 306.693,176.775 306.170,175.982 305.871 C 175.332 305.625,174.800 305.218,174.800 304.966 C 174.800 304.148,173.162 302.400,172.396 302.400 C 171.986 302.400,171.054 301.777,170.325 301.015 C 169.406 300.054,168.388 299.489,167.000 299.168 C 164.862 298.674,164.655 298.585,163.109 297.488 C 161.585 296.408,156.613 296.006,144.729 296.003 L 134.058 296.000 133.229 297.054 M240.114 296.779 C 238.874 297.935,238.733 301.588,238.875 328.935 L 239.000 352.871 239.944 353.635 C 240.737 354.277,241.548 354.400,245.000 354.400 C 251.282 354.400,250.954 354.964,251.200 343.736 L 251.400 334.600 257.400 334.352 C 260.700 334.215,263.909 334.080,264.531 334.052 C 265.202 334.021,266.145 333.516,266.852 332.810 C 267.506 332.155,268.798 331.416,269.721 331.168 C 271.449 330.702,274.139 328.254,274.633 326.695 C 274.771 326.260,275.478 325.328,276.203 324.624 C 277.367 323.493,277.551 323.019,277.774 320.572 C 277.913 319.047,278.194 317.170,278.397 316.400 C 278.624 315.540,278.622 314.383,278.393 313.400 C 278.187 312.520,278.015 311.164,278.010 310.387 C 277.991 307.691,276.970 304.817,275.481 303.274 C 274.698 302.464,273.524 301.220,272.871 300.511 C 272.048 299.617,271.171 299.141,270.006 298.954 C 268.998 298.793,267.966 298.298,267.426 297.715 C 266.039 296.219,264.257 296.020,252.175 296.010 C 241.596 296.001,240.903 296.045,240.114 296.779 M226.638 297.450 C 228.839 298.543,229.718 299.973,229.922 302.792 C 230.254 307.380,229.144 307.848,222.000 306.131 C 216.030 304.696,207.942 306.353,204.299 309.759 C 203.473 310.530,202.550 311.305,202.248 311.481 C 201.946 311.656,201.001 313.130,200.149 314.755 C 199.297 316.381,198.334 318.181,198.009 318.755 C 197.562 319.546,197.416 321.259,197.409 325.800 C 197.399 332.304,197.281 331.835,200.381 337.600 C 201.613 339.892,204.754 342.553,207.400 343.547 C 208.720 344.043,210.416 344.752,211.170 345.124 C 213.365 346.207,220.193 346.041,222.107 344.858 C 224.479 343.391,228.416 342.933,229.297 344.020 C 231.535 346.784,229.170 352.131,225.242 353.189 C 218.966 354.879,202.684 354.078,201.411 352.017 C 201.264 351.779,200.301 351.158,199.272 350.636 C 198.242 350.114,197.040 349.289,196.601 348.802 C 196.161 348.316,195.292 347.655,194.669 347.332 C 194.047 347.010,193.284 346.141,192.975 345.401 C 192.665 344.660,192.222 343.937,191.990 343.794 C 191.758 343.650,191.161 342.873,190.663 342.066 C 185.244 333.278,185.297 319.001,190.780 310.647 C 191.341 309.792,192.401 308.113,193.136 306.915 C 194.002 305.504,195.130 304.334,196.336 303.595 C 197.361 302.968,198.656 302.037,199.214 301.527 C 201.292 299.628,206.823 297.214,210.000 296.821 C 215.079 296.192,224.849 296.561,226.638 297.450 M157.800 297.740 C 164.272 299.191,166.611 299.991,168.625 301.443 C 169.299 301.929,170.484 302.592,171.258 302.915 C 172.032 303.238,173.048 304.020,173.515 304.652 C 173.982 305.283,174.840 306.340,175.421 307.000 C 179.467 311.598,180.536 315.196,180.530 324.200 C 180.525 331.848,179.976 335.267,178.478 336.970 C 178.076 337.427,177.424 338.551,177.028 339.468 C 176.631 340.386,175.895 341.495,175.391 341.933 C 174.887 342.371,174.004 343.533,173.429 344.515 C 172.622 345.892,171.930 346.489,170.404 347.123 C 169.317 347.575,167.835 348.416,167.113 348.993 C 165.598 350.201,161.982 351.806,158.800 352.681 C 154.935 353.744,134.814 353.923,133.892 352.903 C 132.724 351.610,133.018 298.906,134.200 297.599 C 135.210 296.483,152.654 296.587,157.800 297.740 M261.402 297.226 C 265.852 297.845,271.715 300.736,273.515 303.200 C 274.238 304.190,275.264 305.488,275.794 306.084 C 278.283 308.884,277.987 321.208,275.370 323.750 C 274.616 324.482,274.000 325.309,274.000 325.588 C 274.000 326.431,270.547 329.468,268.303 330.599 C 267.147 331.182,265.719 331.919,265.131 332.236 C 263.803 332.954,259.207 333.571,255.074 333.588 C 250.088 333.607,250.400 332.968,250.400 343.185 L 250.400 351.942 249.346 352.771 C 247.762 354.017,241.866 353.989,240.526 352.730 L 239.600 351.861 239.600 327.185 C 239.600 302.277,239.764 298.966,241.065 297.528 C 241.847 296.664,255.864 296.455,261.402 297.226 M251.100 306.723 C 250.154 308.346,250.060 321.613,250.980 323.813 C 251.698 325.533,253.452 325.663,258.505 324.373 C 265.360 322.623,266.800 321.034,266.800 315.222 C 266.800 308.235,264.762 306.606,255.000 305.790 L 251.800 305.522 251.100 306.723 M144.246 306.986 C 143.274 308.470,143.271 341.563,144.243 343.992 C 145.000 345.882,145.846 346.013,150.600 344.975 C 152.140 344.639,154.816 344.106,156.547 343.792 C 158.278 343.478,160.284 342.901,161.004 342.510 C 163.379 341.222,166.356 338.768,166.626 337.876 C 166.772 337.394,167.209 336.640,167.596 336.200 C 170.660 332.718,171.043 316.760,168.121 314.334 C 167.802 314.070,167.187 313.159,166.754 312.311 C 166.321 311.462,165.545 310.607,165.028 310.411 C 164.512 310.214,163.484 309.532,162.744 308.894 C 160.918 307.319,160.622 307.239,154.213 306.587 C 146.014 305.753,145.028 305.792,144.246 306.986 M259.340 307.542 C 262.423 307.823,262.512 307.862,264.240 309.691 L 266.000 311.553 266.000 314.949 C 266.000 320.809,263.861 322.600,256.315 323.058 C 250.861 323.389,251.214 323.922,251.206 315.333 C 251.198 306.158,250.583 306.746,259.340 307.542 M159.074 308.025 C 159.693 308.258,160.740 308.964,161.400 309.594 C 162.060 310.224,163.205 310.892,163.944 311.080 C 165.075 311.368,165.407 311.733,166.029 313.374 C 166.437 314.447,167.210 315.792,167.748 316.363 C 169.751 318.487,169.693 331.194,167.670 333.535 C 167.092 334.203,166.333 335.605,165.984 336.648 C 165.473 338.175,165.102 338.629,164.084 338.973 C 163.388 339.208,162.297 339.972,161.659 340.671 C 159.910 342.586,145.766 344.339,144.769 342.764 C 144.360 342.118,144.261 308.272,144.667 307.867 C 145.108 307.426,157.856 307.565,159.074 308.025 " stroke="none" fill="#529ce0" fill-rule="evenodd"></path><path id="path2" d="M168.711 67.212 C 166.796 67.535,166.182 67.797,162.600 69.820 C 160.078 71.244,156.400 74.330,156.400 75.021 C 156.400 75.310,155.871 75.922,155.224 76.383 C 154.577 76.844,153.928 77.621,153.782 78.110 C 153.636 78.600,152.861 80.440,152.058 82.200 L 150.600 85.400 150.600 123.200 L 150.600 161.000 151.659 163.200 C 152.241 164.410,153.007 166.099,153.360 166.954 C 154.712 170.217,160.082 175.590,163.200 176.799 C 163.970 177.097,165.590 177.805,166.800 178.371 L 169.000 179.400 208.679 179.513 C 242.104 179.608,248.535 179.716,249.479 180.197 C 250.096 180.511,255.730 185.868,262.000 192.101 C 277.075 207.088,276.731 206.814,280.400 206.767 C 284.629 206.712,285.493 206.201,287.351 202.653 L 289.000 199.506 289.200 189.821 L 289.400 180.135 290.488 178.710 C 291.323 177.617,292.050 177.172,293.619 176.795 C 294.997 176.465,296.157 175.832,297.178 174.853 C 298.011 174.054,299.519 172.607,300.529 171.637 C 303.044 169.225,305.929 163.382,306.445 159.662 C 306.673 158.014,306.782 142.217,306.714 120.548 L 306.600 84.200 305.724 82.600 C 305.242 81.720,304.451 80.190,303.967 79.200 C 302.461 76.118,298.775 72.099,296.000 70.513 C 295.010 69.947,293.570 69.070,292.800 68.563 C 292.030 68.056,290.230 67.454,288.800 67.224 C 285.703 66.726,171.661 66.715,168.711 67.212 M290.600 68.779 C 291.480 69.317,292.290 69.882,292.400 70.034 C 292.510 70.186,293.308 70.506,294.174 70.744 C 295.040 70.982,296.210 71.630,296.774 72.185 C 297.338 72.739,298.306 73.689,298.924 74.296 C 301.710 77.030,302.473 78.031,302.866 79.465 C 303.097 80.309,303.852 81.810,304.543 82.800 L 305.800 84.600 305.800 122.400 L 305.800 160.200 304.887 161.668 C 304.385 162.476,303.549 164.366,303.029 165.868 C 302.068 168.649,299.586 171.780,297.130 173.312 C 296.542 173.679,295.951 174.325,295.817 174.747 C 295.659 175.244,295.047 175.613,294.086 175.790 C 288.418 176.833,287.600 178.638,287.600 190.111 C 287.600 202.802,286.142 205.979,280.311 205.994 C 277.557 206.001,279.058 207.266,263.637 191.944 C 257.296 185.644,251.596 180.154,250.972 179.744 C 249.889 179.035,248.004 178.991,210.818 178.800 L 171.800 178.600 167.000 177.052 C 163.473 175.915,161.996 175.239,161.431 174.503 C 161.008 173.952,160.066 173.252,159.338 172.948 C 158.486 172.592,157.726 171.830,157.206 170.811 C 156.761 169.940,156.044 169.038,155.613 168.807 C 155.126 168.546,154.515 167.365,154.004 165.693 C 153.550 164.212,152.869 162.370,152.490 161.600 C 151.854 160.310,151.792 157.305,151.694 123.503 L 151.588 86.805 152.546 84.503 C 153.073 83.236,153.795 81.186,154.150 79.947 C 154.599 78.380,155.032 77.633,155.574 77.491 C 156.002 77.379,156.678 76.598,157.076 75.755 C 157.474 74.911,158.250 73.999,158.800 73.726 C 159.350 73.454,160.101 72.861,160.470 72.408 C 160.838 71.956,161.853 71.334,162.724 71.027 C 163.596 70.719,165.094 69.969,166.054 69.359 C 168.759 67.642,167.226 67.681,229.800 67.742 L 289.000 67.800 290.600 68.779 M221.600 86.924 C 220.170 87.199,218.550 87.719,218.000 88.078 C 217.450 88.437,216.190 88.960,215.200 89.240 C 211.749 90.215,206.808 94.977,205.968 98.138 C 205.725 99.052,205.359 100.070,205.155 100.400 C 201.691 106.004,203.918 108.213,213.000 108.182 C 218.849 108.162,220.556 107.631,221.325 105.594 C 221.560 104.970,222.160 104.273,222.657 104.047 C 223.155 103.820,223.839 103.097,224.179 102.440 C 224.961 100.929,231.410 100.483,231.902 101.906 C 231.957 102.068,232.400 102.830,232.885 103.600 C 235.802 108.233,234.767 114.278,230.441 117.876 C 229.433 118.714,227.887 120.095,227.005 120.943 C 226.122 121.792,224.991 122.644,224.490 122.837 C 223.990 123.030,223.230 123.775,222.802 124.494 C 222.375 125.212,221.494 126.152,220.845 126.581 C 220.030 127.121,219.477 127.986,219.056 129.381 C 218.721 130.492,218.131 132.230,217.746 133.244 C 216.279 137.111,219.821 139.604,226.764 139.591 L 231.800 139.581 234.083 137.491 C 235.897 135.829,236.472 134.998,236.881 133.445 C 237.444 131.305,240.142 128.318,242.523 127.200 C 243.225 126.869,243.976 126.198,244.192 125.707 C 244.407 125.216,245.083 124.640,245.693 124.427 C 246.304 124.215,247.171 123.416,247.622 122.653 C 248.072 121.890,248.847 120.999,249.345 120.673 C 249.842 120.347,250.482 119.297,250.766 118.340 C 251.050 117.383,251.759 115.610,252.341 114.400 C 253.790 111.390,253.900 105.045,252.543 102.750 C 252.071 101.952,251.392 100.288,251.032 99.052 C 250.595 97.547,250.045 96.586,249.369 96.143 C 248.814 95.779,248.090 94.960,247.760 94.323 C 247.431 93.686,246.675 92.959,246.081 92.708 C 245.486 92.456,244.410 91.704,243.689 91.036 C 242.968 90.368,241.258 89.432,239.889 88.957 C 238.520 88.482,236.590 87.784,235.600 87.406 C 233.249 86.510,225.187 86.232,221.600 86.924 M234.656 88.611 C 239.758 89.919,241.404 90.580,243.152 92.021 C 243.939 92.670,244.784 93.200,245.031 93.200 C 246.536 93.200,249.963 98.479,251.133 102.600 C 252.649 107.940,252.630 108.903,250.890 114.902 C 249.649 119.179,245.268 124.463,240.728 127.157 C 238.738 128.338,237.035 130.353,235.774 133.018 C 235.198 134.236,234.085 135.856,233.302 136.617 L 231.877 138.000 226.830 138.000 L 221.782 138.000 220.265 136.749 C 218.841 135.575,218.762 135.396,218.995 133.849 C 219.410 131.095,220.856 127.582,221.840 126.937 C 222.346 126.606,223.123 125.719,223.566 124.967 C 224.010 124.215,224.624 123.600,224.931 123.600 C 225.237 123.600,226.134 123.015,226.924 122.300 C 227.713 121.585,229.428 120.058,230.733 118.906 C 232.164 117.643,233.461 116.055,233.999 114.906 C 234.491 113.858,235.082 112.881,235.314 112.735 C 236.814 111.790,236.194 105.782,234.383 103.720 C 233.732 102.978,233.200 102.203,233.200 101.996 C 233.200 101.123,230.757 100.400,227.804 100.400 L 224.769 100.400 222.884 102.390 C 221.848 103.484,220.440 105.014,219.757 105.790 L 218.513 107.200 213.149 107.200 C 207.219 107.200,204.250 106.191,205.150 104.482 C 205.348 104.107,205.820 102.399,206.198 100.686 C 208.298 91.188,222.011 85.369,234.656 88.611 M119.600 116.267 C 112.021 117.159,106.853 120.869,102.697 128.400 L 100.600 132.200 100.600 171.800 L 100.600 211.400 101.468 212.800 C 101.946 213.570,102.713 215.157,103.173 216.327 C 103.989 218.401,108.570 223.600,109.581 223.600 C 109.816 223.600,110.574 224.141,111.266 224.803 C 111.958 225.464,113.261 226.213,114.162 226.467 C 117.442 227.392,117.371 227.146,117.626 238.510 C 117.906 250.988,118.222 251.927,123.286 255.312 C 125.132 256.546,128.018 256.414,129.600 255.024 C 130.150 254.541,131.077 253.851,131.660 253.490 C 132.243 253.129,133.773 251.731,135.060 250.382 C 136.347 249.033,137.922 247.451,138.560 246.865 C 139.198 246.279,139.918 245.577,140.160 245.303 C 142.979 242.124,155.112 230.244,156.709 229.100 L 158.802 227.600 197.101 227.598 C 239.881 227.597,241.382 227.522,243.760 225.263 C 244.442 224.615,245.945 223.612,247.100 223.035 C 248.255 222.458,249.200 221.846,249.200 221.675 C 249.200 221.334,249.988 220.241,251.720 218.181 C 252.336 217.448,253.276 215.738,253.808 214.380 C 254.340 213.023,254.945 211.707,255.152 211.456 C 256.132 210.269,256.075 208.212,255.027 206.994 C 254.463 206.337,254.001 205.635,254.000 205.434 C 254.000 204.959,245.395 196.400,244.918 196.400 C 244.719 196.400,243.945 195.950,243.199 195.399 C 241.256 193.966,241.095 194.372,240.767 201.548 C 240.432 208.850,240.284 209.238,237.002 211.416 L 234.917 212.800 193.685 212.800 C 165.469 212.800,152.097 212.935,151.326 213.226 C 150.707 213.461,146.751 217.083,142.536 221.277 L 134.873 228.901 134.143 227.550 C 133.552 226.457,133.386 225.059,133.271 220.200 C 133.088 212.440,133.397 212.800,126.925 212.800 C 119.509 212.800,117.056 211.317,116.063 206.233 C 115.436 203.028,115.412 141.998,116.035 137.877 C 116.829 132.631,119.108 131.200,126.671 131.200 C 135.716 131.200,136.061 130.899,135.911 123.161 L 135.800 117.410 134.600 116.805 C 133.420 116.210,123.195 115.843,119.600 116.267 M133.620 117.810 L 134.800 118.421 134.800 123.400 L 134.800 128.379 133.620 128.990 C 132.741 129.444,131.124 129.600,127.291 129.600 C 123.177 129.600,121.867 129.741,120.771 130.300 C 118.048 131.690,116.413 133.023,115.987 134.200 C 115.748 134.860,115.203 136.066,114.776 136.879 C 113.564 139.189,113.564 204.411,114.776 206.721 C 115.203 207.534,115.757 208.766,116.007 209.458 C 117.158 212.640,120.443 214.000,126.980 214.000 C 133.153 214.000,132.800 213.582,132.800 220.893 C 132.800 224.958,132.969 227.231,133.338 228.113 C 134.527 230.956,134.401 231.032,143.221 222.188 L 151.389 214.000 192.394 213.996 C 236.040 213.991,235.855 213.997,237.410 212.555 C 237.969 212.038,238.795 211.417,239.247 211.175 C 240.705 210.395,241.304 208.151,241.512 202.700 L 241.706 197.600 243.649 197.600 C 245.424 197.600,245.671 197.720,246.496 198.981 C 246.993 199.740,247.789 200.539,248.265 200.756 C 248.741 200.973,249.236 201.477,249.365 201.876 C 249.493 202.274,250.214 203.018,250.967 203.529 C 251.756 204.066,252.766 205.341,253.356 206.546 L 254.377 208.633 253.592 211.217 C 253.160 212.637,252.805 214.109,252.803 214.487 C 252.801 214.864,252.035 216.040,251.100 217.099 C 250.165 218.159,248.950 219.695,248.400 220.513 C 247.751 221.479,246.797 222.233,245.681 222.662 C 244.735 223.026,243.558 223.839,243.065 224.469 C 241.598 226.343,240.392 226.395,198.080 226.398 C 156.990 226.400,156.400 226.423,156.400 228.031 C 156.400 228.256,155.774 228.702,155.010 229.022 C 154.218 229.352,153.346 230.131,152.985 230.830 C 152.636 231.504,151.732 232.421,150.975 232.868 C 150.219 233.314,149.600 233.838,149.600 234.032 C 149.600 234.226,148.411 235.540,146.958 236.951 C 145.505 238.362,144.137 239.697,143.918 239.918 C 143.699 240.139,142.800 241.040,141.920 241.920 C 141.040 242.800,140.113 243.730,139.860 243.987 C 136.709 247.188,136.000 247.996,136.000 248.385 C 136.000 248.636,135.469 249.027,134.819 249.253 C 134.116 249.499,133.428 250.147,133.119 250.858 C 132.732 251.748,131.891 252.386,129.800 253.374 C 125.690 255.318,125.271 255.402,124.266 254.490 C 123.790 254.057,122.864 253.455,122.209 253.151 C 121.473 252.809,120.883 252.141,120.662 251.399 C 120.466 250.740,120.104 249.840,119.858 249.400 C 119.582 248.907,119.330 244.998,119.201 239.200 C 118.951 228.001,118.682 227.022,115.576 226.000 C 114.573 225.670,113.225 224.905,112.580 224.300 C 111.936 223.695,110.669 222.894,109.767 222.521 C 108.696 222.078,107.945 221.435,107.607 220.670 C 107.321 220.026,106.585 219.210,105.970 218.857 C 105.137 218.379,104.633 217.550,103.996 215.608 C 103.526 214.173,102.805 212.456,102.394 211.792 C 100.983 209.506,100.800 204.899,100.807 171.810 C 100.815 137.109,100.970 133.552,102.581 131.228 C 103.141 130.419,103.600 129.533,103.600 129.259 C 103.600 128.368,104.771 126.466,106.398 124.714 C 107.274 123.771,107.992 122.773,107.995 122.495 C 107.998 122.217,108.962 121.564,110.138 121.044 C 111.314 120.524,112.747 119.591,113.323 118.969 C 114.955 117.210,130.718 116.310,133.620 117.810 M222.200 143.849 C 221.760 143.953,220.431 145.002,219.247 146.181 L 217.095 148.325 217.095 151.650 L 217.095 154.975 218.973 156.676 C 222.704 160.054,232.243 160.051,234.075 156.671 C 236.251 152.658,234.879 145.738,231.600 144.185 C 230.887 143.848,223.350 143.578,222.200 143.849 M229.800 145.593 C 233.336 146.164,233.995 147.128,233.998 151.731 C 234.001 157.079,233.362 157.600,226.792 157.600 C 219.699 157.600,218.654 156.790,218.690 151.318 C 218.709 148.230,218.711 148.225,220.252 146.932 C 222.184 145.310,225.326 144.869,229.800 145.593 M210.614 297.219 C 206.208 297.909,204.202 298.817,197.854 303.000 C 195.364 304.641,194.602 305.404,193.614 307.247 C 192.952 308.483,192.118 309.736,191.761 310.032 C 185.763 315.010,185.898 335.674,191.976 343.041 C 192.539 343.723,193.308 344.852,193.685 345.548 C 194.062 346.244,194.692 346.932,195.085 347.077 C 195.478 347.222,196.590 348.029,197.556 348.871 C 198.522 349.712,199.455 350.400,199.630 350.400 C 199.804 350.400,200.845 350.958,201.943 351.641 C 207.966 355.385,226.188 354.190,228.818 349.878 C 231.606 345.306,227.360 341.899,222.937 345.159 C 222.068 345.800,220.949 346.058,218.194 346.252 C 208.864 346.910,201.250 342.228,197.624 333.600 C 196.611 331.189,196.757 319.203,197.818 317.733 C 198.268 317.110,199.150 315.569,199.779 314.309 C 201.725 310.407,205.560 307.433,210.339 306.119 C 217.488 304.153,218.594 304.111,222.515 305.649 C 224.865 306.571,228.492 306.653,229.201 305.799 C 230.736 303.949,228.951 299.197,226.210 297.836 C 224.415 296.945,214.796 296.565,210.614 297.219 M134.957 297.567 C 133.637 298.138,133.600 298.920,133.600 326.221 C 133.600 349.702,133.658 352.001,134.267 352.610 C 135.198 353.541,154.016 353.261,157.889 352.259 C 161.745 351.261,165.864 349.541,167.268 348.342 C 167.969 347.744,169.299 346.965,170.224 346.612 C 171.561 346.102,172.206 345.483,173.377 343.585 C 174.187 342.273,175.015 341.200,175.218 341.200 C 175.421 341.200,176.061 340.264,176.641 339.120 C 177.221 337.975,178.020 336.580,178.417 336.020 C 182.357 330.454,180.064 312.043,174.803 307.003 C 174.141 306.369,173.600 305.642,173.600 305.387 C 173.600 304.734,172.441 303.825,170.800 303.190 C 170.030 302.893,168.860 302.246,168.200 301.754 C 164.075 298.675,139.537 295.585,134.957 297.567 M241.376 297.768 C 240.623 298.318,240.597 299.135,240.489 325.128 C 240.360 356.238,239.872 353.200,245.000 353.200 C 249.824 353.200,249.600 353.675,249.600 343.441 C 249.600 333.027,249.513 333.205,254.626 333.192 C 263.144 333.171,273.600 328.764,273.600 325.196 C 273.600 324.963,274.216 324.157,274.969 323.404 C 276.631 321.742,277.042 319.542,276.898 313.076 C 276.787 308.049,276.420 307.198,272.411 302.654 C 270.896 300.937,265.317 298.494,261.317 297.797 C 256.613 296.976,242.487 296.956,241.376 297.768 M223.523 298.017 C 226.232 298.642,228.400 301.152,228.400 303.665 L 228.400 305.600 226.722 305.600 C 225.542 305.600,224.571 305.273,223.456 304.500 C 221.068 302.846,214.014 302.844,211.000 304.497 C 209.900 305.100,208.238 305.781,207.307 306.010 C 204.883 306.607,200.226 310.712,198.965 313.364 C 198.432 314.484,197.617 315.992,197.152 316.716 C 195.129 319.868,195.716 334.060,197.977 336.635 C 198.650 337.401,199.200 338.304,199.200 338.641 C 199.200 339.522,203.844 344.000,204.757 344.000 C 205.179 344.000,206.263 344.617,207.166 345.372 C 209.154 347.033,210.950 347.330,217.815 347.135 C 222.458 347.002,223.433 346.781,226.495 345.166 C 229.187 343.746,229.303 347.476,226.649 350.130 C 224.361 352.418,222.735 352.801,215.323 352.797 C 208.379 352.793,204.543 352.273,203.374 351.175 C 202.920 350.749,202.335 350.400,202.074 350.400 C 201.813 350.400,201.600 350.234,201.600 350.031 C 201.600 349.828,200.925 349.446,200.100 349.182 C 199.275 348.917,198.138 348.228,197.574 347.651 C 197.010 347.073,195.975 346.293,195.274 345.919 C 194.510 345.510,194.000 344.925,194.000 344.456 C 194.000 344.027,193.398 342.955,192.662 342.075 C 191.926 341.194,191.100 339.602,190.825 338.537 C 190.551 337.471,190.180 336.240,190.002 335.800 C 187.509 329.641,187.263 325.344,189.097 320.000 C 189.739 318.130,190.501 315.467,190.791 314.083 C 191.138 312.422,191.568 311.431,192.057 311.170 C 192.464 310.952,193.165 310.052,193.615 309.170 C 194.612 307.217,197.091 304.677,198.879 303.778 C 199.605 303.413,200.494 302.742,200.853 302.288 C 201.531 301.433,207.359 299.130,211.200 298.200 C 213.820 297.565,221.097 297.457,223.523 298.017 M150.200 298.413 C 151.300 298.608,154.000 299.136,156.200 299.587 C 158.400 300.037,161.493 300.599,163.074 300.835 C 165.359 301.176,166.196 301.501,167.161 302.423 C 167.828 303.060,169.210 303.792,170.232 304.050 C 171.765 304.436,172.187 304.750,172.646 305.847 C 172.951 306.579,173.741 307.576,174.401 308.064 C 175.060 308.551,175.600 309.114,175.600 309.315 C 175.600 309.898,177.090 313.232,178.320 315.400 C 178.894 316.413,179.000 317.782,179.000 324.200 L 179.000 331.800 177.259 335.591 C 176.302 337.676,175.196 339.608,174.801 339.884 C 174.407 340.161,173.583 341.242,172.970 342.287 C 171.486 344.819,170.886 345.395,169.052 346.046 C 168.200 346.348,167.030 347.069,166.452 347.648 C 165.752 348.348,164.328 348.990,162.200 349.564 C 160.440 350.038,157.888 350.780,156.529 351.212 C 151.966 352.662,136.685 353.365,134.817 352.211 C 134.363 351.930,134.209 302.611,134.653 299.921 C 134.876 298.572,135.025 298.429,136.349 298.288 C 139.215 297.984,148.240 298.066,150.200 298.413 M263.000 299.583 C 265.640 300.290,268.272 301.046,268.849 301.262 C 270.087 301.726,273.200 304.705,273.200 305.427 C 273.200 305.703,273.773 306.411,274.473 307.000 C 275.948 308.241,276.534 312.558,275.947 317.848 C 275.779 319.362,275.632 320.903,275.621 321.273 C 275.609 321.643,275.222 322.066,274.760 322.213 C 274.288 322.363,273.588 323.229,273.162 324.192 C 272.746 325.134,271.999 326.174,271.502 326.504 C 271.006 326.833,270.096 327.575,269.479 328.151 C 268.863 328.728,268.080 329.200,267.740 329.200 C 267.399 329.200,266.554 329.443,265.860 329.740 C 261.111 331.776,259.847 332.094,255.687 332.297 C 252.168 332.469,249.775 332.984,249.119 333.710 C 249.074 333.760,248.939 337.940,248.819 343.000 L 248.600 352.200 246.800 352.400 C 245.810 352.510,244.190 352.510,243.200 352.400 L 241.400 352.200 241.282 327.400 C 241.142 297.997,241.109 298.511,243.126 298.266 C 248.256 297.642,258.221 298.302,263.000 299.583 M144.489 303.841 C 142.384 304.801,142.208 306.286,142.083 324.120 C 141.925 346.822,142.016 347.200,147.646 347.200 C 151.469 347.200,155.945 346.478,157.428 345.621 C 158.103 345.231,159.633 344.601,160.828 344.222 C 162.057 343.831,163.434 343.047,164.000 342.417 C 164.550 341.804,165.379 341.185,165.843 341.042 C 166.307 340.899,167.003 340.080,167.390 339.223 C 167.776 338.365,168.528 337.285,169.060 336.823 C 172.188 334.103,172.354 315.838,169.274 313.220 C 168.614 312.659,167.794 311.637,167.452 310.948 C 167.109 310.260,166.238 309.320,165.515 308.861 C 164.792 308.401,163.750 307.658,163.200 307.210 C 162.567 306.693,160.890 306.166,158.631 305.771 C 156.667 305.429,154.526 304.872,153.871 304.533 C 152.663 303.908,145.500 303.380,144.489 303.841 M250.504 304.309 C 248.898 305.703,247.971 322.293,249.336 325.221 C 250.483 327.684,260.380 327.700,261.986 325.241 C 262.104 325.061,263.040 324.545,264.066 324.094 C 269.685 321.627,269.976 308.690,264.466 306.323 C 263.440 305.883,261.710 305.090,260.621 304.561 C 258.032 303.303,251.842 303.149,250.504 304.309 M258.758 305.612 C 265.832 307.156,267.271 308.732,267.300 314.966 C 267.325 320.513,265.680 322.831,260.600 324.408 C 259.720 324.681,258.784 325.075,258.520 325.284 C 258.256 325.493,256.546 325.695,254.720 325.732 L 251.400 325.800 250.516 324.000 C 249.709 322.356,249.632 321.592,249.616 315.180 C 249.591 304.491,250.287 303.763,258.758 305.612 M155.511 306.202 C 161.232 306.958,164.953 308.734,166.687 311.536 C 167.049 312.121,167.737 313.050,168.215 313.600 C 170.541 316.275,171.506 327.736,169.826 332.742 C 169.148 334.764,165.889 340.043,165.139 340.334 C 164.949 340.408,164.085 341.061,163.219 341.784 C 162.017 342.788,160.765 343.308,157.922 343.981 C 155.875 344.467,153.790 345.062,153.288 345.306 C 152.787 345.549,150.627 345.759,148.488 345.774 L 144.600 345.800 143.901 344.400 C 142.843 342.283,142.830 308.550,143.886 306.762 C 144.721 305.349,147.895 305.196,155.511 306.202 " stroke="none" fill="#88bcec" fill-rule="evenodd"></path><path id="path3" d="M168.201 66.847 C 166.882 67.039,165.352 67.523,164.801 67.923 C 164.250 68.323,162.810 69.216,161.600 69.909 C 155.889 73.177,151.173 80.184,150.366 86.600 C 150.115 88.600,150.008 103.230,150.082 125.600 L 150.200 161.400 151.338 163.756 C 151.964 165.052,152.797 166.852,153.189 167.756 C 153.815 169.203,155.505 171.343,157.487 173.200 C 165.185 180.411,165.097 180.400,212.780 180.400 C 246.185 180.400,249.099 180.453,250.011 181.078 C 250.555 181.450,256.368 187.135,262.929 193.710 C 276.992 207.804,278.053 208.458,284.094 206.781 C 285.619 206.357,285.879 206.088,288.118 202.607 L 289.400 200.615 289.603 191.007 C 289.855 179.060,290.061 178.347,293.544 177.353 C 295.133 176.899,296.248 176.249,297.315 175.154 C 298.148 174.299,298.992 173.600,299.190 173.600 C 299.928 173.600,302.487 170.519,303.674 168.200 C 304.350 166.880,305.069 165.694,305.271 165.564 C 306.922 164.507,306.980 163.109,307.009 124.000 L 307.037 86.600 306.819 123.800 C 306.698 144.260,306.443 161.360,306.252 161.800 C 304.155 166.622,302.132 170.099,300.529 171.637 C 299.519 172.607,298.011 174.054,297.178 174.853 C 296.157 175.832,294.997 176.465,293.619 176.795 C 292.050 177.172,291.323 177.617,290.488 178.710 L 289.400 180.135 289.200 189.821 L 289.000 199.506 287.351 202.653 C 285.493 206.201,284.629 206.712,280.400 206.767 C 276.731 206.814,277.075 207.088,262.000 192.101 C 255.730 185.868,250.096 180.511,249.479 180.197 C 248.535 179.716,242.104 179.608,208.679 179.513 L 169.000 179.400 166.800 178.371 C 165.590 177.805,163.970 177.097,163.200 176.799 C 160.082 175.590,154.712 170.217,153.360 166.954 C 153.007 166.099,152.241 164.410,151.659 163.200 L 150.600 161.000 150.600 123.200 L 150.600 85.400 152.058 82.200 C 152.861 80.440,153.636 78.600,153.782 78.110 C 153.928 77.621,154.577 76.844,155.224 76.383 C 155.871 75.922,156.400 75.303,156.400 75.007 C 156.400 74.302,160.537 70.922,163.257 69.405 C 167.931 66.797,162.526 67.011,227.000 66.888 C 288.912 66.770,290.138 66.801,292.800 68.560 C 293.570 69.068,295.010 69.947,296.000 70.513 C 298.509 71.947,303.600 77.344,303.600 78.569 C 303.600 78.841,304.154 79.900,304.832 80.923 C 305.509 81.946,306.223 83.641,306.418 84.691 L 306.772 86.600 306.610 84.251 C 306.499 82.651,306.199 81.631,305.668 81.051 C 305.239 80.583,304.395 79.210,303.792 78.000 C 302.500 75.407,298.036 70.901,295.528 69.657 C 294.578 69.186,293.333 68.426,292.763 67.969 C 292.096 67.435,290.741 67.011,288.963 66.782 C 285.403 66.324,171.376 66.385,168.201 66.847 M222.200 88.239 C 212.628 90.521,207.576 94.451,206.198 100.686 C 205.820 102.399,205.348 104.107,205.150 104.482 C 204.250 106.191,207.219 107.200,213.149 107.200 L 218.513 107.200 219.757 105.790 C 220.440 105.014,221.848 103.484,222.884 102.390 L 224.769 100.400 227.804 100.400 C 230.757 100.400,233.200 101.123,233.200 101.996 C 233.200 102.203,233.732 102.978,234.383 103.720 C 236.194 105.782,236.814 111.790,235.314 112.735 C 235.082 112.881,234.491 113.858,233.999 114.906 C 233.461 116.055,232.164 117.643,230.733 118.906 C 229.428 120.058,227.713 121.585,226.924 122.300 C 226.134 123.015,225.237 123.600,224.931 123.600 C 224.624 123.600,224.010 124.215,223.566 124.967 C 223.123 125.719,222.346 126.606,221.840 126.937 C 220.856 127.582,219.410 131.095,218.995 133.849 C 218.762 135.396,218.841 135.575,220.265 136.749 L 221.782 138.000 226.830 138.000 L 231.877 138.000 233.302 136.617 C 234.085 135.856,235.198 134.236,235.774 133.018 C 237.035 130.353,238.738 128.338,240.728 127.157 C 245.268 124.463,249.649 119.179,250.890 114.902 C 252.630 108.903,252.649 107.940,251.133 102.600 C 249.963 98.479,246.536 93.200,245.031 93.200 C 244.784 93.200,243.939 92.670,243.152 92.021 C 239.061 88.649,228.486 86.740,222.200 88.239 M232.334 88.648 C 237.523 89.909,241.562 91.220,242.187 91.844 C 242.535 92.192,243.580 92.878,244.510 93.369 C 245.439 93.860,246.402 94.664,246.650 95.156 C 246.897 95.648,247.566 96.539,248.137 97.134 C 252.331 101.512,252.253 115.006,248.007 119.800 C 247.422 120.460,246.638 121.495,246.263 122.100 C 245.888 122.705,245.329 123.200,245.020 123.200 C 244.711 123.200,243.945 123.822,243.318 124.583 C 242.691 125.344,241.553 126.230,240.789 126.552 C 239.099 127.265,237.208 129.208,235.943 131.534 C 232.692 137.514,233.205 137.200,226.681 137.200 C 219.466 137.200,218.666 136.413,220.242 130.862 C 220.992 128.220,223.283 125.510,227.400 122.400 C 231.020 119.665,233.330 117.378,234.070 115.800 C 234.483 114.920,235.212 113.704,235.690 113.097 C 236.425 112.165,236.560 111.479,236.560 108.662 L 236.560 105.328 234.419 102.896 C 230.398 98.328,225.421 98.390,221.600 103.056 C 218.339 107.038,218.871 106.800,213.225 106.799 C 209.015 106.797,208.000 106.675,206.969 106.046 L 205.737 105.295 206.483 101.604 C 207.581 96.168,211.606 91.902,217.200 90.244 C 224.917 87.957,228.108 87.621,232.334 88.648 M116.947 116.209 C 113.952 116.757,112.092 117.525,111.222 118.574 C 110.936 118.918,110.537 119.200,110.335 119.200 C 109.801 119.200,107.463 120.898,107.031 121.600 C 106.827 121.930,106.093 122.740,105.398 123.400 C 103.751 124.964,100.846 130.404,100.165 133.200 C 99.464 136.076,99.349 204.391,100.037 208.923 C 100.833 214.161,106.461 223.600,108.787 223.600 C 108.980 223.600,109.702 224.163,110.390 224.851 C 111.102 225.563,112.706 226.468,114.114 226.951 C 117.198 228.009,117.145 227.791,117.177 239.711 L 117.200 248.423 118.387 250.774 C 120.399 254.760,123.913 257.081,127.194 256.591 C 128.994 256.322,130.040 255.626,133.793 252.200 C 135.698 250.461,135.730 250.430,138.080 248.080 C 138.960 247.200,139.840 246.327,140.036 246.140 C 140.231 245.953,143.678 242.470,147.696 238.400 C 151.713 234.330,155.674 230.550,156.497 230.000 C 157.321 229.450,157.996 228.865,157.997 228.700 C 157.999 228.535,174.605 228.399,194.900 228.397 C 237.025 228.393,241.509 228.144,243.959 225.665 C 244.531 225.086,245.822 224.228,246.826 223.759 C 247.830 223.289,249.053 222.387,249.543 221.753 C 250.033 221.119,251.150 219.700,252.026 218.600 C 252.902 217.500,253.795 215.948,254.011 215.152 C 254.226 214.356,254.770 213.238,255.218 212.667 C 256.597 210.915,256.708 207.974,255.447 206.613 C 254.871 205.992,254.400 205.335,254.400 205.153 C 254.400 204.567,245.829 196.123,244.953 195.847 C 244.487 195.700,243.784 195.224,243.391 194.790 C 241.403 192.593,240.400 194.242,240.400 199.707 C 240.400 207.035,239.834 208.817,236.842 210.911 L 235.000 212.200 193.200 212.400 C 154.912 212.583,151.299 212.657,150.200 213.276 C 149.540 213.648,145.850 217.123,142.000 220.999 L 135.000 228.044 134.310 226.522 C 133.769 225.326,133.619 223.838,133.610 219.575 C 133.596 212.277,133.708 212.400,127.091 212.400 C 122.563 212.400,122.064 212.322,120.143 211.317 C 116.288 209.298,116.600 212.802,116.600 171.532 L 116.600 135.264 117.570 134.232 C 118.103 133.664,118.736 133.200,118.976 133.200 C 119.216 133.200,120.084 132.840,120.904 132.400 C 122.161 131.727,123.161 131.600,127.221 131.600 C 136.239 131.600,136.801 131.110,136.799 123.251 C 136.797 117.822,136.220 116.304,133.991 115.858 C 131.782 115.416,119.946 115.660,116.947 116.209 M134.600 116.805 L 135.800 117.410 135.911 123.161 C 136.061 130.899,135.716 131.200,126.671 131.200 C 119.108 131.200,116.829 132.631,116.035 137.877 C 115.412 141.998,115.436 203.028,116.063 206.233 C 117.056 211.317,119.509 212.800,126.925 212.800 C 133.397 212.800,133.088 212.440,133.271 220.200 C 133.386 225.059,133.552 226.457,134.143 227.550 L 134.873 228.901 142.536 221.277 C 146.751 217.083,150.707 213.461,151.326 213.226 C 152.097 212.935,165.469 212.800,193.685 212.800 L 234.917 212.800 237.002 211.416 C 240.284 209.238,240.432 208.850,240.767 201.548 C 241.095 194.372,241.256 193.966,243.199 195.399 C 243.945 195.950,244.719 196.400,244.918 196.400 C 245.395 196.400,254.000 204.959,254.000 205.434 C 254.001 205.635,254.463 206.337,255.027 206.994 C 256.075 208.212,256.132 210.269,255.152 211.456 C 254.945 211.707,254.340 213.023,253.808 214.380 C 253.276 215.738,252.336 217.448,251.720 218.181 C 249.988 220.241,249.200 221.334,249.200 221.675 C 249.200 221.846,248.255 222.458,247.100 223.035 C 245.945 223.612,244.442 224.615,243.760 225.263 C 241.382 227.522,239.881 227.597,197.101 227.598 L 158.802 227.600 156.709 229.100 C 155.112 230.244,142.979 242.124,140.160 245.303 C 139.918 245.577,139.198 246.279,138.560 246.865 C 137.922 247.451,136.347 249.033,135.060 250.382 C 133.773 251.731,132.243 253.129,131.660 253.490 C 131.077 253.851,130.150 254.541,129.600 255.024 C 128.018 256.414,125.132 256.546,123.286 255.312 C 118.222 251.927,117.906 250.988,117.626 238.510 C 117.371 227.146,117.442 227.392,114.162 226.467 C 113.261 226.213,111.958 225.464,111.266 224.803 C 110.574 224.141,109.816 223.600,109.581 223.600 C 108.570 223.600,103.989 218.401,103.173 216.327 C 102.713 215.157,101.946 213.570,101.468 212.800 L 100.600 211.400 100.600 171.800 L 100.600 132.200 102.697 128.400 C 106.853 120.869,112.021 117.159,119.600 116.267 C 123.195 115.843,133.420 116.210,134.600 116.805 M223.397 145.488 C 220.227 145.782,218.713 147.656,218.690 151.318 C 218.654 156.790,219.699 157.600,226.792 157.600 C 233.362 157.600,234.001 157.079,233.998 151.731 C 233.995 147.128,233.336 146.164,229.800 145.593 C 227.434 145.210,226.556 145.196,223.397 145.488 M232.687 147.384 C 233.721 148.585,233.979 152.792,233.164 155.131 C 232.350 157.467,223.017 158.245,220.661 156.173 C 219.039 154.746,218.617 149.621,219.980 147.905 C 221.782 145.637,230.865 145.265,232.687 147.384 M210.000 296.821 C 206.823 297.214,201.292 299.628,199.214 301.527 C 198.656 302.037,197.361 302.968,196.336 303.595 C 195.130 304.334,194.002 305.504,193.136 306.915 C 192.401 308.113,191.341 309.792,190.780 310.647 C 189.013 313.339,187.650 316.917,187.212 320.011 C 186.487 325.129,186.397 326.287,186.790 325.400 C 186.984 324.960,187.156 324.049,187.172 323.376 C 187.249 320.015,190.252 311.285,191.761 310.032 C 192.118 309.736,192.952 308.483,193.614 307.247 C 195.310 304.083,202.784 299.149,208.051 297.715 C 212.011 296.636,223.996 296.693,226.174 297.800 C 228.956 299.214,230.744 303.940,229.201 305.799 C 228.492 306.653,224.865 306.571,222.515 305.649 C 218.594 304.111,217.488 304.153,210.339 306.119 C 205.560 307.433,201.725 310.407,199.779 314.309 C 199.150 315.569,198.268 317.110,197.818 317.733 C 196.757 319.203,196.611 331.189,197.624 333.600 C 201.250 342.228,208.864 346.910,218.194 346.252 C 220.949 346.058,222.068 345.800,222.937 345.159 C 226.143 342.796,229.601 343.664,229.599 346.831 C 229.596 350.028,227.723 352.067,223.874 353.063 L 221.800 353.600 223.765 353.399 C 227.541 353.012,229.619 350.992,229.915 347.421 C 230.278 343.043,227.749 342.131,222.449 344.728 C 219.739 346.056,213.501 346.275,211.169 345.124 C 210.416 344.752,208.720 344.043,207.400 343.547 C 204.754 342.553,201.613 339.892,200.381 337.600 C 197.281 331.835,197.399 332.304,197.409 325.800 C 197.416 321.259,197.562 319.546,198.009 318.755 C 198.334 318.181,199.297 316.381,200.149 314.755 C 201.001 313.130,201.946 311.656,202.248 311.481 C 202.550 311.305,203.473 310.530,204.299 309.759 C 207.942 306.353,216.030 304.696,222.000 306.131 C 229.144 307.848,230.254 307.380,229.922 302.792 C 229.515 297.161,223.006 295.211,210.000 296.821 M134.200 297.599 C 133.018 298.906,132.724 351.610,133.892 352.903 C 134.814 353.923,154.935 353.744,158.800 352.681 C 161.982 351.806,165.598 350.201,167.113 348.993 C 167.835 348.416,169.317 347.575,170.404 347.123 C 171.930 346.489,172.622 345.892,173.429 344.515 C 174.004 343.533,174.887 342.371,175.391 341.933 C 175.895 341.495,176.631 340.386,177.028 339.468 C 177.424 338.551,178.076 337.427,178.478 336.970 C 179.976 335.267,180.525 331.848,180.530 324.200 C 180.536 315.196,179.467 311.598,175.421 307.000 C 174.840 306.340,173.982 305.283,173.515 304.652 C 173.048 304.020,172.032 303.238,171.258 302.915 C 170.484 302.592,169.299 301.929,168.625 301.443 C 166.611 299.991,164.272 299.191,157.800 297.740 C 152.654 296.587,135.210 296.483,134.200 297.599 M241.065 297.528 C 239.764 298.966,239.600 302.277,239.600 327.185 L 239.600 351.861 240.526 352.730 C 241.866 353.989,247.762 354.017,249.346 352.771 L 250.400 351.942 250.400 343.185 C 250.400 332.968,250.088 333.607,255.074 333.588 C 259.207 333.571,263.803 332.954,265.131 332.236 C 265.719 331.919,267.147 331.182,268.303 330.599 C 270.547 329.468,274.000 326.431,274.000 325.588 C 274.000 325.309,274.616 324.482,275.370 323.750 C 277.987 321.208,278.283 308.884,275.794 306.084 C 275.264 305.488,274.238 304.190,273.515 303.200 C 271.715 300.736,265.852 297.845,261.402 297.226 C 255.864 296.455,241.847 296.664,241.065 297.528 M158.541 298.559 C 164.341 299.828,166.637 300.587,168.200 301.754 C 168.860 302.246,170.030 302.893,170.800 303.190 C 172.441 303.825,173.600 304.734,173.600 305.387 C 173.600 305.642,174.141 306.369,174.803 307.003 C 180.064 312.043,182.357 330.454,178.417 336.020 C 178.020 336.580,177.221 337.975,176.641 339.120 C 176.061 340.264,175.421 341.200,175.218 341.200 C 175.015 341.200,174.187 342.273,173.377 343.585 C 172.206 345.483,171.561 346.102,170.224 346.612 C 169.299 346.965,167.969 347.744,167.268 348.342 C 165.864 349.541,161.745 351.261,157.889 352.259 C 154.016 353.261,135.198 353.541,134.267 352.610 C 133.658 352.001,133.600 349.702,133.600 326.221 C 133.600 298.920,133.637 298.138,134.957 297.567 C 136.849 296.749,153.456 297.447,158.541 298.559 M261.317 297.797 C 265.317 298.494,270.896 300.937,272.411 302.654 C 276.420 307.198,276.787 308.049,276.898 313.076 C 277.042 319.542,276.631 321.742,274.969 323.404 C 274.216 324.157,273.600 324.963,273.600 325.196 C 273.600 328.764,263.144 333.171,254.626 333.192 C 249.513 333.205,249.600 333.027,249.600 343.441 C 249.600 353.675,249.824 353.200,245.000 353.200 C 239.872 353.200,240.360 356.238,240.489 325.128 C 240.597 299.135,240.623 298.318,241.376 297.768 C 242.487 296.956,256.613 296.976,261.317 297.797 M250.689 306.480 C 249.151 308.852,249.032 320.975,250.516 324.000 L 251.400 325.800 254.720 325.732 C 256.546 325.695,258.256 325.493,258.520 325.284 C 258.784 325.075,259.720 324.681,260.600 324.408 C 265.680 322.831,267.325 320.513,267.300 314.966 C 267.271 308.732,265.832 307.156,258.758 305.612 C 252.966 304.348,252.005 304.451,250.689 306.480 M143.886 306.762 C 142.830 308.550,142.843 342.283,143.901 344.400 L 144.600 345.800 148.488 345.774 C 150.627 345.759,152.787 345.549,153.288 345.306 C 153.790 345.062,155.875 344.467,157.922 343.981 C 160.765 343.308,162.017 342.788,163.219 341.784 C 164.085 341.061,164.949 340.408,165.139 340.334 C 165.889 340.043,169.148 334.764,169.826 332.742 C 171.506 327.736,170.541 316.275,168.215 313.600 C 167.737 313.050,167.049 312.121,166.687 311.536 C 164.368 307.788,157.438 305.613,147.786 305.603 C 144.662 305.600,144.553 305.632,143.886 306.762 M260.000 306.432 C 265.432 307.561,266.800 309.330,266.800 315.222 C 266.800 321.034,265.360 322.623,258.505 324.373 C 253.452 325.663,251.698 325.533,250.980 323.813 C 250.060 321.613,250.154 308.346,251.100 306.723 L 251.800 305.522 255.000 305.790 C 256.760 305.937,259.010 306.226,260.000 306.432 M154.213 306.587 C 160.622 307.239,160.918 307.319,162.744 308.894 C 163.484 309.532,164.512 310.214,165.028 310.411 C 165.545 310.607,166.321 311.462,166.754 312.311 C 167.187 313.159,167.802 314.070,168.121 314.334 C 171.043 316.760,170.660 332.718,167.596 336.200 C 167.209 336.640,166.772 337.394,166.626 337.876 C 166.356 338.768,163.379 341.222,161.004 342.510 C 160.284 342.901,158.278 343.478,156.547 343.792 C 154.816 344.106,152.140 344.639,150.600 344.975 C 143.263 346.577,143.600 347.530,143.600 325.178 C 143.600 303.328,142.424 305.387,154.213 306.587 M187.007 330.407 C 187.136 335.003,189.936 342.525,191.990 343.794 C 192.222 343.937,192.665 344.660,192.975 345.401 C 193.284 346.141,194.047 347.010,194.669 347.332 C 195.292 347.655,196.161 348.316,196.601 348.802 C 197.040 349.289,198.221 350.103,199.225 350.612 C 200.229 351.121,201.273 351.806,201.545 352.134 C 202.619 353.428,212.761 354.581,218.400 354.051 C 221.688 353.741,221.608 353.729,216.000 353.684 C 207.574 353.617,204.373 353.151,201.943 351.641 C 200.845 350.958,199.804 350.400,199.630 350.400 C 199.455 350.400,198.522 349.712,197.556 348.871 C 196.590 348.029,195.478 347.222,195.085 347.077 C 194.692 346.932,194.062 346.244,193.685 345.548 C 193.308 344.852,192.539 343.723,191.976 343.041 C 189.684 340.263,187.483 333.725,187.047 328.400 C 186.966 327.410,186.948 328.313,187.007 330.407 " stroke="none" fill="#7cb4e8" fill-rule="evenodd"></path><path id="path4" d="M28.400 0.800 C 28.400 1.516,28.118 1.605,25.700 1.646 C 21.645 1.715,21.831 1.635,21.696 3.380 C 21.546 5.326,21.927 5.106,18.426 5.265 L 15.451 5.400 15.292 6.800 C 15.099 8.502,15.271 8.343,13.485 8.464 C 12.668 8.519,11.979 8.662,11.954 8.782 C 11.929 8.902,11.848 9.516,11.775 10.146 C 11.609 11.561,11.561 11.609,10.146 11.775 C 9.516 11.848,8.902 11.929,8.782 11.954 C 8.662 11.979,8.519 12.668,8.464 13.485 C 8.343 15.271,8.502 15.099,6.800 15.292 L 5.400 15.451 5.265 18.426 C 5.106 21.927,5.326 21.546,3.380 21.696 C 1.635 21.831,1.715 21.645,1.646 25.700 C 1.605 28.118,1.516 28.400,0.800 28.400 C 0.001 28.400,0.000 28.667,0.000 200.000 C 0.000 371.333,0.001 371.600,0.800 371.600 C 1.516 371.600,1.605 371.882,1.646 374.300 C 1.672 375.785,1.717 377.270,1.746 377.600 C 1.783 378.009,2.341 378.239,3.500 378.323 L 5.200 378.446 5.250 381.023 C 5.277 382.440,5.323 383.825,5.350 384.100 C 5.378 384.377,6.069 384.655,6.900 384.724 C 8.351 384.844,8.400 384.899,8.400 386.381 C 8.400 388.003,8.840 388.400,10.633 388.400 C 11.270 388.400,11.616 388.639,11.646 389.100 C 11.672 389.485,11.734 389.980,11.785 390.200 C 11.836 390.420,11.906 390.825,11.939 391.100 C 11.976 391.407,12.619 391.600,13.600 391.600 C 15.027 391.600,15.205 391.708,15.250 392.600 C 15.278 393.150,15.322 393.825,15.350 394.100 C 15.384 394.441,16.383 394.637,18.500 394.717 C 21.562 394.832,21.601 394.847,21.646 395.917 C 21.672 396.513,21.717 397.270,21.746 397.600 C 21.788 398.070,22.515 398.225,25.100 398.316 C 28.071 398.421,28.400 398.510,28.400 399.216 C 28.400 399.993,29.847 400.000,200.000 400.000 C 370.153 400.000,371.600 399.993,371.600 399.216 C 371.600 398.510,371.929 398.421,374.900 398.316 L 378.200 398.200 378.322 396.516 L 378.444 394.833 381.522 394.716 L 384.600 394.600 384.724 393.100 C 384.844 391.649,384.899 391.600,386.381 391.600 C 388.003 391.600,388.400 391.160,388.400 389.367 C 388.400 388.611,388.611 388.400,389.367 388.400 C 391.160 388.400,391.600 388.003,391.600 386.381 C 391.600 384.899,391.649 384.844,393.100 384.724 L 394.600 384.600 394.716 381.522 L 394.833 378.444 396.516 378.322 L 398.200 378.200 398.316 374.900 C 398.421 371.929,398.510 371.600,399.216 371.600 C 399.993 371.600,400.000 370.153,400.000 200.000 C 400.000 29.847,399.993 28.400,399.216 28.400 C 398.510 28.400,398.421 28.071,398.316 25.100 C 398.225 22.515,398.070 21.788,397.600 21.746 C 397.270 21.717,396.513 21.672,395.917 21.646 C 394.847 21.601,394.832 21.562,394.717 18.500 C 394.637 16.383,394.441 15.384,394.100 15.350 C 393.825 15.322,393.150 15.278,392.600 15.250 C 391.708 15.205,391.600 15.027,391.600 13.600 C 391.600 12.619,391.407 11.976,391.100 11.939 C 390.825 11.906,390.420 11.836,390.200 11.785 C 389.980 11.734,389.485 11.672,389.100 11.646 C 388.639 11.616,388.400 11.270,388.400 10.633 C 388.400 8.840,388.003 8.400,386.381 8.400 C 384.899 8.400,384.844 8.351,384.724 6.900 C 384.655 6.069,384.377 5.378,384.100 5.350 C 383.825 5.323,382.440 5.277,381.023 5.250 L 378.446 5.200 378.323 3.500 C 378.239 2.341,378.009 1.783,377.600 1.746 C 377.270 1.717,375.785 1.672,374.300 1.646 C 371.882 1.605,371.600 1.516,371.600 0.800 C 371.600 0.001,371.333 0.000,200.000 0.000 C 28.667 0.000,28.400 0.001,28.400 0.800 M293.052 66.485 C 293.740 66.862,294.406 67.438,294.531 67.764 C 294.656 68.091,295.515 68.562,296.440 68.811 C 298.865 69.464,303.811 74.481,304.474 76.962 C 304.776 78.091,305.220 78.816,305.681 78.937 C 307.809 79.493,307.790 79.160,307.921 119.192 C 308.062 162.316,307.938 165.185,305.854 167.000 C 305.095 167.660,304.362 168.740,304.224 169.400 C 303.934 170.784,300.384 174.800,299.449 174.800 C 299.104 174.800,298.548 175.327,298.215 175.972 C 297.617 177.127,297.368 177.269,295.000 177.790 C 291.263 178.613,291.046 179.339,290.803 191.825 L 290.600 202.250 289.142 203.530 C 288.341 204.233,287.573 205.251,287.438 205.793 C 286.673 208.839,275.664 208.803,273.333 205.748 C 272.748 204.981,271.762 204.090,271.141 203.770 C 270.521 203.449,269.742 202.662,269.411 202.022 C 269.080 201.381,268.445 200.741,268.000 200.600 C 267.555 200.459,266.920 199.819,266.589 199.178 C 266.258 198.538,265.453 197.737,264.800 197.400 C 264.147 197.063,263.352 196.281,263.032 195.662 C 262.712 195.044,261.811 194.102,261.028 193.569 C 260.246 193.036,259.604 192.372,259.603 192.094 C 259.601 191.816,259.042 191.249,258.360 190.834 C 257.678 190.419,256.778 189.518,256.360 188.830 C 255.942 188.143,255.158 187.412,254.619 187.207 C 254.080 187.002,253.371 186.318,253.045 185.686 C 252.718 185.055,251.811 184.102,251.028 183.569 C 250.246 183.036,249.604 182.394,249.603 182.143 C 249.597 181.241,247.832 181.200,209.267 181.197 C 167.483 181.194,165.656 181.119,164.079 179.343 C 163.573 178.773,162.313 177.990,161.279 177.602 C 160.103 177.161,159.211 176.519,158.896 175.887 C 158.619 175.331,157.884 174.698,157.263 174.482 C 156.579 174.244,155.930 173.597,155.618 172.844 C 155.335 172.160,154.883 171.600,154.613 171.600 C 153.866 171.600,152.919 170.341,152.625 168.957 C 152.480 168.274,151.749 167.046,151.001 166.229 C 149.085 164.137,149.147 165.768,149.280 121.490 L 149.400 81.580 150.852 80.210 C 151.715 79.396,152.404 78.302,152.553 77.511 C 152.901 75.656,158.886 69.416,160.695 69.021 C 161.407 68.866,162.307 68.339,162.695 67.850 C 164.470 65.615,161.398 65.709,231.000 65.757 C 287.603 65.797,291.886 65.847,293.052 66.485 M223.800 90.433 C 216.410 91.283,214.912 91.637,214.455 92.638 C 214.220 93.155,213.526 93.698,212.914 93.844 C 211.427 94.199,210.800 94.739,210.800 95.662 C 210.800 96.110,210.228 96.764,209.420 97.241 C 207.967 98.099,208.024 97.926,207.428 103.291 C 207.155 105.750,207.624 106.000,212.524 106.000 C 217.690 106.000,218.748 105.749,219.070 104.449 C 219.212 103.872,220.315 102.410,221.521 101.200 L 223.713 99.000 227.957 99.012 C 232.613 99.025,233.637 99.358,234.356 101.095 C 234.613 101.714,235.219 102.395,235.704 102.610 C 238.299 103.758,238.216 116.000,235.613 116.000 C 235.440 116.000,234.707 116.974,233.986 118.164 C 233.264 119.355,232.285 120.506,231.809 120.723 C 231.334 120.940,230.081 121.864,229.026 122.778 C 227.970 123.691,226.606 124.539,225.995 124.661 C 225.164 124.827,224.824 125.178,224.650 126.050 C 224.495 126.825,223.943 127.497,223.008 128.048 C 222.234 128.505,221.600 128.962,221.600 129.063 C 221.600 129.164,221.405 130.505,221.166 132.042 C 220.553 135.998,220.556 136.000,226.800 136.000 C 232.315 136.000,232.509 135.929,232.973 133.756 C 233.119 133.072,233.770 132.003,234.419 131.381 C 235.069 130.759,235.600 130.076,235.600 129.863 C 235.600 128.864,237.897 126.625,239.773 125.795 C 241.044 125.233,242.008 124.500,242.290 123.882 C 242.560 123.290,243.320 122.690,244.146 122.418 C 245.206 122.068,245.609 121.670,245.804 120.783 C 245.945 120.139,246.581 119.241,247.217 118.788 C 250.306 116.589,250.473 99.645,247.422 98.012 C 246.907 97.736,246.221 96.836,245.897 96.010 C 245.411 94.773,245.057 94.462,243.882 94.242 C 243.099 94.095,241.895 93.449,241.208 92.808 C 239.670 91.370,239.457 91.303,235.000 90.831 C 228.166 90.108,226.988 90.066,223.800 90.433 M135.287 114.089 C 137.191 115.337,137.600 116.977,137.600 123.373 C 137.600 133.006,137.426 133.180,127.280 133.640 C 119.040 134.014,118.155 134.173,117.842 135.340 C 117.328 137.254,117.580 208.286,118.102 208.719 C 118.378 208.948,119.143 209.265,119.802 209.423 C 120.461 209.581,121.221 209.884,121.491 210.097 C 121.762 210.310,124.282 210.581,127.091 210.699 C 134.245 211.000,134.164 210.909,134.307 218.744 C 134.469 227.565,133.740 227.499,141.784 219.421 C 146.314 214.873,149.143 212.334,149.875 212.159 C 150.494 212.011,151.253 211.690,151.561 211.445 C 151.961 211.128,163.979 210.942,193.361 210.799 L 234.600 210.598 236.185 209.699 C 237.056 209.204,237.976 208.800,238.229 208.800 C 238.858 208.800,239.192 205.587,239.197 199.516 C 239.201 192.943,240.317 191.584,244.196 193.425 C 245.329 193.962,246.444 194.972,250.701 199.313 C 251.086 199.704,252.608 201.249,254.084 202.745 C 258.207 206.924,258.933 211.864,255.786 214.339 C 255.244 214.766,254.796 215.359,254.791 215.658 C 254.774 216.730,253.239 219.571,252.187 220.476 C 251.597 220.984,250.961 221.798,250.773 222.285 C 250.585 222.772,249.524 223.630,248.415 224.192 C 247.307 224.754,246.400 225.387,246.400 225.599 C 246.400 226.191,243.645 227.449,241.227 227.962 C 240.032 228.215,238.861 228.583,238.624 228.780 C 236.712 230.367,236.154 230.388,196.546 230.394 C 163.575 230.399,158.338 230.480,157.346 230.998 C 156.716 231.326,155.924 231.596,155.588 231.598 C 155.251 231.599,154.767 232.151,154.513 232.825 C 154.224 233.590,153.603 234.219,152.860 234.500 C 152.039 234.810,151.600 235.298,151.445 236.076 C 151.289 236.857,150.792 237.407,149.832 237.865 C 149.026 238.250,148.239 239.024,147.953 239.713 C 147.656 240.430,146.937 241.118,146.131 241.455 C 145.399 241.760,144.800 242.222,144.800 242.480 C 144.800 243.132,143.172 244.800,142.536 244.800 C 142.247 244.800,141.744 245.437,141.419 246.216 C 141.027 247.154,140.428 247.771,139.643 248.045 C 138.888 248.308,138.310 248.882,138.051 249.625 C 137.804 250.334,137.117 251.043,136.301 251.432 C 135.563 251.784,134.788 252.461,134.579 252.936 C 134.371 253.411,133.639 254.070,132.953 254.400 C 132.267 254.730,131.547 255.357,131.353 255.793 C 130.606 257.472,125.600 258.256,122.509 257.178 C 121.453 256.810,117.750 253.090,116.600 251.243 C 116.372 250.876,116.114 245.793,116.000 239.400 L 115.800 228.200 113.593 227.764 C 110.863 227.225,109.729 226.638,109.398 225.594 C 109.257 225.150,108.537 224.534,107.797 224.225 C 107.048 223.911,106.172 223.118,105.816 222.432 C 105.466 221.754,104.942 221.200,104.652 221.200 C 103.924 221.200,102.997 220.051,102.479 218.504 C 102.240 217.792,101.465 216.487,100.756 215.605 C 98.908 213.305,98.839 211.691,98.841 171.000 C 98.843 131.591,98.901 130.303,100.758 127.993 C 101.451 127.130,102.351 125.647,102.759 124.696 C 103.167 123.745,103.873 122.794,104.330 122.583 C 104.786 122.373,105.580 121.571,106.094 120.803 C 106.608 120.034,107.382 119.342,107.814 119.265 C 108.246 119.187,109.140 118.623,109.800 118.010 C 111.418 116.508,112.246 116.128,114.600 115.804 C 115.700 115.652,117.078 115.191,117.663 114.780 C 120.000 113.133,133.048 112.622,135.287 114.089 M221.291 148.069 C 220.575 148.785,220.628 154.960,221.356 155.563 C 221.729 155.873,223.604 155.988,227.056 155.912 L 232.200 155.800 232.200 151.800 L 232.200 147.800 226.991 147.689 C 223.279 147.610,221.641 147.719,221.291 148.069 M228.109 296.536 C 230.084 297.361,230.801 298.658,231.072 301.895 C 231.501 307.001,230.243 308.680,226.567 307.909 C 220.451 306.625,207.905 307.450,207.002 309.197 C 206.676 309.827,206.029 310.464,205.564 310.611 C 204.237 311.033,201.630 313.783,201.158 315.260 C 200.922 315.997,200.095 317.905,199.320 319.499 C 197.443 323.363,197.404 330.287,199.248 332.280 C 199.831 332.910,200.607 334.556,201.021 336.042 C 201.643 338.276,201.934 338.751,202.904 339.117 C 203.590 339.376,204.230 340.025,204.498 340.734 C 204.821 341.590,205.286 341.984,206.172 342.152 C 210.685 343.010,213.137 343.586,214.047 344.002 C 214.910 344.396,216.013 344.298,220.350 343.440 C 230.342 341.463,231.647 342.055,231.064 348.297 C 230.633 352.906,229.388 353.820,222.698 354.440 C 220.163 354.674,217.701 355.127,217.056 355.476 C 215.841 356.136,212.731 355.972,211.800 355.200 C 211.536 354.981,209.203 354.629,206.616 354.418 C 201.861 354.030,200.435 353.552,199.300 351.964 C 199.024 351.578,198.253 351.143,197.586 350.997 C 196.919 350.850,196.094 350.305,195.754 349.785 C 195.413 349.266,194.537 348.488,193.807 348.057 C 192.931 347.540,192.387 346.851,192.207 346.030 C 192.031 345.231,191.528 344.577,190.801 344.201 C 190.003 343.788,189.477 343.038,189.018 341.655 C 188.660 340.576,188.029 339.388,187.615 339.014 C 185.135 336.769,185.133 315.929,187.612 313.634 C 188.227 313.065,188.933 311.835,189.181 310.899 C 189.451 309.879,190.021 308.943,190.604 308.561 C 191.139 308.210,192.017 306.961,192.555 305.785 C 193.364 304.018,193.870 303.476,195.467 302.665 C 196.530 302.125,197.875 301.149,198.456 300.495 C 199.083 299.788,200.097 299.196,200.951 299.036 C 201.760 298.884,202.572 298.427,202.804 297.992 C 204.010 295.740,223.517 294.618,228.109 296.536 M158.753 296.392 C 160.784 296.625,162.501 297.057,163.109 297.488 C 164.655 298.585,164.862 298.674,167.000 299.168 C 168.388 299.489,169.406 300.054,170.325 301.015 C 171.054 301.777,171.986 302.400,172.396 302.400 C 173.162 302.400,174.800 304.148,174.800 304.966 C 174.800 305.218,175.332 305.625,175.982 305.871 C 176.775 306.170,177.255 306.693,177.440 307.458 C 177.593 308.086,178.390 309.338,179.212 310.241 C 180.479 311.631,180.744 312.243,180.942 314.241 C 181.315 317.983,181.757 324.964,181.649 325.376 C 181.594 325.582,181.398 328.037,181.213 330.831 C 180.864 336.087,180.527 337.290,179.204 337.998 C 178.777 338.226,178.240 339.107,178.012 339.955 C 177.545 341.692,176.197 343.600,175.439 343.600 C 174.958 343.600,174.335 344.581,173.845 346.111 C 173.719 346.501,172.826 347.160,171.859 347.575 C 170.892 347.989,169.559 348.858,168.897 349.505 C 168.218 350.169,166.875 350.887,165.816 351.154 C 164.747 351.423,163.564 352.060,163.069 352.631 C 161.416 354.539,134.997 355.397,133.200 353.600 C 131.921 352.321,131.948 298.682,133.229 297.054 L 134.058 296.000 144.729 296.003 C 150.598 296.005,156.909 296.180,158.753 296.392 M264.963 296.382 C 265.823 296.581,266.931 297.181,267.426 297.715 C 267.966 298.298,268.998 298.793,270.006 298.954 C 271.171 299.141,272.048 299.617,272.871 300.511 C 273.524 301.220,274.698 302.464,275.481 303.274 C 276.970 304.817,277.991 307.691,278.010 310.387 C 278.015 311.164,278.187 312.520,278.393 313.400 C 278.622 314.383,278.624 315.540,278.397 316.400 C 278.194 317.170,277.913 319.047,277.774 320.572 C 277.551 323.019,277.367 323.493,276.203 324.624 C 275.478 325.328,274.771 326.260,274.633 326.695 C 274.139 328.254,271.449 330.702,269.721 331.168 C 268.798 331.416,267.506 332.155,266.852 332.810 C 266.145 333.516,265.202 334.021,264.531 334.052 C 263.909 334.080,260.700 334.215,257.400 334.352 L 251.400 334.600 251.200 343.736 C 250.954 354.964,251.282 354.400,245.000 354.400 C 241.548 354.400,240.737 354.277,239.944 353.635 L 239.000 352.871 238.875 328.935 C 238.733 301.588,238.874 297.935,240.114 296.779 C 241.042 295.915,261.539 295.587,264.963 296.382 M251.443 307.833 C 251.060 308.830,251.172 322.136,251.568 322.762 C 251.984 323.419,259.833 323.115,261.852 322.365 C 264.514 321.377,266.000 318.720,266.000 314.949 L 266.000 311.553 264.240 309.691 C 262.512 307.862,262.423 307.823,259.340 307.542 C 253.866 307.045,251.715 307.124,251.443 307.833 M144.667 307.867 C 144.261 308.272,144.360 342.118,144.769 342.764 C 145.766 344.339,159.910 342.586,161.659 340.671 C 162.297 339.972,163.388 339.208,164.084 338.973 C 165.102 338.629,165.473 338.175,165.984 336.648 C 166.333 335.605,167.092 334.203,167.670 333.535 C 169.693 331.194,169.751 318.487,167.748 316.363 C 167.210 315.792,166.437 314.447,166.029 313.374 C 165.407 311.733,165.075 311.368,163.944 311.080 C 163.205 310.892,162.060 310.224,161.400 309.594 C 160.740 308.964,159.693 308.258,159.074 308.025 C 157.856 307.565,145.108 307.426,144.667 307.867 " stroke="none" fill="#0474d4" fill-rule="evenodd"></path></g></svg>