<?xml version="1.0" encoding="UTF-8"?>
<svg width="36px" height="36px" viewBox="0 0 36 36" version="1.1" xmlns="http://www.w3.org/2000/svg" xmlns:xlink="http://www.w3.org/1999/xlink">
    <title>Guide</title>
    <defs>
        <path d="M17.811,26.904 C18.1563333,26.904 18.483,26.96 18.791,27.072 C19.099,27.184 19.3533333,27.338 19.554,27.534 L19.554,27.534 L19.036,28.122 L18.912625,28.0261875 C18.784875,27.9360625 18.644,27.863 18.49,27.807 C18.2846667,27.7323333 18.07,27.695 17.846,27.695 C17.3046667,27.695 16.9056667,27.8595 16.649,28.1885 C16.3923333,28.5175 16.264,28.9596667 16.264,29.515 C16.264,30.061 16.3923333,30.4985 16.649,30.8275 C16.9056667,31.1565 17.2976667,31.321 17.825,31.321 C18.0723333,31.321 18.301,31.2755 18.511,31.1845 C18.721,31.0935 18.9053333,30.9733333 19.064,30.824 L19.064,30.824 L19.617,31.426 L19.4847,31.54724 C19.2999,31.7025467 19.0815,31.8324667 18.8295,31.937 C18.5145,32.0676667 18.1703333,32.133 17.797,32.133 C17.2696667,32.133 16.8193333,32.0221667 16.446,31.8005 C16.0726667,31.5788333 15.7903333,31.2708333 15.599,30.8765 C15.4076667,30.4821667 15.312,30.0283333 15.312,29.515 C15.312,28.9923333 15.4088333,28.535 15.6025,28.143 C15.7961667,27.751 16.0808333,27.4465 16.4565,27.2295 C16.8321667,27.0125 17.2836667,26.904 17.811,26.904 Z M14.668,27.044 L14.668,27.716 L14.087,27.716 L14.087,31.307 L14.668,31.307 L14.668,32 L12.61,32 L12.61,31.307 L13.191,31.307 L13.191,27.716 L12.61,27.716 L12.61,27.044 L14.668,27.044 Z M23.439,27.044 L23.439,27.779 L21.227,27.779 L21.227,29.102 L23.117,29.102 L23.117,29.809 L21.227,29.809 L21.227,31.251 L23.558,31.251 L23.558,32 L20.31,32 L20.31,27.044 L23.439,27.044 Z M23.9545455,5 C24.7573232,5 25.4222503,5.60208333 25.4936534,6.36397891 L25.5,6.5 L25.5,21.5 C25.5,22.2791667 24.8796717,22.924537 24.0946884,22.99384 L23.9545455,23 L12.3636364,23 C11.5608586,23 10.8959315,22.3979167 10.8245285,21.6360211 L10.8181818,21.5 L10.8181818,20.375 L9.65909091,20.375 C9.00227273,20.375 8.5,19.8875 8.5,19.25 C8.5,18.655 8.93753535,18.1906667 9.52989091,18.1314 L9.65909091,18.125 L10.8181818,18.125 L10.8181818,15.125 L9.65909091,15.125 C9.00227273,15.125 8.5,14.6375 8.5,14 C8.5,13.405 8.93753535,12.9406667 9.52989091,12.8814 L9.65909091,12.875 L10.8181818,12.875 L10.8181818,9.875 L9.65909091,9.875 C9.00227273,9.875 8.5,9.3875 8.5,8.75 C8.5,8.155 8.93753535,7.69066667 9.52989091,7.6314 L9.65909091,7.625 L10.8181818,7.625 L10.8181818,6.5 C10.8181818,5.72083333 11.4385101,5.07546296 12.2234934,5.00615998 L12.3636364,5 L23.9545455,5 Z M19.0119746,12.03125 L16.7463832,12.03125 C16.4001466,12.03125 16.1567775,12.0943813 16.0162757,12.2206439 C15.8757739,12.3469066 15.805523,12.5590278 15.805523,12.8570076 C15.805523,13.1549874 15.8782828,13.3683712 16.0238025,13.4971591 C16.1485337,13.6075487 16.343311,13.6706285 16.6081343,13.6863984 L16.7463832,13.6903409 L17.5969208,13.6903409 L17.5969208,17.3721591 L15.9786413,17.3721591 C15.6273868,17.3721591 15.3802542,17.4352904 15.2372434,17.561553 C15.0942326,17.6878157 15.0227273,17.8974116 15.0227273,18.1903409 C15.0227273,18.4883207 15.0967416,18.7029672 15.2447703,18.8342803 C15.371652,18.9468344 15.5695015,19.0111511 15.8383187,19.0272302 L15.9786413,19.03125 L21.0668133,19.03125 C21.4080319,19.03125 21.6526556,18.9655934 21.8006843,18.8342803 C21.9487129,18.7029672 22.0227273,18.4883207 22.0227273,18.1903409 C22.0227273,17.8974116 21.9499674,17.6878157 21.8044477,17.561553 C21.6797165,17.4533279 21.4812526,17.391485 21.209056,17.3760243 L21.0668133,17.3721591 L19.4485337,17.3721591 L19.4485337,12.3570076 C19.4485337,12.2559975 19.4108993,12.176452 19.3356305,12.1183712 C19.2791789,12.0748106 19.2043805,12.0475852 19.1112353,12.0366951 L19.0119746,12.03125 Z M18.3088199,7.75 C17.7573705,7.75 17.4013714,7.84318424 17.2408229,8.02955272 C17.0802743,8.21592119 17,8.6498935 17,9.33146965 C17,9.69888179 17.0785292,9.94382322 17.2355876,10.0662939 C17.392646,10.1887646 17.7434097,10.25 18.2878788,10.25 C18.8463086,10.25 19.2005625,10.184771 19.3506406,10.0543131 C19.5007186,9.92385517 19.5757576,9.5870607 19.5757576,9.04392971 C19.5757576,8.47949947 19.4919931,8.12273695 19.3244642,7.97364217 C19.1569352,7.82454739 18.8183871,7.75 18.3088199,7.75 Z" id="path-1"></path>
    </defs>
    <g id="Create-Knowledge" stroke="none" stroke-width="1" fill="none" fill-rule="evenodd">
        <g id="Export-to-svg-2-colors" transform="translate(-26.000000, -227.000000)">
            <g id="Guide" transform="translate(26.000000, 227.000000)">
                <rect id="Icon-Background" fill="#04844B" x="0" y="0" width="36" height="36" rx="4"></rect>
                <mask id="mask-2" fill="white">
                    <use xlink:href="#path-1"></use>
                </mask>
                <use fill="#FFFFFF" xlink:href="#path-1"></use>
            </g>
        </g>
    </g>
</svg>