<?xml version="1.0" encoding="UTF-8"?>
<svg width="36px" height="36px" viewBox="0 0 36 36" version="1.1" xmlns="http://www.w3.org/2000/svg" xmlns:xlink="http://www.w3.org/1999/xlink">
    <title>Bulettin</title>
    <g id="Create-Knowledge" stroke="none" stroke-width="1" fill="none" fill-rule="evenodd">
        <g id="Export-to-svg-2-colors" transform="translate(-26.000000, -175.000000)">
            <g id="Bulettin" transform="translate(26.000000, 175.000000)">
                <rect id="Icon-Background" fill="#04844B" x="0" y="0" width="36" height="36" rx="4"></rect>
                <path d="M17.811,26.904 C18.1563333,26.904 18.483,26.96 18.791,27.072 C19.099,27.184 19.3533333,27.338 19.554,27.534 L19.554,27.534 L19.036,28.122 L18.912625,28.0261875 C18.784875,27.9360625 18.644,27.863 18.49,27.807 C18.2846667,27.7323333 18.07,27.695 17.846,27.695 C17.3046667,27.695 16.9056667,27.8595 16.649,28.1885 C16.3923333,28.5175 16.264,28.9596667 16.264,29.515 C16.264,30.061 16.3923333,30.4985 16.649,30.8275 C16.9056667,31.1565 17.2976667,31.321 17.825,31.321 C18.0723333,31.321 18.301,31.2755 18.511,31.1845 C18.721,31.0935 18.9053333,30.9733333 19.064,30.824 L19.064,30.824 L19.617,31.426 L19.4847,31.54724 C19.2999,31.7025467 19.0815,31.8324667 18.8295,31.937 C18.5145,32.0676667 18.1703333,32.133 17.797,32.133 C17.2696667,32.133 16.8193333,32.0221667 16.446,31.8005 C16.0726667,31.5788333 15.7903333,31.2708333 15.599,30.8765 C15.4076667,30.4821667 15.312,30.0283333 15.312,29.515 C15.312,28.9923333 15.4088333,28.535 15.6025,28.143 C15.7961667,27.751 16.0808333,27.4465 16.4565,27.2295 C16.8321667,27.0125 17.2836667,26.904 17.811,26.904 Z M14.668,27.044 L14.668,27.716 L14.087,27.716 L14.087,31.307 L14.668,31.307 L14.668,32 L12.61,32 L12.61,31.307 L13.191,31.307 L13.191,27.716 L12.61,27.716 L12.61,27.044 L14.668,27.044 Z M23.439,27.044 L23.439,27.779 L21.227,27.779 L21.227,29.102 L23.117,29.102 L23.117,29.809 L21.227,29.809 L21.227,31.251 L23.558,31.251 L23.558,32 L20.31,32 L20.31,27.044 L23.439,27.044 Z M20.0859339,4 C20.5809061,4 20.9821603,4.40125423 20.9821603,4.89622642 C20.9821603,5.3911986 20.5809061,5.79245283 20.0859339,5.79245283 L23.5242812,5.79245283 C24.2261059,5.79245283 24.8078323,6.36405301 24.8738422,7.0888271 L24.880079,7.22641509 L24.880079,21.5660377 C24.880079,22.3083241 24.3396364,22.9235882 23.6543693,22.9934037 L23.5242812,23 L13.3557978,23 C12.653973,23 12.0722467,22.4283998 12.0062367,21.7036257 L12,21.5660377 L12,7.22641509 C12,6.48412875 12.5404426,5.86886466 13.2257096,5.79904911 L13.3557978,5.79245283 L16.794145,5.79245283 C16.2991729,5.79245283 15.8979186,5.3911986 15.8979186,4.89622642 C15.8979186,4.40125423 16.2991729,4 16.794145,4 L20.0859339,4 Z M15.1809102,15.7888244 L14.5290843,15.7888244 C14.3552641,15.7888244 14.2031714,15.9496855 14.2031714,16.1335269 L14.2031714,16.8229318 C14.2031714,17.0067731 14.3552641,17.1676343 14.5290843,17.1676343 L15.1809102,17.1676343 C15.3547304,17.1676343 15.5068231,17.0067731 15.5068231,16.8229318 L15.5068231,16.1335269 C15.5068231,15.9496855 15.3547304,15.7888244 15.1809102,15.7888244 Z M22.4196079,15.7888244 L16.4159487,15.7888244 C16.2787222,15.7888244 16.158649,15.9496855 16.158649,16.1335269 L16.158649,16.8229318 C16.158649,17.0067731 16.2787222,17.1676343 16.4159487,17.1676343 L22.4196079,17.1676343 C22.5568344,17.1676343 22.6769076,17.0067731 22.6769076,16.8229318 L22.6769076,16.1335269 C22.6769076,15.9496855 22.5568344,15.7888244 22.4196079,15.7888244 Z M15.1809102,13.0312046 L14.5290843,13.0312046 C14.3552641,13.0312046 14.2031714,13.1920658 14.2031714,13.3759071 L14.2031714,14.065312 C14.2031714,14.2491534 14.3552641,14.4100145 14.5290843,14.4100145 L15.1809102,14.4100145 C15.3547304,14.4100145 15.5068231,14.2491534 15.5068231,14.065312 L15.5068231,13.3759071 C15.5068231,13.1920658 15.3547304,13.0312046 15.1809102,13.0312046 Z M21.7662685,13.0312046 L16.4174622,13.0312046 C16.2794285,13.0312046 16.158649,13.1920658 16.158649,13.3759071 L16.158649,14.065312 C16.158649,14.2491534 16.2794285,14.4100145 16.4174622,14.4100145 L21.7662685,14.4100145 C21.9043022,14.4100145 22.0250817,14.2491534 22.0250817,14.065312 L22.0250817,13.3759071 C22.0250817,13.1920658 21.9043022,13.0312046 21.7662685,13.0312046 Z M15.1809102,10.2735849 L14.5290843,10.2735849 C14.3769916,10.2735849 14.2415341,10.3967442 14.2100461,10.5506934 L14.2031714,10.6182874 L14.2031714,11.3076923 C14.2031714,11.4685535 14.3196174,11.6118204 14.4651748,11.6451237 L14.5290843,11.6523948 L15.1809102,11.6523948 C15.3330029,11.6523948 15.4684605,11.5292355 15.4999484,11.3752863 L15.5068231,11.3076923 L15.5068231,10.6182874 C15.5068231,10.4344461 15.3547304,10.2735849 15.1809102,10.2735849 Z M22.4196079,10.2735849 L16.4159487,10.2735849 C16.2787222,10.2735849 16.158649,10.4344461 16.158649,10.6182874 L16.158649,11.3076923 C16.158649,11.4915336 16.2787222,11.6523948 16.4159487,11.6523948 L22.4196079,11.6523948 C22.5568344,11.6523948 22.6769076,11.4915336 22.6769076,11.3076923 L22.6769076,10.6182874 C22.6769076,10.4344461 22.5568344,10.2735849 22.4196079,10.2735849 Z" fill="#FFFFFF"></path>
            </g>
        </g>
    </g>
</svg>