<?xml version="1.0" encoding="UTF-8"?>
<svg width="180px" height="234px" viewBox="0 0 180 234" version="1.1" xmlns="http://www.w3.org/2000/svg" xmlns:xlink="http://www.w3.org/1999/xlink">
    <!-- Generator: Sketch 46.2 (44496) - http://www.bohemiancoding.com/sketch -->
    <title>Insufficient Privileges</title>
    <desc>Created with Sketch.</desc>
    <defs>
        <rect id="path-1" x="10" y="107" width="160" height="120" rx="2"></rect>
        <filter x="-3.1%" y="-4.2%" width="106.2%" height="108.3%" filterUnits="objectBoundingBox" id="filter-2">
            <feOffset dx="0" dy="10" in="SourceAlpha" result="shadowOffsetInner1"></feOffset>
            <feComposite in="shadowOffsetInner1" in2="SourceAlpha" operator="arithmetic" k2="-1" k3="1" result="shadowInnerInner1"></feComposite>
            <feColorMatrix values="0 0 0 0 1   0 0 0 0 1   0 0 0 0 1  0 0 0 1 0" type="matrix" in="shadowInnerInner1"></feColorMatrix>
        </filter>
        <path d="M90,197 C106.568542,197 120,183.568542 120,167 C120,150.431458 106.568542,137 90,137 C73.4314575,137 60,150.431458 60,167 C60,183.568542 73.4314575,197 90,197 Z" id="path-3"></path>
        <filter x="-11.7%" y="-11.7%" width="123.3%" height="123.3%" filterUnits="objectBoundingBox" id="filter-4">
            <feOffset dx="0" dy="8" in="SourceAlpha" result="shadowOffsetInner1"></feOffset>
            <feComposite in="shadowOffsetInner1" in2="SourceAlpha" operator="arithmetic" k2="-1" k3="1" result="shadowInnerInner1"></feComposite>
            <feColorMatrix values="0 0 0 0 0.933333333   0 0 0 0 0.945098039   0 0 0 0 0.964705882  0 0 0 1 0" type="matrix" in="shadowInnerInner1"></feColorMatrix>
        </filter>
    </defs>
    <g id="Symbols" stroke="none" stroke-width="1" fill="none" fill-rule="evenodd">
        <g id="Illustration---Insufficient-Privileges" transform="translate(0.000000, 3.000000)">
            <g id="Insufficient-Privileges">
                <path d="M30,60 C30,26.862915 56.862915,0 90,0 C123.137085,0 150,26.862915 150,60 L124.99995,60 C124.999982,59.9792607 125,59.9585172 125,59.9377695 C125,40.6278518 109.329966,24.9740706 90,24.9740706 C70.6700338,24.9740706 55,40.6278518 55,59.9377695 C55,59.9585172 55.0000181,59.9792607 55.0000543,60 L30,60 Z M30,60 L55,60 L55,110 L30,110 L30,60 Z M125,60 L150,60 L150,110 L125,110 L125,60 Z" id="Oval-46" stroke="#CFD7E6" stroke-width="6" fill="#FFFFFF"></path>
                <rect id="Rectangle-1576" fill="#EEF1F6" x="0" y="223" width="180" height="8" rx="2"></rect>
                <rect id="Rectangle-171" fill="#FFFFFF" x="33" y="56" width="19" height="7"></rect>
                <rect id="Rectangle-172" fill="#FFFFFF" x="128" y="56" width="19" height="7"></rect>
                <g id="Rectangle-170">
                    <use fill="#EEF1F6" fill-rule="evenodd" xlink:href="#path-1"></use>
                    <use fill="black" fill-opacity="1" filter="url(#filter-2)" xlink:href="#path-1"></use>
                    <rect stroke="#CFD7E6" stroke-width="6" x="13" y="110" width="154" height="114" rx="2"></rect>
                </g>
                <path d="M16,218 L16,209 L25.0003297,209 L22.0006595,209 C18.6865868,209 16,211.693034 16,215 L16,218 Z" id="Rectangle-189-Copy-10" fill="#CFD7E6" transform="translate(20.500165, 215.000000) scale(1, -1) translate(-20.500165, -215.000000) "></path>
                <path d="M155,218 L155,209 L164.00033,209 L161.000659,209 C157.686587,209 155,211.693034 155,215 L155,218 Z" id="Rectangle-189-Copy-10" fill="#CFD7E6" transform="translate(159.500165, 215.000000) scale(-1, -1) translate(-159.500165, -215.000000) "></path>
                <path d="M16,122 L16,113 L25.0003297,113 L22.0006595,113 C18.6865868,113 16,115.693034 16,119 L16,122 Z" id="Rectangle-189-Copy-10" fill="#CFD7E6"></path>
                <path d="M155,122 L155,113 L164.00033,113 L161.000659,113 C157.686587,113 155,115.693034 155,119 L155,122 Z" id="Rectangle-189-Copy-10" fill="#CFD7E6" transform="translate(159.500165, 119.000000) scale(-1, 1) translate(-159.500165, -119.000000) "></path>
                <circle id="Oval-51" stroke="#FFFFFF" stroke-width="6" cx="90" cy="170" r="30"></circle>
                <g id="Oval-52">
                    <use fill="#EEF1F6" fill-rule="evenodd" xlink:href="#path-3"></use>
                    <use fill="black" fill-opacity="1" filter="url(#filter-4)" xlink:href="#path-3"></use>
                    <use stroke="#CFD7E6" stroke-width="6" xlink:href="#path-3"></use>
                </g>
                <circle id="Oval-308" fill="#CFD7E6" cx="90" cy="161" r="9"></circle>
                <rect id="Rectangle-178" fill="#CFD7E6" x="86" y="162" width="8" height="20" rx="4"></rect>
                <circle id="Oval-49" cx="90" cy="59" r="37"></circle>
            </g>
        </g>
    </g>
</svg>