<svg aria-hidden="true" style="position: absolute; width: 0; height: 0; overflow: hidden;" version="1.1" xmlns="http://www.w3.org/2000/svg" xmlns:xlink="http://www.w3.org/1999/xlink">
<defs>
<symbol id="icon-account_miniprogram" viewBox="0 0 32 32">
<path d="M14.578 24.267c-1.422 0.089-2.844-0.089-4.178-0.533l-0.622-0.089-3.022 1.511 0.889-2.578-0.8-0.533c-2.489-1.778-3.911-4.267-3.911-7.022 0-2.044 0.8-4 2.311-5.6 2.133-2.311 5.244-3.644 8.622-3.644 0.711 0 1.422 0.089 2.222 0.178 0.178 0 0.267 0.089 0.444 0.089l0.356 0.089c2.756 0.622 5.156 2.133 6.667 4.267 0.089 0.178 0.267 0.356 0.356 0.533 0.089 0.089 0.178 0.267 0.178 0.356s0.089 0.178 0.089 0.267c0.267 0.622 0.533 1.156 0.622 1.778v0.089c0.178 0.711 0.889 1.156 1.6 0.978s1.156-0.889 0.978-1.6c-0.178-0.8-0.444-1.6-0.8-2.311-0.089-0.089-0.089-0.267-0.178-0.356-0.089-0.178-0.178-0.356-0.267-0.444-0.178-0.267-0.267-0.444-0.444-0.711-1.867-2.667-4.8-4.533-8.178-5.333-0.089 0-0.178-0.089-0.267-0.089h-0.178c-0.178 0-0.356-0.089-0.533-0.089-0.889-0.178-1.778-0.267-2.667-0.267-4.178 0-8 1.6-10.667 4.533-1.956 2.133-3.022 4.711-3.022 7.378 0.089 3.2 1.6 6.222 4.267 8.444l-0.622 1.867c-0.267 0.8 0 1.689 0.622 2.311 0.356 0.356 0.889 0.533 1.422 0.533 0.356 0 0.622-0.089 0.978-0.267l3.289-1.689c1.511 0.356 3.022 0.533 4.533 0.444 0.711 0 1.333-0.622 1.244-1.422 0-0.533-0.622-1.156-1.333-1.067z"></path>
<path d="M20.711 11.822c0-1.244-0.889-2.133-2.133-2.133-0.622 0-1.244 0.178-1.689 0.533-0.533 0.444-0.8 0.978-0.8 1.6 0 1.333 1.333 2.133 2.489 2.133 1.244 0 2.133-0.889 2.133-2.133z"></path>
<path d="M7.644 11.822c0 1.333 1.333 2.133 2.489 2.133 1.244 0 2.133-0.889 2.133-2.133s-0.889-2.133-2.133-2.133c-1.244 0-2.489 0.8-2.489 2.133z"></path>
<path d="M30.933 17.156c-1.156-1.333-3.2-1.867-4.889-1.244-1.778 0.622-2.756 1.956-2.756 3.911 0 1.689 0 3.2 0 4.711 0 0.889-0.356 1.422-1.067 1.689-0.444 0.178-1.689 0.444-2.222-0.8-0.178-0.444-0.267-0.8-0.089-1.067 0.178-0.356 0.533-0.711 1.156-0.978 0.356-0.178 0.889-0.356 1.067-0.8 0.089-0.267 0.089-0.533-0.089-0.889-0.267-0.533-0.8-1.067-1.867-0.533-1.689 0.711-2.667 1.867-2.756 3.022v0c0 2.578 1.689 4.533 4.089 4.622 0 0 0.089 0 0.089 0 2.133 0 4.178-1.867 4.356-3.822 0.089-1.156 0.089-2.4 0-3.556 0-0.533 0-1.156 0-1.689 0-0.978 0.444-1.511 1.422-1.689 0.978-0.089 1.6 0.178 1.956 0.889 0.267 0.711 0 1.244-0.978 1.778l-0.178 0.089c-0.178 0.089-0.356 0.178-0.444 0.267-0.267 0.178-0.8 0.711-0.533 1.511 0.178 0.444 0.622 0.889 1.6 0.711 1.244-0.267 2.4-1.244 2.844-2.578 0.356-1.244 0.178-2.578-0.711-3.556z"></path>
</symbol>
<symbol id="icon-account_service" viewBox="0 0 32 32">
<path d="M18.133 4.267c-0.107 0-0.32-0.107-0.427-0.107-0.853-0.107-1.707-0.213-2.453-0.213-3.84 0-7.253 1.493-9.6 4.053-1.707 1.813-2.56 3.947-2.56 6.187 0 2.987 1.6 5.867 4.267 7.787l0.853 0.64-0.96 2.773 3.413-1.707 0.533 0.107c1.6 0.427 3.2 0.64 4.693 0.533 0.853 0 1.493 0.64 1.493 1.387 0 0.853-0.64 1.493-1.387 1.493-1.707 0.107-3.413-0.107-5.013-0.533l-3.627 1.813c-0.32 0.213-0.747 0.213-1.067 0.213-0.533 0-1.173-0.213-1.6-0.533-0.747-0.64-0.96-1.6-0.747-2.56l0.747-2.133c-2.987-2.24-4.693-5.653-4.693-9.173 0-2.987 1.173-5.867 3.307-8.213 2.88-3.2 7.253-5.013 11.84-5.013 0.96 0 2.027 0 2.987 0.213 0.213 0 0.32 0.107 0.533 0.107h0.107c0.213 0 0.32 0.107 0.427 0.107 3.84 0.853 7.040 2.987 9.067 5.867 0.213 0.32 0.32 0.533 0.533 0.853 0.107 0.213 0.213 0.32 0.32 0.533s0.107 0.32 0.213 0.427c0.427 0.853 0.747 1.707 0.96 2.56 0.213 0.747-0.32 1.6-1.067 1.813s-1.6-0.32-1.813-1.067v-0.107c-0.107-0.64-0.427-1.28-0.747-1.92 0-0.107-0.107-0.213-0.107-0.32-0.107-0.213-0.213-0.32-0.213-0.427-0.107-0.213-0.213-0.427-0.427-0.64v0c-1.6-2.347-4.267-4.053-7.36-4.693l-0.32-0.107z"></path>
<path d="M20.373 13.013c-1.28 0-2.773-0.96-2.773-2.347 0-0.64 0.32-1.28 0.853-1.707s1.173-0.64 1.92-0.64c1.387 0 2.347 0.96 2.347 2.347 0.107 1.387-0.96 2.347-2.347 2.347v0z"></path>
<path d="M10.987 13.013c-1.387 0-2.773-0.96-2.773-2.347 0-1.493 1.493-2.347 2.773-2.347 1.387 0 2.347 0.96 2.347 2.347s-0.96 2.347-2.347 2.347v0z"></path>
<path d="M25.493 24.107c-2.773 0-5.013-2.24-5.013-5.013s2.24-5.013 5.013-5.013 5.013 2.24 5.013 5.013-2.24 5.013-5.013 5.013zM25.493 16.96c-1.173 0-2.133 0.96-2.133 2.133s0.96 2.133 2.133 2.133 2.133-0.96 2.133-2.133c0-1.28-0.96-2.133-2.133-2.133z"></path>
<path d="M29.867 29.12h-8.427c-0.747 0-1.387-0.32-1.813-0.853s-0.64-1.173-0.533-1.92c0.533-3.093 3.307-5.333 6.4-5.333 3.2 0 5.973 2.347 6.4 5.44 0.107 0.64-0.107 1.28-0.533 1.707-0.32 0.64-0.853 0.96-1.493 0.96zM22.293 26.133h6.507c-0.533-1.28-1.813-2.027-3.2-2.027-1.493 0-2.773 0.853-3.307 2.027z"></path>
</symbol>
<symbol id="icon-account_subscription" viewBox="0 0 32 32">
<path d="M23.040 21.76c-0.213-0.427-0.96-0.427-1.28 0-0.427 0.427-0.427 0.96 0 1.28l1.813 1.813c0.427 0.213 0.96 0.213 1.28-0.213l2.987-2.987c0.427-0.427 0.427-0.96 0-1.28-0.427-0.427-0.96-0.427-1.28 0l-2.453 2.453-1.067-1.067z"></path>
<path d="M4.693 29.44c-0.747-0.64-1.067-1.6-0.747-2.56l0.747-2.133c-2.987-2.453-4.693-5.867-4.693-9.493 0-2.987 1.173-5.867 3.307-8.213 2.88-3.2 7.147-5.013 11.84-5.013 1.493 0 3.947 0.427 4.053 0.533 3.84 0.853 7.040 2.987 9.067 5.867 0 0 1.493 2.133 1.92 4.373 0.213 0.853-0.32 1.6-1.173 1.707-0.747 0.213-1.6-0.32-1.707-1.173-0.32-1.387-1.28-2.88-1.493-3.2-1.6-2.347-4.267-4.053-7.36-4.8-0.32-0.107-2.347-0.427-3.413-0.427-3.733 0-7.253 1.493-9.6 4.053-1.707 1.813-2.56 3.947-2.56 6.187 0 2.987 1.6 5.76 4.267 7.787l0.853 0.64-0.96 2.773 3.413-1.707 0.747 0.213c1.28 0.533 3.413 0.533 4.48 0.533 0.853 0 1.493 0.64 1.493 1.387 0 0.853-0.64 1.493-1.387 1.493-0.533 0-3.093 0.107-5.12-0.533 0 0-2.453 1.28-3.413 1.813-0.427 0.213-1.6 0.64-2.56-0.107z"></path>
<path d="M20.373 14.080c-1.28 0-2.773-0.96-2.773-2.347 0-0.64 0.32-1.28 0.853-1.707s1.173-0.64 1.92-0.64c1.387 0 2.347 0.96 2.347 2.347s-0.96 2.347-2.347 2.347v0z"></path>
<path d="M10.987 14.080c-1.387 0-2.773-0.96-2.773-2.347 0-1.493 1.493-2.347 2.773-2.347 1.387 0 2.347 0.96 2.347 2.347s-0.96 2.347-2.347 2.347v0z"></path>
<path d="M24.64 29.44c-4.053 0-7.36-3.307-7.36-7.36s3.307-7.36 7.36-7.36 7.36 3.307 7.36 7.36-3.307 7.36-7.36 7.36zM24.64 17.6c-2.453 0-4.373 2.027-4.373 4.373s2.027 4.373 4.373 4.373 4.373-2.027 4.373-4.373-1.92-4.373-4.373-4.373z"></path>
</symbol>
<symbol id="icon-license_required" viewBox="0 0 48 32">
<path fill="#c2e8ff" style="fill: var(--color1, #c2e8ff)" d="M7.987 7.383l3.414 11.381 0.151 0.067 0.15 0.069c0.926 0.433 1.354 0.781 1.354 1.228 0 0.674-0.466 1.086-1.485 1.312l-0.072 0.015-0.884 0.176c-0.303 0.064-0.569 0.128-0.824 0.199-1.246 0.351-1.951 0.842-1.955 1.424-0.003 0.501 0.822 0.976 2.241 1.316l0.118 0.028 0.148 0.032 0.13 0.027c0.567 0.114 1.435 0.262 1.778 0.319l0.111 0.018 0.43 0.074 0.199 0.033 3.976 0.639 0.592 0.102 0.378 0.068c0.282 0.052 0.537 0.101 0.765 0.149l0.254 0.054 0.186 0.042 0.17 0.041c0.873 0.265 1.207 0.731 1.084 1.349-0.093 0.47-0.459 0.743-1.329 1.080l-0.15 0.057-0.326 0.119-0.752 0.268-1.167 0.41-4.812 1.668c-0.125 0.043-0.253-0.059-0.285-0.227s0.044-0.341 0.169-0.384l4.193-1.451 1.96-0.688 0.831-0.298 0.142-0.053c0.731-0.28 1.039-0.49 1.073-0.662 0.034-0.17-0.057-0.326-0.497-0.491l-0.050-0.018-0.089-0.030-0.090-0.028-0.132-0.032-0.142-0.033c-0.32-0.072-0.717-0.151-1.187-0.236l-0.222-0.040-0.391-0.068-0.477-0.081-4.041-0.65-0.307-0.054-0.592-0.099c-0.466-0.080-1.095-0.193-1.491-0.277l-0.155-0.034-0.15-0.036-0.171-0.043-0.165-0.044c-1.437-0.393-2.231-0.93-2.226-1.84 0.005-0.947 0.722-1.523 1.979-1.931l0.076-0.024 0.134-0.041 0.138-0.040c0.192-0.054 0.389-0.103 0.602-0.152l0.13-0.029 0.233-0.049 0.711-0.141 0.166-0.035c0.724-0.165 1.008-0.383 1.045-0.622l0.003-0.023-0.011-0.016-0.024-0.029c-0.047-0.053-0.12-0.116-0.218-0.186-0.175-0.124-0.42-0.262-0.733-0.412l-0.080-0.038-0.125-0.057c-0.054 0.044-0.122 0.070-0.199 0.070l-3.196-0 0 1.24c0 0.174-0.141 0.316-0.316 0.316s-0.316-0.141-0.316-0.316l-0-1.24-3.196 0c-0.014 0-0.028-0.001-0.042-0.003l-1.183-0 0 1.244c0 0.174-0.141 0.316-0.316 0.316s-0.316-0.141-0.316-0.316l-0-1.244-2 0c-0.214 0-0.366-0.208-0.301-0.412l2.316-7.239c0.094-0.293 0.508-0.293 0.602 0l1.606 5.021 2.843-9.48c0.090-0.3 0.515-0.3 0.605 0zM33.002 10.479l9.861 8.209 5.045 0c0.174 0 0.316 0.141 0.316 0.316s-0.141 0.316-0.316 0.316h-32.351c-0.038 0-0.074-0.007-0.108-0.019 0.103 0.052 0.185 0.105 0.245 0.159 0.57 0.509 0.573 1.522-0.161 1.927-0.379 0.209-0.831 0.414-1.356 0.615l-0.133 0.050-0.041 0.024c-0.336 0.202-0.483 0.388-0.483 0.514 0 0.236 0.193 0.401 0.822 0.543l0.083 0.018 0.056 0.011 0.156 0.026c1.038 0.164 4.567 0.597 6.187 0.775l0.521 0.055 0.199 0.018 0.151 0.011c0.494 0.042 1.843 0.199 3.222 0.383l0.875 0.121 0.683 0.1 0.463 0.071 0.462 0.073c1.923 0.31 3.489 0.636 4.541 0.971l0.158 0.052 0.124 0.043 0.117 0.042c2.6 0.962 4.046 2.097 4.248 3.234 0.124 0.697-0.032 1.297-0.452 1.744-0.102 0.108-0.249 0.085-0.329-0.053s-0.063-0.336 0.039-0.445c0.277-0.295 0.367-0.643 0.286-1.099-0.141-0.792-1.372-1.785-3.63-2.662l-0.11-0.042-0.177-0.066-0.115-0.041c-1.121-0.394-3.020-0.784-5.406-1.15l-0.15-0.023-0.506-0.075-0.384-0.055c-1.167-0.165-2.43-0.322-3.257-0.415l-0.253-0.028-0.402-0.041-0.314-0.025-0.401-0.040-1.216-0.137c-1.974-0.23-4.919-0.598-5.459-0.706l-0.024-0.005-0.056-0.012c-0.844-0.191-1.224-0.514-1.224-1.17 0-0.451 0.271-0.801 0.768-1.097l0.056-0.033 0.029-0.014c0.572-0.213 1.055-0.428 1.451-0.646 0.357-0.197 0.356-0.565 0.079-0.812-0.18-0.161-0.771-0.355-1.734-0.556l-0.179-0.037-0.145-0.029c-0.128-0.025-0.217-0.185-0.199-0.358 0.017-0.163 0.123-0.279 0.243-0.271l0.023 0.003 0.196 0.039c0.816 0.165 1.392 0.324 1.748 0.492-0.089-0.056-0.148-0.155-0.148-0.267 0-0.174 0.141-0.316 0.316-0.316l1.077-0 0.572-2.269c0.028-0.113 0.143-0.181 0.256-0.153 0.078 0.020 0.138 0.082 0.155 0.161l0.35 1.651 6.851-5.447c0.121-0.096 0.294-0.091 0.409 0.013l2.119 1.925 5.262-4.095c0.117-0.091 0.282-0.088 0.396 0.007zM9.669 15.19l-1.532 1.826c-0.038 0.045-0.085 0.077-0.137 0.095l-0 1.754 2.771 0-1.102-3.675zM6.252 13.347l-1.374 4.579 0.3 0.939h2.19l-0-4.201c-0.011-0.008-0.022-0.017-0.032-0.027l-0.022-0.024-1.062-1.266zM2.316 13.962l-1.567 4.9 1.567-0v-4.9zM3.689 16.28l-0.741 0.884v1.699h0.991l0.279-0.929-0.529-1.653zM32.793 11.127l-7.586 5.904c-0.138 0.107-0.336 0.082-0.443-0.055s-0.082-0.336 0.055-0.443l2.019-1.571-1.839-1.67-6.787 5.397h23.663l-9.082-7.56zM8 9.626v6.571l1.452-1.73-1.452-4.84zM2.948 13.962v2.219l0.442-0.527c0.023-0.027 0.049-0.049 0.077-0.067l-0.52-1.625zM7.369 9.626l-0.912 3.040c0.037 0.015 0.072 0.037 0.102 0.067l0.022 0.023 0.788 0.939v-4.069zM41.511 2.927c0.527 0.235 0.875 0.563 1.11 1.091 0.048 0.107 0.089 0.208 0.123 0.301 0.536-0.014 1.051 0.213 1.342 0.568 0.255 0.311 0.373 0.583 0.439 0.94 0.014 0.077 0.025 0.158 0.032 0.243l0.006 0.086 0.067 0.005c0.442 0.037 0.771 0.181 0.976 0.449 0.274 0.353 0.343 0.805 0.219 1.191-0.147 0.457-0.558 0.829-1.121 0.852l-0.057 0.001h-10.504c-0.174 0-0.316-0.141-0.316-0.316 0-0.164 0.125-0.299 0.285-0.314l0.030-0.001h10.504c0.291 0 0.502-0.185 0.576-0.415 0.062-0.193 0.026-0.427-0.118-0.613-0.107-0.14-0.361-0.221-0.783-0.212l-0.061 0.002-0.342 0.014 0.013-0.342c0.008-0.199-0.002-0.371-0.029-0.515-0.047-0.256-0.123-0.43-0.306-0.654-0.189-0.23-0.577-0.379-0.962-0.328-0.014 0.006-0.029 0.011-0.044 0.014-0.025 0.006-0.050 0.008-0.075 0.008l-0.046 0.012-0.048 0.015c-0.336 0.116-0.551 0.354-0.664 0.746-0.048 0.168-0.223 0.264-0.391 0.216s-0.264-0.223-0.216-0.391c0.157-0.547 0.484-0.932 0.966-1.131-0.022-0.054-0.046-0.113-0.074-0.175-0.169-0.38-0.401-0.599-0.791-0.772-0.479-0.214-1.078-0.188-1.533 0.187-0.477 0.405-0.678 0.885-0.618 1.473l0.007 0.063 0.047 0.357h-2.887c-0.174 0-0.316-0.141-0.316-0.316 0-0.164 0.125-0.299 0.285-0.314l0.030-0.001h2.19l0.001-0.072c0.023-0.649 0.31-1.213 0.853-1.674 0.664-0.546 1.514-0.582 2.195-0.279zM41.457 6.288c0.174 0 0.316 0.141 0.316 0.316 0 0.164-0.125 0.299-0.285 0.314l-0.030 0.001h-8.643c-0.174 0-0.316-0.141-0.316-0.316 0-0.164 0.125-0.299 0.285-0.314l0.030-0.001h8.643zM31.485 6.288c0.174 0 0.316 0.141 0.316 0.316 0 0.164-0.125 0.299-0.285 0.314l-0.030 0.001h-1.064c-0.174 0-0.316-0.141-0.316-0.316 0-0.164 0.125-0.299 0.285-0.314l0.030-0.001h1.064zM17.301 0.19c0.527 0.235 0.875 0.563 1.11 1.091 0.048 0.107 0.089 0.208 0.123 0.301 0.537-0.014 1.051 0.213 1.342 0.568 0.255 0.311 0.373 0.583 0.439 0.94 0.014 0.077 0.025 0.158 0.032 0.243l0.006 0.086 0.067 0.005c0.442 0.037 0.771 0.181 0.976 0.449 0.274 0.353 0.343 0.805 0.219 1.191-0.147 0.457-0.558 0.829-1.121 0.852l-0.057 0.001h-10.504c-0.174 0-0.316-0.141-0.316-0.316 0-0.164 0.125-0.299 0.285-0.314l0.030-0.001h10.504c0.291 0 0.502-0.185 0.576-0.415 0.062-0.193 0.026-0.427-0.118-0.613-0.107-0.14-0.361-0.221-0.783-0.212l-0.061 0.002-0.342 0.014 0.013-0.342c0.008-0.199-0.002-0.371-0.029-0.515-0.047-0.256-0.123-0.43-0.306-0.654-0.189-0.23-0.577-0.379-0.962-0.328-0.014 0.006-0.029 0.011-0.044 0.014-0.025 0.006-0.050 0.009-0.075 0.008l-0.046 0.012-0.048 0.015c-0.336 0.116-0.551 0.354-0.664 0.746-0.048 0.168-0.223 0.264-0.391 0.216s-0.264-0.223-0.216-0.391c0.157-0.547 0.484-0.932 0.966-1.131-0.022-0.054-0.046-0.113-0.074-0.175-0.169-0.38-0.401-0.599-0.791-0.772-0.479-0.214-1.078-0.188-1.533 0.187-0.477 0.404-0.678 0.885-0.618 1.473l0.007 0.063 0.047 0.357h-2.887c-0.174 0-0.316-0.141-0.316-0.316 0-0.164 0.125-0.299 0.285-0.314l0.030-0.001h2.19l0.001-0.072c0.023-0.649 0.31-1.213 0.853-1.674 0.664-0.546 1.514-0.582 2.195-0.279zM17.247 3.551c0.174 0 0.316 0.141 0.316 0.316 0 0.164-0.125 0.299-0.285 0.314l-0.030 0.001h-8.643c-0.174 0-0.316-0.141-0.316-0.316 0-0.164 0.125-0.299 0.285-0.314l0.030-0.001h8.643zM7.274 3.551c0.174 0 0.316 0.141 0.316 0.316 0 0.164-0.125 0.299-0.285 0.314l-0.030 0.001h-1.064c-0.174 0-0.316-0.141-0.316-0.316 0-0.164 0.125-0.299 0.285-0.314l0.030-0.001h1.064z"></path>
<path fill="#c2e8ff" style="fill: var(--color1, #c2e8ff)" d="M24.421 8.211c3.255 0 5.895 2.639 5.895 5.895 0 2.514-1.574 4.66-3.789 5.508l-0 1.678c0 0.093-0.029 0.183-0.082 0.259l-0.651 0.93c-0.112 0.16-0.109 0.373 0.008 0.53l0.634 0.85c0.059 0.078 0.090 0.173 0.090 0.271v0.632c0 0.111-0.041 0.219-0.116 0.302l-0.831 0.926c-0.155 0.172-0.155 0.432 0 0.605l0.831 0.926c0.075 0.083 0.116 0.191 0.116 0.302v1.902c0 0.129-0.055 0.252-0.153 0.339l-1.186 1.052c-0.376 0.334-0.946 0.334-1.322 0l-1.186-1.052c-0.097-0.086-0.153-0.209-0.153-0.339l0-10.038c-2.326-0.789-4-2.991-4-5.584 0-3.256 2.639-5.895 5.895-5.895z"></path>
<path fill="#8cd3f8" style="fill: var(--color2, #8cd3f8)" d="M24.025 8.117c-3.121 0.192-5.648 2.724-5.806 5.819l-0.004 0.088c-0.095 2.591 1.442 4.916 3.79 5.897l0.116 0.047 0 9.775c0 0.219 0.094 0.427 0.259 0.572l1.177 1.041c0.493 0.436 1.238 0.436 1.731 0l1.177-1.042c0.164-0.145 0.258-0.353 0.258-0.572v-1.882c0-0.188-0.070-0.37-0.196-0.51l-0.826-0.917c-0.045-0.050-0.045-0.125 0-0.176l0.825-0.917c0.126-0.141 0.196-0.323 0.196-0.511v-0.625c0-0.165-0.054-0.325-0.153-0.457l-0.63-0.84c-0.034-0.046-0.035-0.107-0.002-0.153l0.646-0.92 0.029-0.044c0.072-0.119 0.11-0.255 0.11-0.394l-0-1.428 0.038-0.015c2.315-0.931 3.872-3.168 3.872-5.699 0-3.509-2.955-6.303-6.499-6.144l-0.108 0.006zM30 14.256c0 2.349-1.498 4.418-3.699 5.197l-0.21 0.075v1.87c0 0.027-0.008 0.053-0.024 0.075l-0.646 0.92c-0.19 0.27-0.184 0.631 0.014 0.895l0.63 0.841c0.017 0.023 0.026 0.050 0.026 0.079v0.625c0 0.032-0.012 0.064-0.035 0.089l-0.825 0.916c-0.262 0.291-0.262 0.73 0 1.021l0.825 0.917c0.022 0.024 0.034 0.056 0.034 0.088v1.882c0 0.037-0.016 0.073-0.045 0.098l-1.178 1.042c-0.254 0.225-0.64 0.225-0.894-0l-1.177-1.042c-0.029-0.026-0.045-0.061-0.045-0.099v-10.217l-0.21-0.074c-2.297-0.813-3.817-3.022-3.692-5.484 0.142-2.773 2.413-5.049 5.214-5.221 3.229-0.199 5.936 2.329 5.936 5.508z"></path>
<path fill="#8cd3f8" style="fill: var(--color2, #8cd3f8)" d="M23.895 19.474c0.164 0 0.299 0.125 0.314 0.285l0.001 0.030v8c0 0.174-0.141 0.316-0.316 0.316-0.164 0-0.299-0.125-0.314-0.285l-0.001-0.030v-8c0-0.174 0.141-0.316 0.316-0.316z"></path>
<path fill="#fff1f1" style="fill: var(--color3, #fff1f1)" d="M24.684 11.596c1.154 0.145 1.971 1.198 1.826 2.352s-1.198 1.971-2.352 1.825c-1.153-0.145-1.971-1.198-1.826-2.352s1.198-1.971 2.352-1.825z"></path>
<path fill="#8cd3f8" style="fill: var(--color2, #8cd3f8)" d="M22.019 13.382c-0.167 1.327 0.773 2.537 2.099 2.704s2.537-0.773 2.704-2.099c0.167-1.327-0.773-2.537-2.099-2.704s-2.537 0.773-2.704 2.099zM24.645 11.909c0.981 0.123 1.675 1.018 1.552 1.999s-1.018 1.675-1.999 1.552c-0.98-0.123-1.675-1.018-1.552-1.999 0.121-0.963 0.986-1.65 1.945-1.557l0.053 0.006z"></path>
</symbol>
<symbol id="icon-symbol" viewBox="0 0 32 32">
<path fill="#8cd3f8" style="fill: var(--color2, #8cd3f8)" d="M22.019 13.382c-0.167 1.327 0.773 2.537 2.099 2.704s2.537-0.773 2.704-2.099c0.167-1.327-0.773-2.537-2.099-2.704s-2.537 0.773-2.704 2.099zM24.645 11.909c0.981 0.123 1.675 1.018 1.552 1.999s-1.018 1.675-1.999 1.552c-0.98-0.123-1.675-1.018-1.552-1.999 0.121-0.963 0.986-1.65 1.945-1.557l0.053 0.006z"></path>
</symbol>
<symbol id="icon-tag" viewBox="0 0 32 32">
<path d="M28.373 1.493h-10.667c-0.96 0-2.453 0.32-4.053 1.813l-11.413 11.307c-1.493 1.493-1.493 3.84 0 5.333l9.6 9.493c1.493 1.493 3.947 1.493 5.44 0l11.733-11.733c0.747-0.747 2.027-2.24 2.027-3.733v-9.92c-0.107-1.493-1.28-2.56-2.667-2.56zM15.787 27.093c-0.747 0.747-2.027 0.747-2.773 0l-8-8c-0.747-0.747-0.747-2.027 0-2.773l1.387-1.387 10.667 10.667-1.28 1.493zM24.747 12.693c-1.493 1.6-3.947 1.6-5.44 0-1.493-1.493-1.493-3.947 0-5.44s3.947-1.493 5.44 0 1.493 3.947 0 5.44z"></path>
</symbol>
</defs>
</svg>
